<svg width="175" height="175" viewBox="0 0 175 175" fill="none" xmlns="http://www.w3.org/2000/svg">
<g clip-path="url(#clip0_460_133)">
<path d="M175 0H0V175H175V0Z" fill="white"/>
<path d="M52.0051 9.45947H47.2778V14.1867H52.0051V9.45947Z" fill="black"/>
<path d="M56.7322 9.45947H52.0049V14.1867H56.7322V9.45947Z" fill="black"/>
<path d="M61.4592 9.45947H56.7319V14.1867H61.4592V9.45947Z" fill="black"/>
<path d="M66.1867 9.45947H61.4595V14.1867H66.1867V9.45947Z" fill="black"/>
<path d="M75.6413 9.45947H70.9141V14.1867H75.6413V9.45947Z" fill="black"/>
<path d="M80.3684 9.45947H75.6411V14.1867H80.3684V9.45947Z" fill="black"/>
<path d="M89.823 9.45947H85.0957V14.1867H89.823V9.45947Z" fill="black"/>
<path d="M94.5505 9.45947H89.8232V14.1867H94.5505V9.45947Z" fill="black"/>
<path d="M99.2776 9.45947H94.5503V14.1867H99.2776V9.45947Z" fill="black"/>
<path d="M113.46 9.45947H108.732V14.1867H113.46V9.45947Z" fill="black"/>
<path d="M118.187 9.45947H113.459V14.1867H118.187V9.45947Z" fill="black"/>
<path d="M52.0051 14.1868H47.2778V18.914H52.0051V14.1868Z" fill="black"/>
<path d="M70.9138 14.1868H66.1865V18.914H70.9138V14.1868Z" fill="black"/>
<path d="M75.6413 14.1868H70.9141V18.914H75.6413V14.1868Z" fill="black"/>
<path d="M99.2776 14.1868H94.5503V18.914H99.2776V14.1868Z" fill="black"/>
<path d="M104.005 14.1868H99.2778V18.914H104.005V14.1868Z" fill="black"/>
<path d="M127.641 14.1868H122.914V18.914H127.641V14.1868Z" fill="black"/>
<path d="M52.0051 18.9141H47.2778V23.6413H52.0051V18.9141Z" fill="black"/>
<path d="M56.7322 18.9141H52.0049V23.6413H56.7322V18.9141Z" fill="black"/>
<path d="M61.4592 18.9141H56.7319V23.6413H61.4592V18.9141Z" fill="black"/>
<path d="M70.9138 18.9141H66.1865V23.6413H70.9138V18.9141Z" fill="black"/>
<path d="M75.6413 18.9141H70.9141V23.6413H75.6413V18.9141Z" fill="black"/>
<path d="M85.0959 18.9141H80.3687V23.6413H85.0959V18.9141Z" fill="black"/>
<path d="M89.823 18.9141H85.0957V23.6413H89.823V18.9141Z" fill="black"/>
<path d="M108.732 18.9141H104.005V23.6413H108.732V18.9141Z" fill="black"/>
<path d="M113.46 18.9141H108.732V23.6413H113.46V18.9141Z" fill="black"/>
<path d="M122.914 18.9141H118.187V23.6413H122.914V18.9141Z" fill="black"/>
<path d="M61.4592 23.6414H56.7319V28.3686H61.4592V23.6414Z" fill="black"/>
<path d="M70.9138 23.6414H66.1865V28.3686H70.9138V23.6414Z" fill="black"/>
<path d="M75.6413 23.6414H70.9141V28.3686H75.6413V23.6414Z" fill="black"/>
<path d="M80.3684 23.6414H75.6411V28.3686H80.3684V23.6414Z" fill="black"/>
<path d="M94.5505 23.6414H89.8232V28.3686H94.5505V23.6414Z" fill="black"/>
<path d="M99.2776 23.6414H94.5503V28.3686H99.2776V23.6414Z" fill="black"/>
<path d="M104.005 23.6414H99.2778V28.3686H104.005V23.6414Z" fill="black"/>
<path d="M113.46 23.6414H108.732V28.3686H113.46V23.6414Z" fill="black"/>
<path d="M122.914 23.6414H118.187V28.3686H122.914V23.6414Z" fill="black"/>
<path d="M127.641 23.6414H122.914V28.3686H127.641V23.6414Z" fill="black"/>
<path d="M52.0051 28.3687H47.2778V33.0959H52.0051V28.3687Z" fill="black"/>
<path d="M75.6413 28.3687H70.9141V33.0959H75.6413V28.3687Z" fill="black"/>
<path d="M104.005 28.3687H99.2778V33.0959H104.005V28.3687Z" fill="black"/>
<path d="M108.732 28.3687H104.005V33.0959H108.732V28.3687Z" fill="black"/>
<path d="M113.46 28.3687H108.732V33.0959H113.46V28.3687Z" fill="black"/>
<path d="M61.4592 33.0959H56.7319V37.8232H61.4592V33.0959Z" fill="black"/>
<path d="M66.1867 33.0959H61.4595V37.8232H66.1867V33.0959Z" fill="black"/>
<path d="M75.6413 33.0959H70.9141V37.8232H75.6413V33.0959Z" fill="black"/>
<path d="M80.3684 33.0959H75.6411V37.8232H80.3684V33.0959Z" fill="black"/>
<path d="M94.5505 33.0959H89.8232V37.8232H94.5505V33.0959Z" fill="black"/>
<path d="M118.187 33.0959H113.459V37.8232H118.187V33.0959Z" fill="black"/>
<path d="M122.914 33.0959H118.187V37.8232H122.914V33.0959Z" fill="black"/>
<path d="M52.0051 37.8232H47.2778V42.5505H52.0051V37.8232Z" fill="black"/>
<path d="M61.4592 37.8232H56.7319V42.5505H61.4592V37.8232Z" fill="black"/>
<path d="M70.9138 37.8232H66.1865V42.5505H70.9138V37.8232Z" fill="black"/>
<path d="M80.3684 37.8232H75.6411V42.5505H80.3684V37.8232Z" fill="black"/>
<path d="M89.823 37.8232H85.0957V42.5505H89.823V37.8232Z" fill="black"/>
<path d="M99.2776 37.8232H94.5503V42.5505H99.2776V37.8232Z" fill="black"/>
<path d="M108.732 37.8232H104.005V42.5505H108.732V37.8232Z" fill="black"/>
<path d="M118.187 37.8232H113.459V42.5505H118.187V37.8232Z" fill="black"/>
<path d="M127.641 37.8232H122.914V42.5505H127.641V37.8232Z" fill="black"/>
<path d="M61.4592 42.5505H56.7319V47.2778H61.4592V42.5505Z" fill="black"/>
<path d="M66.1867 42.5505H61.4595V47.2778H66.1867V42.5505Z" fill="black"/>
<path d="M75.6413 42.5505H70.9141V47.2778H75.6413V42.5505Z" fill="black"/>
<path d="M85.0959 42.5505H80.3687V47.2778H85.0959V42.5505Z" fill="black"/>
<path d="M89.823 42.5505H85.0957V47.2778H89.823V42.5505Z" fill="black"/>
<path d="M104.005 42.5505H99.2778V47.2778H104.005V42.5505Z" fill="black"/>
<path d="M118.187 42.5505H113.459V47.2778H118.187V42.5505Z" fill="black"/>
<path d="M14.1867 47.2776H9.45947V52.0049H14.1867V47.2776Z" fill="black"/>
<path d="M28.3684 47.2776H23.6411V52.0049H28.3684V47.2776Z" fill="black"/>
<path d="M33.0959 47.2776H28.3687V52.0049H33.0959V47.2776Z" fill="black"/>
<path d="M37.823 47.2776H33.0957V52.0049H37.823V47.2776Z" fill="black"/>
<path d="M42.5505 47.2776H37.8232V52.0049H42.5505V47.2776Z" fill="black"/>
<path d="M47.2776 47.2776H42.5503V52.0049H47.2776V47.2776Z" fill="black"/>
<path d="M52.0051 47.2776H47.2778V52.0049H52.0051V47.2776Z" fill="black"/>
<path d="M56.7322 47.2776H52.0049V52.0049H56.7322V47.2776Z" fill="black"/>
<path d="M61.4592 47.2776H56.7319V52.0049H61.4592V47.2776Z" fill="black"/>
<path d="M80.3684 47.2776H75.6411V52.0049H80.3684V47.2776Z" fill="black"/>
<path d="M85.0959 47.2776H80.3687V52.0049H85.0959V47.2776Z" fill="black"/>
<path d="M94.5505 47.2776H89.8232V52.0049H94.5505V47.2776Z" fill="black"/>
<path d="M99.2776 47.2776H94.5503V52.0049H99.2776V47.2776Z" fill="black"/>
<path d="M104.005 47.2776H99.2778V52.0049H104.005V47.2776Z" fill="black"/>
<path d="M122.914 47.2776H118.187V52.0049H122.914V47.2776Z" fill="black"/>
<path d="M127.641 47.2776H122.914V52.0049H127.641V47.2776Z" fill="black"/>
<path d="M132.368 47.2776H127.641V52.0049H132.368V47.2776Z" fill="black"/>
<path d="M146.551 47.2776H141.823V52.0049H146.551V47.2776Z" fill="black"/>
<path d="M156.005 47.2776H151.278V52.0049H156.005V47.2776Z" fill="black"/>
<path d="M160.732 47.2776H156.005V52.0049H160.732V47.2776Z" fill="black"/>
<path d="M165.459 47.2776H160.732V52.0049H165.459V47.2776Z" fill="black"/>
<path d="M18.9138 52.0049H14.1865V56.7322H18.9138V52.0049Z" fill="black"/>
<path d="M37.823 52.0049H33.0957V56.7322H37.823V52.0049Z" fill="black"/>
<path d="M47.2776 52.0049H42.5503V56.7322H47.2776V52.0049Z" fill="black"/>
<path d="M52.0051 52.0049H47.2778V56.7322H52.0051V52.0049Z" fill="black"/>
<path d="M56.7322 52.0049H52.0049V56.7322H56.7322V52.0049Z" fill="black"/>
<path d="M61.4592 52.0049H56.7319V56.7322H61.4592V52.0049Z" fill="black"/>
<path d="M66.1867 52.0049H61.4595V56.7322H66.1867V52.0049Z" fill="black"/>
<path d="M70.9138 52.0049H66.1865V56.7322H70.9138V52.0049Z" fill="black"/>
<path d="M85.0959 52.0049H80.3687V56.7322H85.0959V52.0049Z" fill="black"/>
<path d="M99.2776 52.0049H94.5503V56.7322H99.2776V52.0049Z" fill="black"/>
<path d="M104.005 52.0049H99.2778V56.7322H104.005V52.0049Z" fill="black"/>
<path d="M122.914 52.0049H118.187V56.7322H122.914V52.0049Z" fill="black"/>
<path d="M127.641 52.0049H122.914V56.7322H127.641V52.0049Z" fill="black"/>
<path d="M146.551 52.0049H141.823V56.7322H146.551V52.0049Z" fill="black"/>
<path d="M151.278 52.0049H146.55V56.7322H151.278V52.0049Z" fill="black"/>
<path d="M156.005 52.0049H151.278V56.7322H156.005V52.0049Z" fill="black"/>
<path d="M160.732 52.0049H156.005V56.7322H160.732V52.0049Z" fill="black"/>
<path d="M14.1867 56.7322H9.45947V61.4595H14.1867V56.7322Z" fill="black"/>
<path d="M18.9138 56.7322H14.1865V61.4595H18.9138V56.7322Z" fill="black"/>
<path d="M23.6413 56.7322H18.9141V61.4595H23.6413V56.7322Z" fill="black"/>
<path d="M33.0959 56.7322H28.3687V61.4595H33.0959V56.7322Z" fill="black"/>
<path d="M37.823 56.7322H33.0957V61.4595H37.823V56.7322Z" fill="black"/>
<path d="M42.5505 56.7322H37.8232V61.4595H42.5505V56.7322Z" fill="black"/>
<path d="M56.7322 56.7322H52.0049V61.4595H56.7322V56.7322Z" fill="black"/>
<path d="M61.4592 56.7322H56.7319V61.4595H61.4592V56.7322Z" fill="black"/>
<path d="M70.9138 56.7322H66.1865V61.4595H70.9138V56.7322Z" fill="black"/>
<path d="M85.0959 56.7322H80.3687V61.4595H85.0959V56.7322Z" fill="black"/>
<path d="M94.5505 56.7322H89.8232V61.4595H94.5505V56.7322Z" fill="black"/>
<path d="M113.46 56.7322H108.732V61.4595H113.46V56.7322Z" fill="black"/>
<path d="M118.187 56.7322H113.459V61.4595H118.187V56.7322Z" fill="black"/>
<path d="M122.914 56.7322H118.187V61.4595H122.914V56.7322Z" fill="black"/>
<path d="M132.368 56.7322H127.641V61.4595H132.368V56.7322Z" fill="black"/>
<path d="M146.551 56.7322H141.823V61.4595H146.551V56.7322Z" fill="black"/>
<path d="M151.278 56.7322H146.55V61.4595H151.278V56.7322Z" fill="black"/>
<path d="M156.005 56.7322H151.278V61.4595H156.005V56.7322Z" fill="black"/>
<path d="M160.732 56.7322H156.005V61.4595H160.732V56.7322Z" fill="black"/>
<path d="M165.459 56.7322H160.732V61.4595H165.459V56.7322Z" fill="black"/>
<path d="M23.6413 61.4595H18.9141V66.1867H23.6413V61.4595Z" fill="black"/>
<path d="M28.3684 61.4595H23.6411V66.1867H28.3684V61.4595Z" fill="black"/>
<path d="M47.2776 61.4595H42.5503V66.1867H47.2776V61.4595Z" fill="black"/>
<path d="M52.0051 61.4595H47.2778V66.1867H52.0051V61.4595Z" fill="black"/>
<path d="M56.7322 61.4595H52.0049V66.1867H56.7322V61.4595Z" fill="black"/>
<path d="M61.4592 61.4595H56.7319V66.1867H61.4592V61.4595Z" fill="black"/>
<path d="M66.1867 61.4595H61.4595V66.1867H66.1867V61.4595Z" fill="black"/>
<path d="M70.9138 61.4595H66.1865V66.1867H70.9138V61.4595Z" fill="black"/>
<path d="M80.3684 61.4595H75.6411V66.1867H80.3684V61.4595Z" fill="black"/>
<path d="M89.823 61.4595H85.0957V66.1867H89.823V61.4595Z" fill="black"/>
<path d="M94.5505 61.4595H89.8232V66.1867H94.5505V61.4595Z" fill="black"/>
<path d="M99.2776 61.4595H94.5503V66.1867H99.2776V61.4595Z" fill="black"/>
<path d="M104.005 61.4595H99.2778V66.1867H104.005V61.4595Z" fill="black"/>
<path d="M118.187 61.4595H113.459V66.1867H118.187V61.4595Z" fill="black"/>
<path d="M127.641 61.4595H122.914V66.1867H127.641V61.4595Z" fill="black"/>
<path d="M132.368 61.4595H127.641V66.1867H132.368V61.4595Z" fill="black"/>
<path d="M137.096 61.4595H132.369V66.1867H137.096V61.4595Z" fill="black"/>
<path d="M141.823 61.4595H137.096V66.1867H141.823V61.4595Z" fill="black"/>
<path d="M156.005 61.4595H151.278V66.1867H156.005V61.4595Z" fill="black"/>
<path d="M160.732 61.4595H156.005V66.1867H160.732V61.4595Z" fill="black"/>
<path d="M14.1867 66.1868H9.45947V70.914H14.1867V66.1868Z" fill="black"/>
<path d="M28.3684 66.1868H23.6411V70.914H28.3684V66.1868Z" fill="black"/>
<path d="M42.5505 66.1868H37.8232V70.914H42.5505V66.1868Z" fill="black"/>
<path d="M47.2776 66.1868H42.5503V70.914H47.2776V66.1868Z" fill="black"/>
<path d="M56.7322 66.1868H52.0049V70.914H56.7322V66.1868Z" fill="black"/>
<path d="M66.1867 66.1868H61.4595V70.914H66.1867V66.1868Z" fill="black"/>
<path d="M70.9138 66.1868H66.1865V70.914H70.9138V66.1868Z" fill="black"/>
<path d="M75.6413 66.1868H70.9141V70.914H75.6413V66.1868Z" fill="black"/>
<path d="M80.3684 66.1868H75.6411V70.914H80.3684V66.1868Z" fill="black"/>
<path d="M85.0959 66.1868H80.3687V70.914H85.0959V66.1868Z" fill="black"/>
<path d="M99.2776 66.1868H94.5503V70.914H99.2776V66.1868Z" fill="black"/>
<path d="M104.005 66.1868H99.2778V70.914H104.005V66.1868Z" fill="black"/>
<path d="M108.732 66.1868H104.005V70.914H108.732V66.1868Z" fill="black"/>
<path d="M122.914 66.1868H118.187V70.914H122.914V66.1868Z" fill="black"/>
<path d="M127.641 66.1868H122.914V70.914H127.641V66.1868Z" fill="black"/>
<path d="M137.096 66.1868H132.369V70.914H137.096V66.1868Z" fill="black"/>
<path d="M141.823 66.1868H137.096V70.914H141.823V66.1868Z" fill="black"/>
<path d="M14.1867 70.9141H9.45947V75.6413H14.1867V70.9141Z" fill="black"/>
<path d="M28.3684 70.9141H23.6411V75.6413H28.3684V70.9141Z" fill="black"/>
<path d="M33.0959 70.9141H28.3687V75.6413H33.0959V70.9141Z" fill="black"/>
<path d="M37.823 70.9141H33.0957V75.6413H37.823V70.9141Z" fill="black"/>
<path d="M47.2776 70.9141H42.5503V75.6413H47.2776V70.9141Z" fill="black"/>
<path d="M61.4592 70.9141H56.7319V75.6413H61.4592V70.9141Z" fill="black"/>
<path d="M66.1867 70.9141H61.4595V75.6413H66.1867V70.9141Z" fill="black"/>
<path d="M75.6413 70.9141H70.9141V75.6413H75.6413V70.9141Z" fill="black"/>
<path d="M80.3684 70.9141H75.6411V75.6413H80.3684V70.9141Z" fill="black"/>
<path d="M85.0959 70.9141H80.3687V75.6413H85.0959V70.9141Z" fill="black"/>
<path d="M94.5505 70.9141H89.8232V75.6413H94.5505V70.9141Z" fill="black"/>
<path d="M122.914 70.9141H118.187V75.6413H122.914V70.9141Z" fill="black"/>
<path d="M127.641 70.9141H122.914V75.6413H127.641V70.9141Z" fill="black"/>
<path d="M132.368 70.9141H127.641V75.6413H132.368V70.9141Z" fill="black"/>
<path d="M141.823 70.9141H137.096V75.6413H141.823V70.9141Z" fill="black"/>
<path d="M156.005 70.9141H151.278V75.6413H156.005V70.9141Z" fill="black"/>
<path d="M14.1867 75.6414H9.45947V80.3686H14.1867V75.6414Z" fill="black"/>
<path d="M18.9138 75.6414H14.1865V80.3686H18.9138V75.6414Z" fill="black"/>
<path d="M28.3684 75.6414H23.6411V80.3686H28.3684V75.6414Z" fill="black"/>
<path d="M33.0959 75.6414H28.3687V80.3686H33.0959V75.6414Z" fill="black"/>
<path d="M37.823 75.6414H33.0957V80.3686H37.823V75.6414Z" fill="black"/>
<path d="M42.5505 75.6414H37.8232V80.3686H42.5505V75.6414Z" fill="black"/>
<path d="M47.2776 75.6414H42.5503V80.3686H47.2776V75.6414Z" fill="black"/>
<path d="M52.0051 75.6414H47.2778V80.3686H52.0051V75.6414Z" fill="black"/>
<path d="M61.4592 75.6414H56.7319V80.3686H61.4592V75.6414Z" fill="black"/>
<path d="M66.1867 75.6414H61.4595V80.3686H66.1867V75.6414Z" fill="black"/>
<path d="M75.6413 75.6414H70.9141V80.3686H75.6413V75.6414Z" fill="black"/>
<path d="M85.0959 75.6414H80.3687V80.3686H85.0959V75.6414Z" fill="black"/>
<path d="M89.823 75.6414H85.0957V80.3686H89.823V75.6414Z" fill="black"/>
<path d="M94.5505 75.6414H89.8232V80.3686H94.5505V75.6414Z" fill="black"/>
<path d="M104.005 75.6414H99.2778V80.3686H104.005V75.6414Z" fill="black"/>
<path d="M108.732 75.6414H104.005V80.3686H108.732V75.6414Z" fill="black"/>
<path d="M113.46 75.6414H108.732V80.3686H113.46V75.6414Z" fill="black"/>
<path d="M118.187 75.6414H113.459V80.3686H118.187V75.6414Z" fill="black"/>
<path d="M137.096 75.6414H132.369V80.3686H137.096V75.6414Z" fill="black"/>
<path d="M156.005 75.6414H151.278V80.3686H156.005V75.6414Z" fill="black"/>
<path d="M14.1867 80.3687H9.45947V85.0959H14.1867V80.3687Z" fill="black"/>
<path d="M23.6413 80.3687H18.9141V85.0959H23.6413V80.3687Z" fill="black"/>
<path d="M28.3684 80.3687H23.6411V85.0959H28.3684V80.3687Z" fill="black"/>
<path d="M33.0959 80.3687H28.3687V85.0959H33.0959V80.3687Z" fill="black"/>
<path d="M56.7322 80.3687H52.0049V85.0959H56.7322V80.3687Z" fill="black"/>
<path d="M70.9138 80.3687H66.1865V85.0959H70.9138V80.3687Z" fill="black"/>
<path d="M80.3684 80.3687H75.6411V85.0959H80.3684V80.3687Z" fill="black"/>
<path d="M89.823 80.3687H85.0957V85.0959H89.823V80.3687Z" fill="black"/>
<path d="M108.732 80.3687H104.005V85.0959H108.732V80.3687Z" fill="black"/>
<path d="M118.187 80.3687H113.459V85.0959H118.187V80.3687Z" fill="black"/>
<path d="M132.368 80.3687H127.641V85.0959H132.368V80.3687Z" fill="black"/>
<path d="M141.823 80.3687H137.096V85.0959H141.823V80.3687Z" fill="black"/>
<path d="M151.278 80.3687H146.55V85.0959H151.278V80.3687Z" fill="black"/>
<path d="M156.005 80.3687H151.278V85.0959H156.005V80.3687Z" fill="black"/>
<path d="M165.459 80.3687H160.732V85.0959H165.459V80.3687Z" fill="black"/>
<path d="M14.1867 85.0957H9.45947V89.823H14.1867V85.0957Z" fill="black"/>
<path d="M23.6413 85.0957H18.9141V89.823H23.6413V85.0957Z" fill="black"/>
<path d="M42.5505 85.0957H37.8232V89.823H42.5505V85.0957Z" fill="black"/>
<path d="M61.4592 85.0957H56.7319V89.823H61.4592V85.0957Z" fill="black"/>
<path d="M70.9138 85.0957H66.1865V89.823H70.9138V85.0957Z" fill="black"/>
<path d="M75.6413 85.0957H70.9141V89.823H75.6413V85.0957Z" fill="black"/>
<path d="M85.0959 85.0957H80.3687V89.823H85.0959V85.0957Z" fill="black"/>
<path d="M89.823 85.0957H85.0957V89.823H89.823V85.0957Z" fill="black"/>
<path d="M104.005 85.0957H99.2778V89.823H104.005V85.0957Z" fill="black"/>
<path d="M108.732 85.0957H104.005V89.823H108.732V85.0957Z" fill="black"/>
<path d="M118.187 85.0957H113.459V89.823H118.187V85.0957Z" fill="black"/>
<path d="M122.914 85.0957H118.187V89.823H122.914V85.0957Z" fill="black"/>
<path d="M132.368 85.0957H127.641V89.823H132.368V85.0957Z" fill="black"/>
<path d="M137.096 85.0957H132.369V89.823H137.096V85.0957Z" fill="black"/>
<path d="M141.823 85.0957H137.096V89.823H141.823V85.0957Z" fill="black"/>
<path d="M146.551 85.0957H141.823V89.823H146.551V85.0957Z" fill="black"/>
<path d="M151.278 85.0957H146.55V89.823H151.278V85.0957Z" fill="black"/>
<path d="M18.9138 89.823H14.1865V94.5503H18.9138V89.823Z" fill="black"/>
<path d="M23.6413 89.823H18.9141V94.5503H23.6413V89.823Z" fill="black"/>
<path d="M28.3684 89.823H23.6411V94.5503H28.3684V89.823Z" fill="black"/>
<path d="M33.0959 89.823H28.3687V94.5503H33.0959V89.823Z" fill="black"/>
<path d="M37.823 89.823H33.0957V94.5503H37.823V89.823Z" fill="black"/>
<path d="M47.2776 89.823H42.5503V94.5503H47.2776V89.823Z" fill="black"/>
<path d="M66.1867 89.823H61.4595V94.5503H66.1867V89.823Z" fill="black"/>
<path d="M75.6413 89.823H70.9141V94.5503H75.6413V89.823Z" fill="black"/>
<path d="M85.0959 89.823H80.3687V94.5503H85.0959V89.823Z" fill="black"/>
<path d="M104.005 89.823H99.2778V94.5503H104.005V89.823Z" fill="black"/>
<path d="M108.732 89.823H104.005V94.5503H108.732V89.823Z" fill="black"/>
<path d="M113.46 89.823H108.732V94.5503H113.46V89.823Z" fill="black"/>
<path d="M137.096 89.823H132.369V94.5503H137.096V89.823Z" fill="black"/>
<path d="M146.551 89.823H141.823V94.5503H146.551V89.823Z" fill="black"/>
<path d="M156.005 89.823H151.278V94.5503H156.005V89.823Z" fill="black"/>
<path d="M165.459 89.823H160.732V94.5503H165.459V89.823Z" fill="black"/>
<path d="M18.9138 94.5503H14.1865V99.2776H18.9138V94.5503Z" fill="black"/>
<path d="M33.0959 94.5503H28.3687V99.2776H33.0959V94.5503Z" fill="black"/>
<path d="M37.823 94.5503H33.0957V99.2776H37.823V94.5503Z" fill="black"/>
<path d="M42.5505 94.5503H37.8232V99.2776H42.5505V94.5503Z" fill="black"/>
<path d="M52.0051 94.5503H47.2778V99.2776H52.0051V94.5503Z" fill="black"/>
<path d="M56.7322 94.5503H52.0049V99.2776H56.7322V94.5503Z" fill="black"/>
<path d="M66.1867 94.5503H61.4595V99.2776H66.1867V94.5503Z" fill="black"/>
<path d="M75.6413 94.5503H70.9141V99.2776H75.6413V94.5503Z" fill="black"/>
<path d="M85.0959 94.5503H80.3687V99.2776H85.0959V94.5503Z" fill="black"/>
<path d="M94.5505 94.5503H89.8232V99.2776H94.5505V94.5503Z" fill="black"/>
<path d="M99.2776 94.5503H94.5503V99.2776H99.2776V94.5503Z" fill="black"/>
<path d="M104.005 94.5503H99.2778V99.2776H104.005V94.5503Z" fill="black"/>
<path d="M108.732 94.5503H104.005V99.2776H108.732V94.5503Z" fill="black"/>
<path d="M113.46 94.5503H108.732V99.2776H113.46V94.5503Z" fill="black"/>
<path d="M122.914 94.5503H118.187V99.2776H122.914V94.5503Z" fill="black"/>
<path d="M127.641 94.5503H122.914V99.2776H127.641V94.5503Z" fill="black"/>
<path d="M132.368 94.5503H127.641V99.2776H132.368V94.5503Z" fill="black"/>
<path d="M141.823 94.5503H137.096V99.2776H141.823V94.5503Z" fill="black"/>
<path d="M151.278 94.5503H146.55V99.2776H151.278V94.5503Z" fill="black"/>
<path d="M156.005 94.5503H151.278V99.2776H156.005V94.5503Z" fill="black"/>
<path d="M165.459 94.5503H160.732V99.2776H165.459V94.5503Z" fill="black"/>
<path d="M14.1867 99.2776H9.45947V104.005H14.1867V99.2776Z" fill="black"/>
<path d="M18.9138 99.2776H14.1865V104.005H18.9138V99.2776Z" fill="black"/>
<path d="M28.3684 99.2776H23.6411V104.005H28.3684V99.2776Z" fill="black"/>
<path d="M33.0959 99.2776H28.3687V104.005H33.0959V99.2776Z" fill="black"/>
<path d="M37.823 99.2776H33.0957V104.005H37.823V99.2776Z" fill="black"/>
<path d="M47.2776 99.2776H42.5503V104.005H47.2776V99.2776Z" fill="black"/>
<path d="M52.0051 99.2776H47.2778V104.005H52.0051V99.2776Z" fill="black"/>
<path d="M66.1867 99.2776H61.4595V104.005H66.1867V99.2776Z" fill="black"/>
<path d="M70.9138 99.2776H66.1865V104.005H70.9138V99.2776Z" fill="black"/>
<path d="M80.3684 99.2776H75.6411V104.005H80.3684V99.2776Z" fill="black"/>
<path d="M118.187 99.2776H113.459V104.005H118.187V99.2776Z" fill="black"/>
<path d="M127.641 99.2776H122.914V104.005H127.641V99.2776Z" fill="black"/>
<path d="M146.551 99.2776H141.823V104.005H146.551V99.2776Z" fill="black"/>
<path d="M151.278 99.2776H146.55V104.005H151.278V99.2776Z" fill="black"/>
<path d="M156.005 99.2776H151.278V104.005H156.005V99.2776Z" fill="black"/>
<path d="M165.459 99.2776H160.732V104.005H165.459V99.2776Z" fill="black"/>
<path d="M14.1867 104.005H9.45947V108.732H14.1867V104.005Z" fill="black"/>
<path d="M23.6413 104.005H18.9141V108.732H23.6413V104.005Z" fill="black"/>
<path d="M42.5505 104.005H37.8232V108.732H42.5505V104.005Z" fill="black"/>
<path d="M47.2776 104.005H42.5503V108.732H47.2776V104.005Z" fill="black"/>
<path d="M52.0051 104.005H47.2778V108.732H52.0051V104.005Z" fill="black"/>
<path d="M61.4592 104.005H56.7319V108.732H61.4592V104.005Z" fill="black"/>
<path d="M80.3684 104.005H75.6411V108.732H80.3684V104.005Z" fill="black"/>
<path d="M85.0959 104.005H80.3687V108.732H85.0959V104.005Z" fill="black"/>
<path d="M94.5505 104.005H89.8232V108.732H94.5505V104.005Z" fill="black"/>
<path d="M99.2776 104.005H94.5503V108.732H99.2776V104.005Z" fill="black"/>
<path d="M127.641 104.005H122.914V108.732H127.641V104.005Z" fill="black"/>
<path d="M132.368 104.005H127.641V108.732H132.368V104.005Z" fill="black"/>
<path d="M141.823 104.005H137.096V108.732H141.823V104.005Z" fill="black"/>
<path d="M151.278 104.005H146.55V108.732H151.278V104.005Z" fill="black"/>
<path d="M160.732 104.005H156.005V108.732H160.732V104.005Z" fill="black"/>
<path d="M165.459 104.005H160.732V108.732H165.459V104.005Z" fill="black"/>
<path d="M14.1867 108.732H9.45947V113.459H14.1867V108.732Z" fill="black"/>
<path d="M18.9138 108.732H14.1865V113.459H18.9138V108.732Z" fill="black"/>
<path d="M23.6413 108.732H18.9141V113.459H23.6413V108.732Z" fill="black"/>
<path d="M28.3684 108.732H23.6411V113.459H28.3684V108.732Z" fill="black"/>
<path d="M33.0959 108.732H28.3687V113.459H33.0959V108.732Z" fill="black"/>
<path d="M66.1867 108.732H61.4595V113.459H66.1867V108.732Z" fill="black"/>
<path d="M75.6413 108.732H70.9141V113.459H75.6413V108.732Z" fill="black"/>
<path d="M85.0959 108.732H80.3687V113.459H85.0959V108.732Z" fill="black"/>
<path d="M89.823 108.732H85.0957V113.459H89.823V108.732Z" fill="black"/>
<path d="M104.005 108.732H99.2778V113.459H104.005V108.732Z" fill="black"/>
<path d="M118.187 108.732H113.459V113.459H118.187V108.732Z" fill="black"/>
<path d="M122.914 108.732H118.187V113.459H122.914V108.732Z" fill="black"/>
<path d="M141.823 108.732H137.096V113.459H141.823V108.732Z" fill="black"/>
<path d="M146.551 108.732H141.823V113.459H146.551V108.732Z" fill="black"/>
<path d="M151.278 108.732H146.55V113.459H151.278V108.732Z" fill="black"/>
<path d="M14.1867 113.459H9.45947V118.187H14.1867V113.459Z" fill="black"/>
<path d="M28.3684 113.459H23.6411V118.187H28.3684V113.459Z" fill="black"/>
<path d="M37.823 113.459H33.0957V118.187H37.823V113.459Z" fill="black"/>
<path d="M42.5505 113.459H37.8232V118.187H42.5505V113.459Z" fill="black"/>
<path d="M47.2776 113.459H42.5503V118.187H47.2776V113.459Z" fill="black"/>
<path d="M70.9138 113.459H66.1865V118.187H70.9138V113.459Z" fill="black"/>
<path d="M75.6413 113.459H70.9141V118.187H75.6413V113.459Z" fill="black"/>
<path d="M85.0959 113.459H80.3687V118.187H85.0959V113.459Z" fill="black"/>
<path d="M89.823 113.459H85.0957V118.187H89.823V113.459Z" fill="black"/>
<path d="M94.5505 113.459H89.8232V118.187H94.5505V113.459Z" fill="black"/>
<path d="M113.46 113.459H108.732V118.187H113.46V113.459Z" fill="black"/>
<path d="M122.914 113.459H118.187V118.187H122.914V113.459Z" fill="black"/>
<path d="M137.096 113.459H132.369V118.187H137.096V113.459Z" fill="black"/>
<path d="M141.823 113.459H137.096V118.187H141.823V113.459Z" fill="black"/>
<path d="M146.551 113.459H141.823V118.187H146.551V113.459Z" fill="black"/>
<path d="M151.278 113.459H146.55V118.187H151.278V113.459Z" fill="black"/>
<path d="M156.005 113.459H151.278V118.187H156.005V113.459Z" fill="black"/>
<path d="M160.732 113.459H156.005V118.187H160.732V113.459Z" fill="black"/>
<path d="M165.459 113.459H160.732V118.187H165.459V113.459Z" fill="black"/>
<path d="M14.1867 118.187H9.45947V122.914H14.1867V118.187Z" fill="black"/>
<path d="M23.6413 118.187H18.9141V122.914H23.6413V118.187Z" fill="black"/>
<path d="M33.0959 118.187H28.3687V122.914H33.0959V118.187Z" fill="black"/>
<path d="M47.2776 118.187H42.5503V122.914H47.2776V118.187Z" fill="black"/>
<path d="M56.7322 118.187H52.0049V122.914H56.7322V118.187Z" fill="black"/>
<path d="M75.6413 118.187H70.9141V122.914H75.6413V118.187Z" fill="black"/>
<path d="M80.3684 118.187H75.6411V122.914H80.3684V118.187Z" fill="black"/>
<path d="M89.823 118.187H85.0957V122.914H89.823V118.187Z" fill="black"/>
<path d="M94.5505 118.187H89.8232V122.914H94.5505V118.187Z" fill="black"/>
<path d="M104.005 118.187H99.2778V122.914H104.005V118.187Z" fill="black"/>
<path d="M108.732 118.187H104.005V122.914H108.732V118.187Z" fill="black"/>
<path d="M118.187 118.187H113.459V122.914H118.187V118.187Z" fill="black"/>
<path d="M122.914 118.187H118.187V122.914H122.914V118.187Z" fill="black"/>
<path d="M132.368 118.187H127.641V122.914H132.368V118.187Z" fill="black"/>
<path d="M146.551 118.187H141.823V122.914H146.551V118.187Z" fill="black"/>
<path d="M156.005 118.187H151.278V122.914H156.005V118.187Z" fill="black"/>
<path d="M165.459 118.187H160.732V122.914H165.459V118.187Z" fill="black"/>
<path d="M14.1867 122.914H9.45947V127.641H14.1867V122.914Z" fill="black"/>
<path d="M18.9138 122.914H14.1865V127.641H18.9138V122.914Z" fill="black"/>
<path d="M23.6413 122.914H18.9141V127.641H23.6413V122.914Z" fill="black"/>
<path d="M33.0959 122.914H28.3687V127.641H33.0959V122.914Z" fill="black"/>
<path d="M37.823 122.914H33.0957V127.641H37.823V122.914Z" fill="black"/>
<path d="M42.5505 122.914H37.8232V127.641H42.5505V122.914Z" fill="black"/>
<path d="M56.7322 122.914H52.0049V127.641H56.7322V122.914Z" fill="black"/>
<path d="M61.4592 122.914H56.7319V127.641H61.4592V122.914Z" fill="black"/>
<path d="M66.1867 122.914H61.4595V127.641H66.1867V122.914Z" fill="black"/>
<path d="M75.6413 122.914H70.9141V127.641H75.6413V122.914Z" fill="black"/>
<path d="M85.0959 122.914H80.3687V127.641H85.0959V122.914Z" fill="black"/>
<path d="M89.823 122.914H85.0957V127.641H89.823V122.914Z" fill="black"/>
<path d="M108.732 122.914H104.005V127.641H108.732V122.914Z" fill="black"/>
<path d="M127.641 122.914H122.914V127.641H127.641V122.914Z" fill="black"/>
<path d="M132.368 122.914H127.641V127.641H132.368V122.914Z" fill="black"/>
<path d="M137.096 122.914H132.369V127.641H137.096V122.914Z" fill="black"/>
<path d="M141.823 122.914H137.096V127.641H141.823V122.914Z" fill="black"/>
<path d="M146.551 122.914H141.823V127.641H146.551V122.914Z" fill="black"/>
<path d="M52.0051 127.641H47.2778V132.369H52.0051V127.641Z" fill="black"/>
<path d="M56.7322 127.641H52.0049V132.369H56.7322V127.641Z" fill="black"/>
<path d="M61.4592 127.641H56.7319V132.369H61.4592V127.641Z" fill="black"/>
<path d="M66.1867 127.641H61.4595V132.369H66.1867V127.641Z" fill="black"/>
<path d="M70.9138 127.641H66.1865V132.369H70.9138V127.641Z" fill="black"/>
<path d="M80.3684 127.641H75.6411V132.369H80.3684V127.641Z" fill="black"/>
<path d="M85.0959 127.641H80.3687V132.369H85.0959V127.641Z" fill="black"/>
<path d="M89.823 127.641H85.0957V132.369H89.823V127.641Z" fill="black"/>
<path d="M94.5505 127.641H89.8232V132.369H94.5505V127.641Z" fill="black"/>
<path d="M108.732 127.641H104.005V132.369H108.732V127.641Z" fill="black"/>
<path d="M113.46 127.641H108.732V132.369H113.46V127.641Z" fill="black"/>
<path d="M122.914 127.641H118.187V132.369H122.914V127.641Z" fill="black"/>
<path d="M127.641 127.641H122.914V132.369H127.641V127.641Z" fill="black"/>
<path d="M146.551 127.641H141.823V132.369H146.551V127.641Z" fill="black"/>
<path d="M156.005 127.641H151.278V132.369H156.005V127.641Z" fill="black"/>
<path d="M160.732 127.641H156.005V132.369H160.732V127.641Z" fill="black"/>
<path d="M52.0051 132.369H47.2778V137.096H52.0051V132.369Z" fill="black"/>
<path d="M56.7322 132.369H52.0049V137.096H56.7322V132.369Z" fill="black"/>
<path d="M80.3684 132.369H75.6411V137.096H80.3684V132.369Z" fill="black"/>
<path d="M85.0959 132.369H80.3687V137.096H85.0959V132.369Z" fill="black"/>
<path d="M99.2776 132.369H94.5503V137.096H99.2776V132.369Z" fill="black"/>
<path d="M104.005 132.369H99.2778V137.096H104.005V132.369Z" fill="black"/>
<path d="M108.732 132.369H104.005V137.096H108.732V132.369Z" fill="black"/>
<path d="M113.46 132.369H108.732V137.096H113.46V132.369Z" fill="black"/>
<path d="M118.187 132.369H113.459V137.096H118.187V132.369Z" fill="black"/>
<path d="M122.914 132.369H118.187V137.096H122.914V132.369Z" fill="black"/>
<path d="M127.641 132.369H122.914V137.096H127.641V132.369Z" fill="black"/>
<path d="M137.096 132.369H132.369V137.096H137.096V132.369Z" fill="black"/>
<path d="M146.551 132.369H141.823V137.096H146.551V132.369Z" fill="black"/>
<path d="M156.005 132.369H151.278V137.096H156.005V132.369Z" fill="black"/>
<path d="M52.0051 137.096H47.2778V141.823H52.0051V137.096Z" fill="black"/>
<path d="M66.1867 137.096H61.4595V141.823H66.1867V137.096Z" fill="black"/>
<path d="M85.0959 137.096H80.3687V141.823H85.0959V137.096Z" fill="black"/>
<path d="M99.2776 137.096H94.5503V141.823H99.2776V137.096Z" fill="black"/>
<path d="M122.914 137.096H118.187V141.823H122.914V137.096Z" fill="black"/>
<path d="M127.641 137.096H122.914V141.823H127.641V137.096Z" fill="black"/>
<path d="M146.551 137.096H141.823V141.823H146.551V137.096Z" fill="black"/>
<path d="M151.278 137.096H146.55V141.823H151.278V137.096Z" fill="black"/>
<path d="M156.005 137.096H151.278V141.823H156.005V137.096Z" fill="black"/>
<path d="M160.732 137.096H156.005V141.823H160.732V137.096Z" fill="black"/>
<path d="M52.0051 141.823H47.2778V146.55H52.0051V141.823Z" fill="black"/>
<path d="M56.7322 141.823H52.0049V146.55H56.7322V141.823Z" fill="black"/>
<path d="M70.9138 141.823H66.1865V146.55H70.9138V141.823Z" fill="black"/>
<path d="M75.6413 141.823H70.9141V146.55H75.6413V141.823Z" fill="black"/>
<path d="M80.3684 141.823H75.6411V146.55H80.3684V141.823Z" fill="black"/>
<path d="M89.823 141.823H85.0957V146.55H89.823V141.823Z" fill="black"/>
<path d="M99.2776 141.823H94.5503V146.55H99.2776V141.823Z" fill="black"/>
<path d="M108.732 141.823H104.005V146.55H108.732V141.823Z" fill="black"/>
<path d="M118.187 141.823H113.459V146.55H118.187V141.823Z" fill="black"/>
<path d="M122.914 141.823H118.187V146.55H122.914V141.823Z" fill="black"/>
<path d="M127.641 141.823H122.914V146.55H127.641V141.823Z" fill="black"/>
<path d="M132.368 141.823H127.641V146.55H132.368V141.823Z" fill="black"/>
<path d="M137.096 141.823H132.369V146.55H137.096V141.823Z" fill="black"/>
<path d="M141.823 141.823H137.096V146.55H141.823V141.823Z" fill="black"/>
<path d="M146.551 141.823H141.823V146.55H146.551V141.823Z" fill="black"/>
<path d="M165.459 141.823H160.732V146.55H165.459V141.823Z" fill="black"/>
<path d="M52.0051 146.55H47.2778V151.278H52.0051V146.55Z" fill="black"/>
<path d="M66.1867 146.55H61.4595V151.278H66.1867V146.55Z" fill="black"/>
<path d="M70.9138 146.55H66.1865V151.278H70.9138V146.55Z" fill="black"/>
<path d="M75.6413 146.55H70.9141V151.278H75.6413V146.55Z" fill="black"/>
<path d="M80.3684 146.55H75.6411V151.278H80.3684V146.55Z" fill="black"/>
<path d="M85.0959 146.55H80.3687V151.278H85.0959V146.55Z" fill="black"/>
<path d="M89.823 146.55H85.0957V151.278H89.823V146.55Z" fill="black"/>
<path d="M94.5505 146.55H89.8232V151.278H94.5505V146.55Z" fill="black"/>
<path d="M104.005 146.55H99.2778V151.278H104.005V146.55Z" fill="black"/>
<path d="M113.46 146.55H108.732V151.278H113.46V146.55Z" fill="black"/>
<path d="M118.187 146.55H113.459V151.278H118.187V146.55Z" fill="black"/>
<path d="M122.914 146.55H118.187V151.278H122.914V146.55Z" fill="black"/>
<path d="M127.641 146.55H122.914V151.278H127.641V146.55Z" fill="black"/>
<path d="M132.368 146.55H127.641V151.278H132.368V146.55Z" fill="black"/>
<path d="M141.823 146.55H137.096V151.278H141.823V146.55Z" fill="black"/>
<path d="M151.278 146.55H146.55V151.278H151.278V146.55Z" fill="black"/>
<path d="M160.732 146.55H156.005V151.278H160.732V146.55Z" fill="black"/>
<path d="M165.459 146.55H160.732V151.278H165.459V146.55Z" fill="black"/>
<path d="M61.4592 151.278H56.7319V156.005H61.4592V151.278Z" fill="black"/>
<path d="M70.9138 151.278H66.1865V156.005H70.9138V151.278Z" fill="black"/>
<path d="M80.3684 151.278H75.6411V156.005H80.3684V151.278Z" fill="black"/>
<path d="M85.0959 151.278H80.3687V156.005H85.0959V151.278Z" fill="black"/>
<path d="M99.2776 151.278H94.5503V156.005H99.2776V151.278Z" fill="black"/>
<path d="M104.005 151.278H99.2778V156.005H104.005V151.278Z" fill="black"/>
<path d="M108.732 151.278H104.005V156.005H108.732V151.278Z" fill="black"/>
<path d="M113.46 151.278H108.732V156.005H113.46V151.278Z" fill="black"/>
<path d="M122.914 151.278H118.187V156.005H122.914V151.278Z" fill="black"/>
<path d="M127.641 151.278H122.914V156.005H127.641V151.278Z" fill="black"/>
<path d="M141.823 151.278H137.096V156.005H141.823V151.278Z" fill="black"/>
<path d="M146.551 151.278H141.823V156.005H146.551V151.278Z" fill="black"/>
<path d="M156.005 151.278H151.278V156.005H156.005V151.278Z" fill="black"/>
<path d="M160.732 151.278H156.005V156.005H160.732V151.278Z" fill="black"/>
<path d="M165.459 151.278H160.732V156.005H165.459V151.278Z" fill="black"/>
<path d="M56.7322 156.005H52.0049V160.732H56.7322V156.005Z" fill="black"/>
<path d="M61.4592 156.005H56.7319V160.732H61.4592V156.005Z" fill="black"/>
<path d="M66.1867 156.005H61.4595V160.732H66.1867V156.005Z" fill="black"/>
<path d="M141.823 156.005H137.096V160.732H141.823V156.005Z" fill="black"/>
<path d="M146.551 156.005H141.823V160.732H146.551V156.005Z" fill="black"/>
<path d="M151.278 156.005H146.55V160.732H151.278V156.005Z" fill="black"/>
<path d="M156.005 156.005H151.278V160.732H156.005V156.005Z" fill="black"/>
<path d="M160.732 156.005H156.005V160.732H160.732V156.005Z" fill="black"/>
<path d="M165.459 156.005H160.732V160.732H165.459V156.005Z" fill="black"/>
<path d="M52.0051 160.732H47.2778V165.459H52.0051V160.732Z" fill="black"/>
<path d="M61.4592 160.732H56.7319V165.459H61.4592V160.732Z" fill="black"/>
<path d="M66.1867 160.732H61.4595V165.459H66.1867V160.732Z" fill="black"/>
<path d="M89.823 160.732H85.0957V165.459H89.823V160.732Z" fill="black"/>
<path d="M94.5505 160.732H89.8232V165.459H94.5505V160.732Z" fill="black"/>
<path d="M99.2776 160.732H94.5503V165.459H99.2776V160.732Z" fill="black"/>
<path d="M122.914 160.732H118.187V165.459H122.914V160.732Z" fill="black"/>
<path d="M127.641 160.732H122.914V165.459H127.641V160.732Z" fill="black"/>
<path d="M141.823 160.732H137.096V165.459H141.823V160.732Z" fill="black"/>
<path d="M146.551 160.732H141.823V165.459H146.551V160.732Z" fill="black"/>
<path d="M37.5867 9.45947H14.4231H9.45947V14.4231V37.5867V42.5504H14.4231H37.5867H42.5504V37.5867V14.4231V9.45947H37.5867ZM37.5867 37.5867H14.4231V14.4231H37.5867V37.5867Z" fill="black"/>
<path d="M160.496 9.45947H137.332H132.369V14.4231V37.5867V42.5504H137.332H160.496H165.46V37.5867V14.4231V9.45947H160.496ZM160.496 37.5867H137.332V14.4231H160.496V37.5867Z" fill="black"/>
<path d="M37.5867 132.369H14.4231H9.45947V137.332V160.496V165.46H14.4231H37.5867H42.5504V160.496V137.332V132.369H37.5867ZM37.5867 160.496H14.4231V137.332H37.5867V160.496Z" fill="black"/>
<path d="M33.0959 18.9141H18.9141V33.0959H33.0959V18.9141Z" fill="black"/>
<path d="M156.005 18.9141H141.823V33.0959H156.005V18.9141Z" fill="black"/>
<path d="M33.0959 141.823H18.9141V156.005H33.0959V141.823Z" fill="black"/>
</g>
<defs>
<clipPath id="clip0_460_133">
<rect width="175" height="175" fill="white"/>
</clipPath>
</defs>
</svg>
