<svg width="300" height="300" viewBox="0 0 300 300" fill="none" xmlns="http://www.w3.org/2000/svg">
<g clip-path="url(#clip0_461_4428)">
<path d="M300 0H0V300H300V0Z" fill="white"/>
<path d="M88.9352 16H80.8313V24.1039H88.9352V16Z" fill="black"/>
<path d="M97.0391 16H88.9352V24.1039H97.0391V16Z" fill="black"/>
<path d="M105.143 16H97.0388V24.1039H105.143V16Z" fill="black"/>
<path d="M113.247 16H105.143V24.1039H113.247V16Z" fill="black"/>
<path d="M129.454 16H121.351V24.1039H129.454V16Z" fill="black"/>
<path d="M137.558 16H129.454V24.1039H137.558V16Z" fill="black"/>
<path d="M153.766 16H145.662V24.1039H153.766V16Z" fill="black"/>
<path d="M161.87 16H153.766V24.1039H161.87V16Z" fill="black"/>
<path d="M169.974 16H161.87V24.1039H169.974V16Z" fill="black"/>
<path d="M194.286 16H186.182V24.1039H194.286V16Z" fill="black"/>
<path d="M202.39 16H194.286V24.1039H202.39V16Z" fill="black"/>
<path d="M88.9352 24.1039H80.8313V32.2078H88.9352V24.1039Z" fill="black"/>
<path d="M121.351 24.1039H113.247V32.2078H121.351V24.1039Z" fill="black"/>
<path d="M129.454 24.1039H121.351V32.2078H129.454V24.1039Z" fill="black"/>
<path d="M169.974 24.1039H161.87V32.2078H169.974V24.1039Z" fill="black"/>
<path d="M178.078 24.1039H169.974V32.2078H178.078V24.1039Z" fill="black"/>
<path d="M218.597 24.1039H210.494V32.2078H218.597V24.1039Z" fill="black"/>
<path d="M88.9352 32.2078H80.8313V40.3117H88.9352V32.2078Z" fill="black"/>
<path d="M97.0391 32.2078H88.9352V40.3117H97.0391V32.2078Z" fill="black"/>
<path d="M105.143 32.2078H97.0388V40.3117H105.143V32.2078Z" fill="black"/>
<path d="M121.351 32.2078H113.247V40.3117H121.351V32.2078Z" fill="black"/>
<path d="M129.454 32.2078H121.351V40.3117H129.454V32.2078Z" fill="black"/>
<path d="M145.662 32.2078H137.558V40.3117H145.662V32.2078Z" fill="black"/>
<path d="M153.766 32.2078H145.662V40.3117H153.766V32.2078Z" fill="black"/>
<path d="M186.182 32.2078H178.078V40.3117H186.182V32.2078Z" fill="black"/>
<path d="M194.286 32.2078H186.182V40.3117H194.286V32.2078Z" fill="black"/>
<path d="M210.494 32.2078H202.39V40.3117H210.494V32.2078Z" fill="black"/>
<path d="M105.143 40.3118H97.0388V48.4157H105.143V40.3118Z" fill="black"/>
<path d="M121.351 40.3118H113.247V48.4157H121.351V40.3118Z" fill="black"/>
<path d="M129.454 40.3118H121.351V48.4157H129.454V40.3118Z" fill="black"/>
<path d="M137.558 40.3118H129.454V48.4157H137.558V40.3118Z" fill="black"/>
<path d="M161.87 40.3118H153.766V48.4157H161.87V40.3118Z" fill="black"/>
<path d="M169.974 40.3118H161.87V48.4157H169.974V40.3118Z" fill="black"/>
<path d="M178.078 40.3118H169.974V48.4157H178.078V40.3118Z" fill="black"/>
<path d="M194.286 40.3118H186.182V48.4157H194.286V40.3118Z" fill="black"/>
<path d="M210.494 40.3118H202.39V48.4157H210.494V40.3118Z" fill="black"/>
<path d="M218.597 40.3118H210.494V48.4157H218.597V40.3118Z" fill="black"/>
<path d="M88.9352 48.4156H80.8313V56.5195H88.9352V48.4156Z" fill="black"/>
<path d="M129.454 48.4156H121.351V56.5195H129.454V48.4156Z" fill="black"/>
<path d="M178.078 48.4156H169.974V56.5195H178.078V48.4156Z" fill="black"/>
<path d="M186.182 48.4156H178.078V56.5195H186.182V48.4156Z" fill="black"/>
<path d="M194.286 48.4156H186.182V56.5195H194.286V48.4156Z" fill="black"/>
<path d="M105.143 56.5195H97.0388V64.6234H105.143V56.5195Z" fill="black"/>
<path d="M113.247 56.5195H105.143V64.6234H113.247V56.5195Z" fill="black"/>
<path d="M129.454 56.5195H121.351V64.6234H129.454V56.5195Z" fill="black"/>
<path d="M137.558 56.5195H129.454V64.6234H137.558V56.5195Z" fill="black"/>
<path d="M161.87 56.5195H153.766V64.6234H161.87V56.5195Z" fill="black"/>
<path d="M202.39 56.5195H194.286V64.6234H202.39V56.5195Z" fill="black"/>
<path d="M210.494 56.5195H202.39V64.6234H210.494V56.5195Z" fill="black"/>
<path d="M88.9352 64.6234H80.8313V72.7273H88.9352V64.6234Z" fill="black"/>
<path d="M105.143 64.6234H97.0388V72.7273H105.143V64.6234Z" fill="black"/>
<path d="M121.351 64.6234H113.247V72.7273H121.351V64.6234Z" fill="black"/>
<path d="M137.558 64.6234H129.454V72.7273H137.558V64.6234Z" fill="black"/>
<path d="M153.766 64.6234H145.662V72.7273H153.766V64.6234Z" fill="black"/>
<path d="M169.974 64.6234H161.87V72.7273H169.974V64.6234Z" fill="black"/>
<path d="M186.182 64.6234H178.078V72.7273H186.182V64.6234Z" fill="black"/>
<path d="M202.39 64.6234H194.286V72.7273H202.39V64.6234Z" fill="black"/>
<path d="M218.597 64.6234H210.494V72.7273H218.597V64.6234Z" fill="black"/>
<path d="M105.143 72.7273H97.0388V80.8312H105.143V72.7273Z" fill="black"/>
<path d="M113.247 72.7273H105.143V80.8312H113.247V72.7273Z" fill="black"/>
<path d="M129.454 72.7273H121.351V80.8312H129.454V72.7273Z" fill="black"/>
<path d="M145.662 72.7273H137.558V80.8312H145.662V72.7273Z" fill="black"/>
<path d="M153.766 72.7273H145.662V80.8312H153.766V72.7273Z" fill="black"/>
<path d="M178.078 72.7273H169.974V80.8312H178.078V72.7273Z" fill="black"/>
<path d="M202.39 72.7273H194.286V80.8312H202.39V72.7273Z" fill="black"/>
<path d="M24.1039 80.8313H16V88.9352H24.1039V80.8313Z" fill="black"/>
<path d="M48.4157 80.8313H40.3118V88.9352H48.4157V80.8313Z" fill="black"/>
<path d="M56.5195 80.8313H48.4156V88.9352H56.5195V80.8313Z" fill="black"/>
<path d="M64.6234 80.8313H56.5195V88.9352H64.6234V80.8313Z" fill="black"/>
<path d="M72.7273 80.8313H64.6234V88.9352H72.7273V80.8313Z" fill="black"/>
<path d="M80.8312 80.8313H72.7273V88.9352H80.8312V80.8313Z" fill="black"/>
<path d="M88.9352 80.8313H80.8313V88.9352H88.9352V80.8313Z" fill="black"/>
<path d="M97.0391 80.8313H88.9352V88.9352H97.0391V80.8313Z" fill="black"/>
<path d="M105.143 80.8313H97.0388V88.9352H105.143V80.8313Z" fill="black"/>
<path d="M137.558 80.8313H129.454V88.9352H137.558V80.8313Z" fill="black"/>
<path d="M145.662 80.8313H137.558V88.9352H145.662V80.8313Z" fill="black"/>
<path d="M161.87 80.8313H153.766V88.9352H161.87V80.8313Z" fill="black"/>
<path d="M169.974 80.8313H161.87V88.9352H169.974V80.8313Z" fill="black"/>
<path d="M178.078 80.8313H169.974V88.9352H178.078V80.8313Z" fill="black"/>
<path d="M210.494 80.8313H202.39V88.9352H210.494V80.8313Z" fill="black"/>
<path d="M218.597 80.8313H210.494V88.9352H218.597V80.8313Z" fill="black"/>
<path d="M226.701 80.8313H218.597V88.9352H226.701V80.8313Z" fill="black"/>
<path d="M251.013 80.8313H242.909V88.9352H251.013V80.8313Z" fill="black"/>
<path d="M267.221 80.8313H259.117V88.9352H267.221V80.8313Z" fill="black"/>
<path d="M275.325 80.8313H267.221V88.9352H275.325V80.8313Z" fill="black"/>
<path d="M283.428 80.8313H275.325V88.9352H283.428V80.8313Z" fill="black"/>
<path d="M32.2078 88.9352H24.1039V97.0391H32.2078V88.9352Z" fill="black"/>
<path d="M64.6234 88.9352H56.5195V97.0391H64.6234V88.9352Z" fill="black"/>
<path d="M80.8312 88.9352H72.7273V97.0391H80.8312V88.9352Z" fill="black"/>
<path d="M88.9352 88.9352H80.8313V97.0391H88.9352V88.9352Z" fill="black"/>
<path d="M97.0391 88.9352H88.9352V97.0391H97.0391V88.9352Z" fill="black"/>
<path d="M105.143 88.9352H97.0388V97.0391H105.143V88.9352Z" fill="black"/>
<path d="M113.247 88.9352H105.143V97.0391H113.247V88.9352Z" fill="black"/>
<path d="M121.351 88.9352H113.247V97.0391H121.351V88.9352Z" fill="black"/>
<path d="M145.662 88.9352H137.558V97.0391H145.662V88.9352Z" fill="black"/>
<path d="M169.974 88.9352H161.87V97.0391H169.974V88.9352Z" fill="black"/>
<path d="M178.078 88.9352H169.974V97.0391H178.078V88.9352Z" fill="black"/>
<path d="M210.494 88.9352H202.39V97.0391H210.494V88.9352Z" fill="black"/>
<path d="M218.597 88.9352H210.494V97.0391H218.597V88.9352Z" fill="black"/>
<path d="M251.013 88.9352H242.909V97.0391H251.013V88.9352Z" fill="black"/>
<path d="M259.117 88.9352H251.013V97.0391H259.117V88.9352Z" fill="black"/>
<path d="M267.221 88.9352H259.117V97.0391H267.221V88.9352Z" fill="black"/>
<path d="M275.325 88.9352H267.221V97.0391H275.325V88.9352Z" fill="black"/>
<path d="M24.1039 97.0388H16V105.143H24.1039V97.0388Z" fill="black"/>
<path d="M32.2078 97.0388H24.1039V105.143H32.2078V97.0388Z" fill="black"/>
<path d="M40.3117 97.0388H32.2078V105.143H40.3117V97.0388Z" fill="black"/>
<path d="M56.5195 97.0388H48.4156V105.143H56.5195V97.0388Z" fill="black"/>
<path d="M64.6234 97.0388H56.5195V105.143H64.6234V97.0388Z" fill="black"/>
<path d="M72.7273 97.0388H64.6234V105.143H72.7273V97.0388Z" fill="black"/>
<path d="M97.0391 97.0388H88.9352V105.143H97.0391V97.0388Z" fill="black"/>
<path d="M105.143 97.0388H97.0388V105.143H105.143V97.0388Z" fill="black"/>
<path d="M121.351 97.0388H113.247V105.143H121.351V97.0388Z" fill="black"/>
<path d="M145.662 97.0388H137.558V105.143H145.662V97.0388Z" fill="black"/>
<path d="M161.87 97.0388H153.766V105.143H161.87V97.0388Z" fill="black"/>
<path d="M194.286 97.0388H186.182V105.143H194.286V97.0388Z" fill="black"/>
<path d="M202.39 97.0388H194.286V105.143H202.39V97.0388Z" fill="black"/>
<path d="M210.494 97.0388H202.39V105.143H210.494V97.0388Z" fill="black"/>
<path d="M226.701 97.0388H218.597V105.143H226.701V97.0388Z" fill="black"/>
<path d="M251.013 97.0388H242.909V105.143H251.013V97.0388Z" fill="black"/>
<path d="M259.117 97.0388H251.013V105.143H259.117V97.0388Z" fill="black"/>
<path d="M267.221 97.0388H259.117V105.143H267.221V97.0388Z" fill="black"/>
<path d="M275.325 97.0388H267.221V105.143H275.325V97.0388Z" fill="black"/>
<path d="M283.428 97.0388H275.325V105.143H283.428V97.0388Z" fill="black"/>
<path d="M40.3117 105.143H32.2078V113.247H40.3117V105.143Z" fill="black"/>
<path d="M48.4157 105.143H40.3118V113.247H48.4157V105.143Z" fill="black"/>
<path d="M80.8312 105.143H72.7273V113.247H80.8312V105.143Z" fill="black"/>
<path d="M88.9352 105.143H80.8313V113.247H88.9352V105.143Z" fill="black"/>
<path d="M97.0391 105.143H88.9352V113.247H97.0391V105.143Z" fill="black"/>
<path d="M105.143 105.143H97.0388V113.247H105.143V105.143Z" fill="black"/>
<path d="M113.247 105.143H105.143V113.247H113.247V105.143Z" fill="black"/>
<path d="M121.351 105.143H113.247V113.247H121.351V105.143Z" fill="black"/>
<path d="M137.558 105.143H129.454V113.247H137.558V105.143Z" fill="black"/>
<path d="M153.766 105.143H145.662V113.247H153.766V105.143Z" fill="black"/>
<path d="M161.87 105.143H153.766V113.247H161.87V105.143Z" fill="black"/>
<path d="M169.974 105.143H161.87V113.247H169.974V105.143Z" fill="black"/>
<path d="M178.078 105.143H169.974V113.247H178.078V105.143Z" fill="black"/>
<path d="M202.39 105.143H194.286V113.247H202.39V105.143Z" fill="black"/>
<path d="M218.597 105.143H210.494V113.247H218.597V105.143Z" fill="black"/>
<path d="M226.701 105.143H218.597V113.247H226.701V105.143Z" fill="black"/>
<path d="M234.805 105.143H226.701V113.247H234.805V105.143Z" fill="black"/>
<path d="M242.909 105.143H234.805V113.247H242.909V105.143Z" fill="black"/>
<path d="M267.221 105.143H259.117V113.247H267.221V105.143Z" fill="black"/>
<path d="M275.325 105.143H267.221V113.247H275.325V105.143Z" fill="black"/>
<path d="M24.1039 113.247H16V121.351H24.1039V113.247Z" fill="black"/>
<path d="M48.4157 113.247H40.3118V121.351H48.4157V113.247Z" fill="black"/>
<path d="M72.7273 113.247H64.6234V121.351H72.7273V113.247Z" fill="black"/>
<path d="M80.8312 113.247H72.7273V121.351H80.8312V113.247Z" fill="black"/>
<path d="M97.0391 113.247H88.9352V121.351H97.0391V113.247Z" fill="black"/>
<path d="M113.247 113.247H105.143V121.351H113.247V113.247Z" fill="black"/>
<path d="M121.351 113.247H113.247V121.351H121.351V113.247Z" fill="black"/>
<path d="M129.454 113.247H121.351V121.351H129.454V113.247Z" fill="black"/>
<path d="M137.558 113.247H129.454V121.351H137.558V113.247Z" fill="black"/>
<path d="M145.662 113.247H137.558V121.351H145.662V113.247Z" fill="black"/>
<path d="M169.974 113.247H161.87V121.351H169.974V113.247Z" fill="black"/>
<path d="M178.078 113.247H169.974V121.351H178.078V113.247Z" fill="black"/>
<path d="M186.182 113.247H178.078V121.351H186.182V113.247Z" fill="black"/>
<path d="M210.494 113.247H202.39V121.351H210.494V113.247Z" fill="black"/>
<path d="M218.597 113.247H210.494V121.351H218.597V113.247Z" fill="black"/>
<path d="M234.805 113.247H226.701V121.351H234.805V113.247Z" fill="black"/>
<path d="M242.909 113.247H234.805V121.351H242.909V113.247Z" fill="black"/>
<path d="M24.1039 121.351H16V129.454H24.1039V121.351Z" fill="black"/>
<path d="M48.4157 121.351H40.3118V129.454H48.4157V121.351Z" fill="black"/>
<path d="M56.5195 121.351H48.4156V129.454H56.5195V121.351Z" fill="black"/>
<path d="M64.6234 121.351H56.5195V129.454H64.6234V121.351Z" fill="black"/>
<path d="M80.8312 121.351H72.7273V129.454H80.8312V121.351Z" fill="black"/>
<path d="M105.143 121.351H97.0388V129.454H105.143V121.351Z" fill="black"/>
<path d="M113.247 121.351H105.143V129.454H113.247V121.351Z" fill="black"/>
<path d="M129.454 121.351H121.351V129.454H129.454V121.351Z" fill="black"/>
<path d="M137.558 121.351H129.454V129.454H137.558V121.351Z" fill="black"/>
<path d="M145.662 121.351H137.558V129.454H145.662V121.351Z" fill="black"/>
<path d="M161.87 121.351H153.766V129.454H161.87V121.351Z" fill="black"/>
<path d="M210.494 121.351H202.39V129.454H210.494V121.351Z" fill="black"/>
<path d="M218.597 121.351H210.494V129.454H218.597V121.351Z" fill="black"/>
<path d="M226.701 121.351H218.597V129.454H226.701V121.351Z" fill="black"/>
<path d="M242.909 121.351H234.805V129.454H242.909V121.351Z" fill="black"/>
<path d="M267.221 121.351H259.117V129.454H267.221V121.351Z" fill="black"/>
<path d="M24.1039 129.454H16V137.558H24.1039V129.454Z" fill="black"/>
<path d="M32.2078 129.454H24.1039V137.558H32.2078V129.454Z" fill="black"/>
<path d="M48.4157 129.454H40.3118V137.558H48.4157V129.454Z" fill="black"/>
<path d="M56.5195 129.454H48.4156V137.558H56.5195V129.454Z" fill="black"/>
<path d="M64.6234 129.454H56.5195V137.558H64.6234V129.454Z" fill="black"/>
<path d="M72.7273 129.454H64.6234V137.558H72.7273V129.454Z" fill="black"/>
<path d="M80.8312 129.454H72.7273V137.558H80.8312V129.454Z" fill="black"/>
<path d="M88.9352 129.454H80.8313V137.558H88.9352V129.454Z" fill="black"/>
<path d="M105.143 129.454H97.0388V137.558H105.143V129.454Z" fill="black"/>
<path d="M113.247 129.454H105.143V137.558H113.247V129.454Z" fill="black"/>
<path d="M129.454 129.454H121.351V137.558H129.454V129.454Z" fill="black"/>
<path d="M145.662 129.454H137.558V137.558H145.662V129.454Z" fill="black"/>
<path d="M153.766 129.454H145.662V137.558H153.766V129.454Z" fill="black"/>
<path d="M161.87 129.454H153.766V137.558H161.87V129.454Z" fill="black"/>
<path d="M178.078 129.454H169.974V137.558H178.078V129.454Z" fill="black"/>
<path d="M186.182 129.454H178.078V137.558H186.182V129.454Z" fill="black"/>
<path d="M194.286 129.454H186.182V137.558H194.286V129.454Z" fill="black"/>
<path d="M202.39 129.454H194.286V137.558H202.39V129.454Z" fill="black"/>
<path d="M234.805 129.454H226.701V137.558H234.805V129.454Z" fill="black"/>
<path d="M267.221 129.454H259.117V137.558H267.221V129.454Z" fill="black"/>
<path d="M24.1039 137.558H16V145.662H24.1039V137.558Z" fill="black"/>
<path d="M40.3117 137.558H32.2078V145.662H40.3117V137.558Z" fill="black"/>
<path d="M48.4157 137.558H40.3118V145.662H48.4157V137.558Z" fill="black"/>
<path d="M56.5195 137.558H48.4156V145.662H56.5195V137.558Z" fill="black"/>
<path d="M97.0391 137.558H88.9352V145.662H97.0391V137.558Z" fill="black"/>
<path d="M121.351 137.558H113.247V145.662H121.351V137.558Z" fill="black"/>
<path d="M137.558 137.558H129.454V145.662H137.558V137.558Z" fill="black"/>
<path d="M153.766 137.558H145.662V145.662H153.766V137.558Z" fill="black"/>
<path d="M186.182 137.558H178.078V145.662H186.182V137.558Z" fill="black"/>
<path d="M202.39 137.558H194.286V145.662H202.39V137.558Z" fill="black"/>
<path d="M226.701 137.558H218.597V145.662H226.701V137.558Z" fill="black"/>
<path d="M242.909 137.558H234.805V145.662H242.909V137.558Z" fill="black"/>
<path d="M259.117 137.558H251.013V145.662H259.117V137.558Z" fill="black"/>
<path d="M267.221 137.558H259.117V145.662H267.221V137.558Z" fill="black"/>
<path d="M283.428 137.558H275.325V145.662H283.428V137.558Z" fill="black"/>
<path d="M24.1039 145.662H16V153.766H24.1039V145.662Z" fill="black"/>
<path d="M40.3117 145.662H32.2078V153.766H40.3117V145.662Z" fill="black"/>
<path d="M72.7273 145.662H64.6234V153.766H72.7273V145.662Z" fill="black"/>
<path d="M105.143 145.662H97.0388V153.766H105.143V145.662Z" fill="black"/>
<path d="M121.351 145.662H113.247V153.766H121.351V145.662Z" fill="black"/>
<path d="M129.454 145.662H121.351V153.766H129.454V145.662Z" fill="black"/>
<path d="M145.662 145.662H137.558V153.766H145.662V145.662Z" fill="black"/>
<path d="M153.766 145.662H145.662V153.766H153.766V145.662Z" fill="black"/>
<path d="M178.078 145.662H169.974V153.766H178.078V145.662Z" fill="black"/>
<path d="M186.182 145.662H178.078V153.766H186.182V145.662Z" fill="black"/>
<path d="M202.39 145.662H194.286V153.766H202.39V145.662Z" fill="black"/>
<path d="M210.494 145.662H202.39V153.766H210.494V145.662Z" fill="black"/>
<path d="M226.701 145.662H218.597V153.766H226.701V145.662Z" fill="black"/>
<path d="M234.805 145.662H226.701V153.766H234.805V145.662Z" fill="black"/>
<path d="M242.909 145.662H234.805V153.766H242.909V145.662Z" fill="black"/>
<path d="M251.013 145.662H242.909V153.766H251.013V145.662Z" fill="black"/>
<path d="M259.117 145.662H251.013V153.766H259.117V145.662Z" fill="black"/>
<path d="M32.2078 153.766H24.1039V161.87H32.2078V153.766Z" fill="black"/>
<path d="M40.3117 153.766H32.2078V161.87H40.3117V153.766Z" fill="black"/>
<path d="M48.4157 153.766H40.3118V161.87H48.4157V153.766Z" fill="black"/>
<path d="M56.5195 153.766H48.4156V161.87H56.5195V153.766Z" fill="black"/>
<path d="M64.6234 153.766H56.5195V161.87H64.6234V153.766Z" fill="black"/>
<path d="M80.8312 153.766H72.7273V161.87H80.8312V153.766Z" fill="black"/>
<path d="M113.247 153.766H105.143V161.87H113.247V153.766Z" fill="black"/>
<path d="M129.454 153.766H121.351V161.87H129.454V153.766Z" fill="black"/>
<path d="M145.662 153.766H137.558V161.87H145.662V153.766Z" fill="black"/>
<path d="M178.078 153.766H169.974V161.87H178.078V153.766Z" fill="black"/>
<path d="M186.182 153.766H178.078V161.87H186.182V153.766Z" fill="black"/>
<path d="M194.286 153.766H186.182V161.87H194.286V153.766Z" fill="black"/>
<path d="M234.805 153.766H226.701V161.87H234.805V153.766Z" fill="black"/>
<path d="M251.013 153.766H242.909V161.87H251.013V153.766Z" fill="black"/>
<path d="M267.221 153.766H259.117V161.87H267.221V153.766Z" fill="black"/>
<path d="M283.428 153.766H275.325V161.87H283.428V153.766Z" fill="black"/>
<path d="M32.2078 161.87H24.1039V169.974H32.2078V161.87Z" fill="black"/>
<path d="M56.5195 161.87H48.4156V169.974H56.5195V161.87Z" fill="black"/>
<path d="M64.6234 161.87H56.5195V169.974H64.6234V161.87Z" fill="black"/>
<path d="M72.7273 161.87H64.6234V169.974H72.7273V161.87Z" fill="black"/>
<path d="M88.9352 161.87H80.8313V169.974H88.9352V161.87Z" fill="black"/>
<path d="M97.0391 161.87H88.9352V169.974H97.0391V161.87Z" fill="black"/>
<path d="M113.247 161.87H105.143V169.974H113.247V161.87Z" fill="black"/>
<path d="M129.454 161.87H121.351V169.974H129.454V161.87Z" fill="black"/>
<path d="M145.662 161.87H137.558V169.974H145.662V161.87Z" fill="black"/>
<path d="M161.87 161.87H153.766V169.974H161.87V161.87Z" fill="black"/>
<path d="M169.974 161.87H161.87V169.974H169.974V161.87Z" fill="black"/>
<path d="M178.078 161.87H169.974V169.974H178.078V161.87Z" fill="black"/>
<path d="M186.182 161.87H178.078V169.974H186.182V161.87Z" fill="black"/>
<path d="M194.286 161.87H186.182V169.974H194.286V161.87Z" fill="black"/>
<path d="M210.494 161.87H202.39V169.974H210.494V161.87Z" fill="black"/>
<path d="M218.597 161.87H210.494V169.974H218.597V161.87Z" fill="black"/>
<path d="M226.701 161.87H218.597V169.974H226.701V161.87Z" fill="black"/>
<path d="M242.909 161.87H234.805V169.974H242.909V161.87Z" fill="black"/>
<path d="M259.117 161.87H251.013V169.974H259.117V161.87Z" fill="black"/>
<path d="M267.221 161.87H259.117V169.974H267.221V161.87Z" fill="black"/>
<path d="M283.428 161.87H275.325V169.974H283.428V161.87Z" fill="black"/>
<path d="M24.1039 169.974H16V178.078H24.1039V169.974Z" fill="black"/>
<path d="M32.2078 169.974H24.1039V178.078H32.2078V169.974Z" fill="black"/>
<path d="M48.4157 169.974H40.3118V178.078H48.4157V169.974Z" fill="black"/>
<path d="M56.5195 169.974H48.4156V178.078H56.5195V169.974Z" fill="black"/>
<path d="M64.6234 169.974H56.5195V178.078H64.6234V169.974Z" fill="black"/>
<path d="M80.8312 169.974H72.7273V178.078H80.8312V169.974Z" fill="black"/>
<path d="M88.9352 169.974H80.8313V178.078H88.9352V169.974Z" fill="black"/>
<path d="M113.247 169.974H105.143V178.078H113.247V169.974Z" fill="black"/>
<path d="M121.351 169.974H113.247V178.078H121.351V169.974Z" fill="black"/>
<path d="M137.558 169.974H129.454V178.078H137.558V169.974Z" fill="black"/>
<path d="M202.39 169.974H194.286V178.078H202.39V169.974Z" fill="black"/>
<path d="M218.597 169.974H210.494V178.078H218.597V169.974Z" fill="black"/>
<path d="M251.013 169.974H242.909V178.078H251.013V169.974Z" fill="black"/>
<path d="M259.117 169.974H251.013V178.078H259.117V169.974Z" fill="black"/>
<path d="M267.221 169.974H259.117V178.078H267.221V169.974Z" fill="black"/>
<path d="M283.428 169.974H275.325V178.078H283.428V169.974Z" fill="black"/>
<path d="M24.1039 178.078H16V186.182H24.1039V178.078Z" fill="black"/>
<path d="M40.3117 178.078H32.2078V186.182H40.3117V178.078Z" fill="black"/>
<path d="M72.7273 178.078H64.6234V186.182H72.7273V178.078Z" fill="black"/>
<path d="M80.8312 178.078H72.7273V186.182H80.8312V178.078Z" fill="black"/>
<path d="M88.9352 178.078H80.8313V186.182H88.9352V178.078Z" fill="black"/>
<path d="M105.143 178.078H97.0388V186.182H105.143V178.078Z" fill="black"/>
<path d="M137.558 178.078H129.454V186.182H137.558V178.078Z" fill="black"/>
<path d="M145.662 178.078H137.558V186.182H145.662V178.078Z" fill="black"/>
<path d="M161.87 178.078H153.766V186.182H161.87V178.078Z" fill="black"/>
<path d="M169.974 178.078H161.87V186.182H169.974V178.078Z" fill="black"/>
<path d="M218.597 178.078H210.494V186.182H218.597V178.078Z" fill="black"/>
<path d="M226.701 178.078H218.597V186.182H226.701V178.078Z" fill="black"/>
<path d="M242.909 178.078H234.805V186.182H242.909V178.078Z" fill="black"/>
<path d="M259.117 178.078H251.013V186.182H259.117V178.078Z" fill="black"/>
<path d="M275.325 178.078H267.221V186.182H275.325V178.078Z" fill="black"/>
<path d="M283.428 178.078H275.325V186.182H283.428V178.078Z" fill="black"/>
<path d="M24.1039 186.182H16V194.286H24.1039V186.182Z" fill="black"/>
<path d="M32.2078 186.182H24.1039V194.286H32.2078V186.182Z" fill="black"/>
<path d="M40.3117 186.182H32.2078V194.286H40.3117V186.182Z" fill="black"/>
<path d="M48.4157 186.182H40.3118V194.286H48.4157V186.182Z" fill="black"/>
<path d="M56.5195 186.182H48.4156V194.286H56.5195V186.182Z" fill="black"/>
<path d="M113.247 186.182H105.143V194.286H113.247V186.182Z" fill="black"/>
<path d="M129.454 186.182H121.351V194.286H129.454V186.182Z" fill="black"/>
<path d="M145.662 186.182H137.558V194.286H145.662V186.182Z" fill="black"/>
<path d="M153.766 186.182H145.662V194.286H153.766V186.182Z" fill="black"/>
<path d="M178.078 186.182H169.974V194.286H178.078V186.182Z" fill="black"/>
<path d="M202.39 186.182H194.286V194.286H202.39V186.182Z" fill="black"/>
<path d="M210.494 186.182H202.39V194.286H210.494V186.182Z" fill="black"/>
<path d="M242.909 186.182H234.805V194.286H242.909V186.182Z" fill="black"/>
<path d="M251.013 186.182H242.909V194.286H251.013V186.182Z" fill="black"/>
<path d="M259.117 186.182H251.013V194.286H259.117V186.182Z" fill="black"/>
<path d="M24.1039 194.286H16V202.39H24.1039V194.286Z" fill="black"/>
<path d="M48.4157 194.286H40.3118V202.39H48.4157V194.286Z" fill="black"/>
<path d="M64.6234 194.286H56.5195V202.39H64.6234V194.286Z" fill="black"/>
<path d="M72.7273 194.286H64.6234V202.39H72.7273V194.286Z" fill="black"/>
<path d="M80.8312 194.286H72.7273V202.39H80.8312V194.286Z" fill="black"/>
<path d="M121.351 194.286H113.247V202.39H121.351V194.286Z" fill="black"/>
<path d="M129.454 194.286H121.351V202.39H129.454V194.286Z" fill="black"/>
<path d="M145.662 194.286H137.558V202.39H145.662V194.286Z" fill="black"/>
<path d="M153.766 194.286H145.662V202.39H153.766V194.286Z" fill="black"/>
<path d="M161.87 194.286H153.766V202.39H161.87V194.286Z" fill="black"/>
<path d="M194.286 194.286H186.182V202.39H194.286V194.286Z" fill="black"/>
<path d="M210.494 194.286H202.39V202.39H210.494V194.286Z" fill="black"/>
<path d="M234.805 194.286H226.701V202.39H234.805V194.286Z" fill="black"/>
<path d="M242.909 194.286H234.805V202.39H242.909V194.286Z" fill="black"/>
<path d="M251.013 194.286H242.909V202.39H251.013V194.286Z" fill="black"/>
<path d="M259.117 194.286H251.013V202.39H259.117V194.286Z" fill="black"/>
<path d="M267.221 194.286H259.117V202.39H267.221V194.286Z" fill="black"/>
<path d="M275.325 194.286H267.221V202.39H275.325V194.286Z" fill="black"/>
<path d="M283.428 194.286H275.325V202.39H283.428V194.286Z" fill="black"/>
<path d="M24.1039 202.39H16V210.494H24.1039V202.39Z" fill="black"/>
<path d="M40.3117 202.39H32.2078V210.494H40.3117V202.39Z" fill="black"/>
<path d="M56.5195 202.39H48.4156V210.494H56.5195V202.39Z" fill="black"/>
<path d="M80.8312 202.39H72.7273V210.494H80.8312V202.39Z" fill="black"/>
<path d="M97.0391 202.39H88.9352V210.494H97.0391V202.39Z" fill="black"/>
<path d="M129.454 202.39H121.351V210.494H129.454V202.39Z" fill="black"/>
<path d="M137.558 202.39H129.454V210.494H137.558V202.39Z" fill="black"/>
<path d="M153.766 202.39H145.662V210.494H153.766V202.39Z" fill="black"/>
<path d="M161.87 202.39H153.766V210.494H161.87V202.39Z" fill="black"/>
<path d="M178.078 202.39H169.974V210.494H178.078V202.39Z" fill="black"/>
<path d="M186.182 202.39H178.078V210.494H186.182V202.39Z" fill="black"/>
<path d="M202.39 202.39H194.286V210.494H202.39V202.39Z" fill="black"/>
<path d="M210.494 202.39H202.39V210.494H210.494V202.39Z" fill="black"/>
<path d="M226.701 202.39H218.597V210.494H226.701V202.39Z" fill="black"/>
<path d="M251.013 202.39H242.909V210.494H251.013V202.39Z" fill="black"/>
<path d="M267.221 202.39H259.117V210.494H267.221V202.39Z" fill="black"/>
<path d="M283.428 202.39H275.325V210.494H283.428V202.39Z" fill="black"/>
<path d="M24.1039 210.494H16V218.597H24.1039V210.494Z" fill="black"/>
<path d="M32.2078 210.494H24.1039V218.597H32.2078V210.494Z" fill="black"/>
<path d="M40.3117 210.494H32.2078V218.597H40.3117V210.494Z" fill="black"/>
<path d="M56.5195 210.494H48.4156V218.597H56.5195V210.494Z" fill="black"/>
<path d="M64.6234 210.494H56.5195V218.597H64.6234V210.494Z" fill="black"/>
<path d="M72.7273 210.494H64.6234V218.597H72.7273V210.494Z" fill="black"/>
<path d="M97.0391 210.494H88.9352V218.597H97.0391V210.494Z" fill="black"/>
<path d="M105.143 210.494H97.0388V218.597H105.143V210.494Z" fill="black"/>
<path d="M113.247 210.494H105.143V218.597H113.247V210.494Z" fill="black"/>
<path d="M129.454 210.494H121.351V218.597H129.454V210.494Z" fill="black"/>
<path d="M145.662 210.494H137.558V218.597H145.662V210.494Z" fill="black"/>
<path d="M153.766 210.494H145.662V218.597H153.766V210.494Z" fill="black"/>
<path d="M186.182 210.494H178.078V218.597H186.182V210.494Z" fill="black"/>
<path d="M218.597 210.494H210.494V218.597H218.597V210.494Z" fill="black"/>
<path d="M226.701 210.494H218.597V218.597H226.701V210.494Z" fill="black"/>
<path d="M234.805 210.494H226.701V218.597H234.805V210.494Z" fill="black"/>
<path d="M242.909 210.494H234.805V218.597H242.909V210.494Z" fill="black"/>
<path d="M251.013 210.494H242.909V218.597H251.013V210.494Z" fill="black"/>
<path d="M88.9352 218.597H80.8313V226.701H88.9352V218.597Z" fill="black"/>
<path d="M97.0391 218.597H88.9352V226.701H97.0391V218.597Z" fill="black"/>
<path d="M105.143 218.597H97.0388V226.701H105.143V218.597Z" fill="black"/>
<path d="M113.247 218.597H105.143V226.701H113.247V218.597Z" fill="black"/>
<path d="M121.351 218.597H113.247V226.701H121.351V218.597Z" fill="black"/>
<path d="M137.558 218.597H129.454V226.701H137.558V218.597Z" fill="black"/>
<path d="M145.662 218.597H137.558V226.701H145.662V218.597Z" fill="black"/>
<path d="M153.766 218.597H145.662V226.701H153.766V218.597Z" fill="black"/>
<path d="M161.87 218.597H153.766V226.701H161.87V218.597Z" fill="black"/>
<path d="M186.182 218.597H178.078V226.701H186.182V218.597Z" fill="black"/>
<path d="M194.286 218.597H186.182V226.701H194.286V218.597Z" fill="black"/>
<path d="M210.494 218.597H202.39V226.701H210.494V218.597Z" fill="black"/>
<path d="M218.597 218.597H210.494V226.701H218.597V218.597Z" fill="black"/>
<path d="M251.013 218.597H242.909V226.701H251.013V218.597Z" fill="black"/>
<path d="M267.221 218.597H259.117V226.701H267.221V218.597Z" fill="black"/>
<path d="M275.325 218.597H267.221V226.701H275.325V218.597Z" fill="black"/>
<path d="M88.9352 226.701H80.8313V234.805H88.9352V226.701Z" fill="black"/>
<path d="M97.0391 226.701H88.9352V234.805H97.0391V226.701Z" fill="black"/>
<path d="M137.558 226.701H129.454V234.805H137.558V226.701Z" fill="black"/>
<path d="M145.662 226.701H137.558V234.805H145.662V226.701Z" fill="black"/>
<path d="M169.974 226.701H161.87V234.805H169.974V226.701Z" fill="black"/>
<path d="M178.078 226.701H169.974V234.805H178.078V226.701Z" fill="black"/>
<path d="M186.182 226.701H178.078V234.805H186.182V226.701Z" fill="black"/>
<path d="M194.286 226.701H186.182V234.805H194.286V226.701Z" fill="black"/>
<path d="M202.39 226.701H194.286V234.805H202.39V226.701Z" fill="black"/>
<path d="M210.494 226.701H202.39V234.805H210.494V226.701Z" fill="black"/>
<path d="M218.597 226.701H210.494V234.805H218.597V226.701Z" fill="black"/>
<path d="M234.805 226.701H226.701V234.805H234.805V226.701Z" fill="black"/>
<path d="M251.013 226.701H242.909V234.805H251.013V226.701Z" fill="black"/>
<path d="M267.221 226.701H259.117V234.805H267.221V226.701Z" fill="black"/>
<path d="M88.9352 234.805H80.8313V242.909H88.9352V234.805Z" fill="black"/>
<path d="M113.247 234.805H105.143V242.909H113.247V234.805Z" fill="black"/>
<path d="M145.662 234.805H137.558V242.909H145.662V234.805Z" fill="black"/>
<path d="M169.974 234.805H161.87V242.909H169.974V234.805Z" fill="black"/>
<path d="M210.494 234.805H202.39V242.909H210.494V234.805Z" fill="black"/>
<path d="M218.597 234.805H210.494V242.909H218.597V234.805Z" fill="black"/>
<path d="M251.013 234.805H242.909V242.909H251.013V234.805Z" fill="black"/>
<path d="M259.117 234.805H251.013V242.909H259.117V234.805Z" fill="black"/>
<path d="M267.221 234.805H259.117V242.909H267.221V234.805Z" fill="black"/>
<path d="M275.325 234.805H267.221V242.909H275.325V234.805Z" fill="black"/>
<path d="M88.9352 242.909H80.8313V251.013H88.9352V242.909Z" fill="black"/>
<path d="M97.0391 242.909H88.9352V251.013H97.0391V242.909Z" fill="black"/>
<path d="M121.351 242.909H113.247V251.013H121.351V242.909Z" fill="black"/>
<path d="M129.454 242.909H121.351V251.013H129.454V242.909Z" fill="black"/>
<path d="M137.558 242.909H129.454V251.013H137.558V242.909Z" fill="black"/>
<path d="M153.766 242.909H145.662V251.013H153.766V242.909Z" fill="black"/>
<path d="M169.974 242.909H161.87V251.013H169.974V242.909Z" fill="black"/>
<path d="M186.182 242.909H178.078V251.013H186.182V242.909Z" fill="black"/>
<path d="M202.39 242.909H194.286V251.013H202.39V242.909Z" fill="black"/>
<path d="M210.494 242.909H202.39V251.013H210.494V242.909Z" fill="black"/>
<path d="M218.597 242.909H210.494V251.013H218.597V242.909Z" fill="black"/>
<path d="M226.701 242.909H218.597V251.013H226.701V242.909Z" fill="black"/>
<path d="M234.805 242.909H226.701V251.013H234.805V242.909Z" fill="black"/>
<path d="M242.909 242.909H234.805V251.013H242.909V242.909Z" fill="black"/>
<path d="M251.013 242.909H242.909V251.013H251.013V242.909Z" fill="black"/>
<path d="M283.428 242.909H275.325V251.013H283.428V242.909Z" fill="black"/>
<path d="M88.9352 251.013H80.8313V259.117H88.9352V251.013Z" fill="black"/>
<path d="M113.247 251.013H105.143V259.117H113.247V251.013Z" fill="black"/>
<path d="M121.351 251.013H113.247V259.117H121.351V251.013Z" fill="black"/>
<path d="M129.454 251.013H121.351V259.117H129.454V251.013Z" fill="black"/>
<path d="M137.558 251.013H129.454V259.117H137.558V251.013Z" fill="black"/>
<path d="M145.662 251.013H137.558V259.117H145.662V251.013Z" fill="black"/>
<path d="M153.766 251.013H145.662V259.117H153.766V251.013Z" fill="black"/>
<path d="M161.87 251.013H153.766V259.117H161.87V251.013Z" fill="black"/>
<path d="M178.078 251.013H169.974V259.117H178.078V251.013Z" fill="black"/>
<path d="M194.286 251.013H186.182V259.117H194.286V251.013Z" fill="black"/>
<path d="M202.39 251.013H194.286V259.117H202.39V251.013Z" fill="black"/>
<path d="M210.494 251.013H202.39V259.117H210.494V251.013Z" fill="black"/>
<path d="M218.597 251.013H210.494V259.117H218.597V251.013Z" fill="black"/>
<path d="M226.701 251.013H218.597V259.117H226.701V251.013Z" fill="black"/>
<path d="M242.909 251.013H234.805V259.117H242.909V251.013Z" fill="black"/>
<path d="M259.117 251.013H251.013V259.117H259.117V251.013Z" fill="black"/>
<path d="M275.325 251.013H267.221V259.117H275.325V251.013Z" fill="black"/>
<path d="M283.428 251.013H275.325V259.117H283.428V251.013Z" fill="black"/>
<path d="M105.143 259.117H97.0388V267.221H105.143V259.117Z" fill="black"/>
<path d="M121.351 259.117H113.247V267.221H121.351V259.117Z" fill="black"/>
<path d="M137.558 259.117H129.454V267.221H137.558V259.117Z" fill="black"/>
<path d="M145.662 259.117H137.558V267.221H145.662V259.117Z" fill="black"/>
<path d="M169.974 259.117H161.87V267.221H169.974V259.117Z" fill="black"/>
<path d="M178.078 259.117H169.974V267.221H178.078V259.117Z" fill="black"/>
<path d="M186.182 259.117H178.078V267.221H186.182V259.117Z" fill="black"/>
<path d="M194.286 259.117H186.182V267.221H194.286V259.117Z" fill="black"/>
<path d="M210.494 259.117H202.39V267.221H210.494V259.117Z" fill="black"/>
<path d="M218.597 259.117H210.494V267.221H218.597V259.117Z" fill="black"/>
<path d="M242.909 259.117H234.805V267.221H242.909V259.117Z" fill="black"/>
<path d="M251.013 259.117H242.909V267.221H251.013V259.117Z" fill="black"/>
<path d="M267.221 259.117H259.117V267.221H267.221V259.117Z" fill="black"/>
<path d="M275.325 259.117H267.221V267.221H275.325V259.117Z" fill="black"/>
<path d="M283.428 259.117H275.325V267.221H283.428V259.117Z" fill="black"/>
<path d="M97.0391 267.221H88.9352V275.325H97.0391V267.221Z" fill="black"/>
<path d="M105.143 267.221H97.0388V275.325H105.143V267.221Z" fill="black"/>
<path d="M113.247 267.221H105.143V275.325H113.247V267.221Z" fill="black"/>
<path d="M242.909 267.221H234.805V275.325H242.909V267.221Z" fill="black"/>
<path d="M251.013 267.221H242.909V275.325H251.013V267.221Z" fill="black"/>
<path d="M259.117 267.221H251.013V275.325H259.117V267.221Z" fill="black"/>
<path d="M267.221 267.221H259.117V275.325H267.221V267.221Z" fill="black"/>
<path d="M275.325 267.221H267.221V275.325H275.325V267.221Z" fill="black"/>
<path d="M283.428 267.221H275.325V275.325H283.428V267.221Z" fill="black"/>
<path d="M88.9352 275.325H80.8313V283.428H88.9352V275.325Z" fill="black"/>
<path d="M105.143 275.325H97.0388V283.428H105.143V275.325Z" fill="black"/>
<path d="M113.247 275.325H105.143V283.428H113.247V275.325Z" fill="black"/>
<path d="M153.766 275.325H145.662V283.428H153.766V275.325Z" fill="black"/>
<path d="M161.87 275.325H153.766V283.428H161.87V275.325Z" fill="black"/>
<path d="M169.974 275.325H161.87V283.428H169.974V275.325Z" fill="black"/>
<path d="M210.494 275.325H202.39V283.428H210.494V275.325Z" fill="black"/>
<path d="M218.597 275.325H210.494V283.428H218.597V275.325Z" fill="black"/>
<path d="M242.909 275.325H234.805V283.428H242.909V275.325Z" fill="black"/>
<path d="M251.013 275.325H242.909V283.428H251.013V275.325Z" fill="black"/>
<path d="M64.2182 16H24.5091H16V24.5091V64.2182V72.7273H24.5091H64.2182H72.7273V64.2182V24.5091V16H64.2182ZM64.2182 64.2182H24.5091V24.5091H64.2182V64.2182Z" fill="black"/>
<path d="M274.92 16H235.211H226.701V24.5091V64.2182V72.7273H235.211H274.92H283.429V64.2182V24.5091V16H274.92ZM274.92 64.2182H235.211V24.5091H274.92V64.2182Z" fill="black"/>
<path d="M64.2182 226.701H24.5091H16V235.211V274.92V283.429H24.5091H64.2182H72.7273V274.92V235.211V226.701H64.2182ZM64.2182 274.92H24.5091V235.211H64.2182V274.92Z" fill="black"/>
<path d="M56.5195 32.2078H32.2078V56.5195H56.5195V32.2078Z" fill="black"/>
<path d="M267.221 32.2078H242.909V56.5195H267.221V32.2078Z" fill="black"/>
<path d="M56.5195 242.909H32.2078V267.221H56.5195V242.909Z" fill="black"/>
</g>
<defs>
<clipPath id="clip0_461_4428">
<rect width="300" height="300" fill="white"/>
</clipPath>
</defs>
</svg>
