<svg width="175" height="175" viewBox="0 0 175 175" fill="none" xmlns="http://www.w3.org/2000/svg">
<g clip-path="url(#clip0_460_1582)">
<path d="M175 0H0V175H175V0Z" fill="white"/>
<path d="M42.0217 7.77783H38.2168V11.5827H42.0217V7.77783Z" fill="black"/>
<path d="M45.8269 7.77783H42.022V11.5827H45.8269V7.77783Z" fill="black"/>
<path d="M49.6315 7.77783H45.8267V11.5827H49.6315V7.77783Z" fill="black"/>
<path d="M64.8508 7.77783H61.0459V11.5827H64.8508V7.77783Z" fill="black"/>
<path d="M68.656 7.77783H64.8511V11.5827H68.656V7.77783Z" fill="black"/>
<path d="M72.4606 7.77783H68.6558V11.5827H72.4606V7.77783Z" fill="black"/>
<path d="M76.2658 7.77783H72.4609V11.5827H76.2658V7.77783Z" fill="black"/>
<path d="M80.0705 7.77783H76.2656V11.5827H80.0705V7.77783Z" fill="black"/>
<path d="M83.8752 7.77783H80.0703V11.5827H83.8752V7.77783Z" fill="black"/>
<path d="M87.6804 7.77783H83.8755V11.5827H87.6804V7.77783Z" fill="black"/>
<path d="M91.4851 7.77783H87.6802V11.5827H91.4851V7.77783Z" fill="black"/>
<path d="M99.0949 7.77783H95.29V11.5827H99.0949V7.77783Z" fill="black"/>
<path d="M106.705 7.77783H102.9V11.5827H106.705V7.77783Z" fill="black"/>
<path d="M110.509 7.77783H106.705V11.5827H110.509V7.77783Z" fill="black"/>
<path d="M114.315 7.77783H110.51V11.5827H114.315V7.77783Z" fill="black"/>
<path d="M118.119 7.77783H114.314V11.5827H118.119V7.77783Z" fill="black"/>
<path d="M129.534 7.77783H125.729V11.5827H129.534V7.77783Z" fill="black"/>
<path d="M133.339 7.77783H129.534V11.5827H133.339V7.77783Z" fill="black"/>
<path d="M42.0217 11.5828H38.2168V15.3876H42.0217V11.5828Z" fill="black"/>
<path d="M45.8269 11.5828H42.022V15.3876H45.8269V11.5828Z" fill="black"/>
<path d="M53.4362 11.5828H49.6313V15.3876H53.4362V11.5828Z" fill="black"/>
<path d="M64.8508 11.5828H61.0459V15.3876H64.8508V11.5828Z" fill="black"/>
<path d="M72.4606 11.5828H68.6558V15.3876H72.4606V11.5828Z" fill="black"/>
<path d="M80.0705 11.5828H76.2656V15.3876H80.0705V11.5828Z" fill="black"/>
<path d="M99.0949 11.5828H95.29V15.3876H99.0949V11.5828Z" fill="black"/>
<path d="M106.705 11.5828H102.9V15.3876H106.705V11.5828Z" fill="black"/>
<path d="M121.924 11.5828H118.119V15.3876H121.924V11.5828Z" fill="black"/>
<path d="M133.339 11.5828H129.534V15.3876H133.339V11.5828Z" fill="black"/>
<path d="M45.8269 15.3877H42.022V19.1926H45.8269V15.3877Z" fill="black"/>
<path d="M53.4362 15.3877H49.6313V19.1926H53.4362V15.3877Z" fill="black"/>
<path d="M68.656 15.3877H64.8511V19.1926H68.656V15.3877Z" fill="black"/>
<path d="M76.2658 15.3877H72.4609V19.1926H76.2658V15.3877Z" fill="black"/>
<path d="M87.6804 15.3877H83.8755V19.1926H87.6804V15.3877Z" fill="black"/>
<path d="M114.315 15.3877H110.51V19.1926H114.315V15.3877Z" fill="black"/>
<path d="M118.119 15.3877H114.314V19.1926H118.119V15.3877Z" fill="black"/>
<path d="M125.729 15.3877H121.924V19.1926H125.729V15.3877Z" fill="black"/>
<path d="M129.534 15.3877H125.729V19.1926H129.534V15.3877Z" fill="black"/>
<path d="M133.339 15.3877H129.534V19.1926H133.339V15.3877Z" fill="black"/>
<path d="M42.0217 19.1924H38.2168V22.9973H42.0217V19.1924Z" fill="black"/>
<path d="M49.6315 19.1924H45.8267V22.9973H49.6315V19.1924Z" fill="black"/>
<path d="M53.4362 19.1924H49.6313V22.9973H53.4362V19.1924Z" fill="black"/>
<path d="M61.0461 19.1924H57.2412V22.9973H61.0461V19.1924Z" fill="black"/>
<path d="M68.656 19.1924H64.8511V22.9973H68.656V19.1924Z" fill="black"/>
<path d="M83.8752 19.1924H80.0703V22.9973H83.8752V19.1924Z" fill="black"/>
<path d="M91.4851 19.1924H87.6802V22.9973H91.4851V19.1924Z" fill="black"/>
<path d="M110.509 19.1924H106.705V22.9973H110.509V19.1924Z" fill="black"/>
<path d="M114.315 19.1924H110.51V22.9973H114.315V19.1924Z" fill="black"/>
<path d="M125.729 19.1924H121.924V22.9973H125.729V19.1924Z" fill="black"/>
<path d="M129.534 19.1924H125.729V22.9973H129.534V19.1924Z" fill="black"/>
<path d="M57.2414 22.9973H53.4365V26.8022H57.2414V22.9973Z" fill="black"/>
<path d="M64.8508 22.9973H61.0459V26.8022H64.8508V22.9973Z" fill="black"/>
<path d="M68.656 22.9973H64.8511V26.8022H68.656V22.9973Z" fill="black"/>
<path d="M72.4606 22.9973H68.6558V26.8022H72.4606V22.9973Z" fill="black"/>
<path d="M83.8752 22.9973H80.0703V26.8022H83.8752V22.9973Z" fill="black"/>
<path d="M95.2902 22.9973H91.4854V26.8022H95.2902V22.9973Z" fill="black"/>
<path d="M110.509 22.9973H106.705V26.8022H110.509V22.9973Z" fill="black"/>
<path d="M114.315 22.9973H110.51V26.8022H114.315V22.9973Z" fill="black"/>
<path d="M118.119 22.9973H114.314V26.8022H118.119V22.9973Z" fill="black"/>
<path d="M121.924 22.9973H118.119V26.8022H121.924V22.9973Z" fill="black"/>
<path d="M125.729 22.9973H121.924V26.8022H125.729V22.9973Z" fill="black"/>
<path d="M129.534 22.9973H125.729V26.8022H129.534V22.9973Z" fill="black"/>
<path d="M45.8269 26.8022H42.022V30.6071H45.8269V26.8022Z" fill="black"/>
<path d="M49.6315 26.8022H45.8267V30.6071H49.6315V26.8022Z" fill="black"/>
<path d="M53.4362 26.8022H49.6313V30.6071H53.4362V26.8022Z" fill="black"/>
<path d="M72.4606 26.8022H68.6558V30.6071H72.4606V26.8022Z" fill="black"/>
<path d="M76.2658 26.8022H72.4609V30.6071H76.2658V26.8022Z" fill="black"/>
<path d="M80.0705 26.8022H76.2656V30.6071H80.0705V26.8022Z" fill="black"/>
<path d="M83.8752 26.8022H80.0703V30.6071H83.8752V26.8022Z" fill="black"/>
<path d="M87.6804 26.8022H83.8755V30.6071H87.6804V26.8022Z" fill="black"/>
<path d="M110.509 26.8022H106.705V30.6071H110.509V26.8022Z" fill="black"/>
<path d="M129.534 26.8022H125.729V30.6071H129.534V26.8022Z" fill="black"/>
<path d="M133.339 26.8022H129.534V30.6071H133.339V26.8022Z" fill="black"/>
<path d="M42.0217 30.6072H38.2168V34.4121H42.0217V30.6072Z" fill="black"/>
<path d="M49.6315 30.6072H45.8267V34.4121H49.6315V30.6072Z" fill="black"/>
<path d="M57.2414 30.6072H53.4365V34.4121H57.2414V30.6072Z" fill="black"/>
<path d="M64.8508 30.6072H61.0459V34.4121H64.8508V30.6072Z" fill="black"/>
<path d="M72.4606 30.6072H68.6558V34.4121H72.4606V30.6072Z" fill="black"/>
<path d="M80.0705 30.6072H76.2656V34.4121H80.0705V30.6072Z" fill="black"/>
<path d="M87.6804 30.6072H83.8755V34.4121H87.6804V30.6072Z" fill="black"/>
<path d="M95.2902 30.6072H91.4854V34.4121H95.2902V30.6072Z" fill="black"/>
<path d="M102.9 30.6072H99.0947V34.4121H102.9V30.6072Z" fill="black"/>
<path d="M110.509 30.6072H106.705V34.4121H110.509V30.6072Z" fill="black"/>
<path d="M118.119 30.6072H114.314V34.4121H118.119V30.6072Z" fill="black"/>
<path d="M125.729 30.6072H121.924V34.4121H125.729V30.6072Z" fill="black"/>
<path d="M133.339 30.6072H129.534V34.4121H133.339V30.6072Z" fill="black"/>
<path d="M42.0217 34.4119H38.2168V38.2167H42.0217V34.4119Z" fill="black"/>
<path d="M45.8269 34.4119H42.022V38.2167H45.8269V34.4119Z" fill="black"/>
<path d="M49.6315 34.4119H45.8267V38.2167H49.6315V34.4119Z" fill="black"/>
<path d="M53.4362 34.4119H49.6313V38.2167H53.4362V34.4119Z" fill="black"/>
<path d="M64.8508 34.4119H61.0459V38.2167H64.8508V34.4119Z" fill="black"/>
<path d="M76.2658 34.4119H72.4609V38.2167H76.2658V34.4119Z" fill="black"/>
<path d="M80.0705 34.4119H76.2656V38.2167H80.0705V34.4119Z" fill="black"/>
<path d="M83.8752 34.4119H80.0703V38.2167H83.8752V34.4119Z" fill="black"/>
<path d="M87.6804 34.4119H83.8755V38.2167H87.6804V34.4119Z" fill="black"/>
<path d="M95.2902 34.4119H91.4854V38.2167H95.2902V34.4119Z" fill="black"/>
<path d="M99.0949 34.4119H95.29V38.2167H99.0949V34.4119Z" fill="black"/>
<path d="M102.9 34.4119H99.0947V38.2167H102.9V34.4119Z" fill="black"/>
<path d="M121.924 34.4119H118.119V38.2167H121.924V34.4119Z" fill="black"/>
<path d="M129.534 34.4119H125.729V38.2167H129.534V34.4119Z" fill="black"/>
<path d="M11.5827 38.2168H7.77783V42.0217H11.5827V38.2168Z" fill="black"/>
<path d="M19.1926 38.2168H15.3877V42.0217H19.1926V38.2168Z" fill="black"/>
<path d="M22.9973 38.2168H19.1924V42.0217H22.9973V38.2168Z" fill="black"/>
<path d="M30.6071 38.2168H26.8022V42.0217H30.6071V38.2168Z" fill="black"/>
<path d="M34.4118 38.2168H30.6069V42.0217H34.4118V38.2168Z" fill="black"/>
<path d="M38.217 38.2168H34.4121V42.0217H38.217V38.2168Z" fill="black"/>
<path d="M45.8269 38.2168H42.022V42.0217H45.8269V38.2168Z" fill="black"/>
<path d="M49.6315 38.2168H45.8267V42.0217H49.6315V38.2168Z" fill="black"/>
<path d="M53.4362 38.2168H49.6313V42.0217H53.4362V38.2168Z" fill="black"/>
<path d="M57.2414 38.2168H53.4365V42.0217H57.2414V38.2168Z" fill="black"/>
<path d="M64.8508 38.2168H61.0459V42.0217H64.8508V38.2168Z" fill="black"/>
<path d="M72.4606 38.2168H68.6558V42.0217H72.4606V38.2168Z" fill="black"/>
<path d="M76.2658 38.2168H72.4609V42.0217H76.2658V38.2168Z" fill="black"/>
<path d="M80.0705 38.2168H76.2656V42.0217H80.0705V38.2168Z" fill="black"/>
<path d="M83.8752 38.2168H80.0703V42.0217H83.8752V38.2168Z" fill="black"/>
<path d="M91.4851 38.2168H87.6802V42.0217H91.4851V38.2168Z" fill="black"/>
<path d="M95.2902 38.2168H91.4854V42.0217H95.2902V38.2168Z" fill="black"/>
<path d="M110.509 38.2168H106.705V42.0217H110.509V38.2168Z" fill="black"/>
<path d="M114.315 38.2168H110.51V42.0217H114.315V38.2168Z" fill="black"/>
<path d="M118.119 38.2168H114.314V42.0217H118.119V38.2168Z" fill="black"/>
<path d="M121.924 38.2168H118.119V42.0217H121.924V38.2168Z" fill="black"/>
<path d="M125.729 38.2168H121.924V42.0217H125.729V38.2168Z" fill="black"/>
<path d="M133.339 38.2168H129.534V42.0217H133.339V38.2168Z" fill="black"/>
<path d="M140.948 38.2168H137.144V42.0217H140.948V38.2168Z" fill="black"/>
<path d="M152.363 38.2168H148.559V42.0217H152.363V38.2168Z" fill="black"/>
<path d="M159.973 38.2168H156.168V42.0217H159.973V38.2168Z" fill="black"/>
<path d="M163.778 38.2168H159.973V42.0217H163.778V38.2168Z" fill="black"/>
<path d="M11.5827 42.0217H7.77783V45.8266H11.5827V42.0217Z" fill="black"/>
<path d="M19.1926 42.0217H15.3877V45.8266H19.1926V42.0217Z" fill="black"/>
<path d="M22.9973 42.0217H19.1924V45.8266H22.9973V42.0217Z" fill="black"/>
<path d="M26.8024 42.0217H22.9976V45.8266H26.8024V42.0217Z" fill="black"/>
<path d="M42.0217 42.0217H38.2168V45.8266H42.0217V42.0217Z" fill="black"/>
<path d="M45.8269 42.0217H42.022V45.8266H45.8269V42.0217Z" fill="black"/>
<path d="M49.6315 42.0217H45.8267V45.8266H49.6315V42.0217Z" fill="black"/>
<path d="M53.4362 42.0217H49.6313V45.8266H53.4362V42.0217Z" fill="black"/>
<path d="M68.656 42.0217H64.8511V45.8266H68.656V42.0217Z" fill="black"/>
<path d="M76.2658 42.0217H72.4609V45.8266H76.2658V42.0217Z" fill="black"/>
<path d="M83.8752 42.0217H80.0703V45.8266H83.8752V42.0217Z" fill="black"/>
<path d="M99.0949 42.0217H95.29V45.8266H99.0949V42.0217Z" fill="black"/>
<path d="M106.705 42.0217H102.9V45.8266H106.705V42.0217Z" fill="black"/>
<path d="M118.119 42.0217H114.314V45.8266H118.119V42.0217Z" fill="black"/>
<path d="M125.729 42.0217H121.924V45.8266H125.729V42.0217Z" fill="black"/>
<path d="M129.534 42.0217H125.729V45.8266H129.534V42.0217Z" fill="black"/>
<path d="M133.339 42.0217H129.534V45.8266H133.339V42.0217Z" fill="black"/>
<path d="M137.144 42.0217H133.339V45.8266H137.144V42.0217Z" fill="black"/>
<path d="M140.948 42.0217H137.144V45.8266H140.948V42.0217Z" fill="black"/>
<path d="M144.754 42.0217H140.949V45.8266H144.754V42.0217Z" fill="black"/>
<path d="M148.558 42.0217H144.753V45.8266H148.558V42.0217Z" fill="black"/>
<path d="M156.168 42.0217H152.363V45.8266H156.168V42.0217Z" fill="black"/>
<path d="M163.778 42.0217H159.973V45.8266H163.778V42.0217Z" fill="black"/>
<path d="M11.5827 45.8267H7.77783V49.6315H11.5827V45.8267Z" fill="black"/>
<path d="M15.3874 45.8267H11.5825V49.6315H15.3874V45.8267Z" fill="black"/>
<path d="M19.1926 45.8267H15.3877V49.6315H19.1926V45.8267Z" fill="black"/>
<path d="M22.9973 45.8267H19.1924V49.6315H22.9973V45.8267Z" fill="black"/>
<path d="M26.8024 45.8267H22.9976V49.6315H26.8024V45.8267Z" fill="black"/>
<path d="M34.4118 45.8267H30.6069V49.6315H34.4118V45.8267Z" fill="black"/>
<path d="M45.8269 45.8267H42.022V49.6315H45.8269V45.8267Z" fill="black"/>
<path d="M61.0461 45.8267H57.2412V49.6315H61.0461V45.8267Z" fill="black"/>
<path d="M68.656 45.8267H64.8511V49.6315H68.656V45.8267Z" fill="black"/>
<path d="M72.4606 45.8267H68.6558V49.6315H72.4606V45.8267Z" fill="black"/>
<path d="M76.2658 45.8267H72.4609V49.6315H76.2658V45.8267Z" fill="black"/>
<path d="M95.2902 45.8267H91.4854V49.6315H95.2902V45.8267Z" fill="black"/>
<path d="M99.0949 45.8267H95.29V49.6315H99.0949V45.8267Z" fill="black"/>
<path d="M121.924 45.8267H118.119V49.6315H121.924V45.8267Z" fill="black"/>
<path d="M125.729 45.8267H121.924V49.6315H125.729V45.8267Z" fill="black"/>
<path d="M137.144 45.8267H133.339V49.6315H137.144V45.8267Z" fill="black"/>
<path d="M140.948 45.8267H137.144V49.6315H140.948V45.8267Z" fill="black"/>
<path d="M148.558 45.8267H144.753V49.6315H148.558V45.8267Z" fill="black"/>
<path d="M156.168 45.8267H152.363V49.6315H156.168V45.8267Z" fill="black"/>
<path d="M11.5827 49.6316H7.77783V53.4365H11.5827V49.6316Z" fill="black"/>
<path d="M15.3874 49.6316H11.5825V53.4365H15.3874V49.6316Z" fill="black"/>
<path d="M19.1926 49.6316H15.3877V53.4365H19.1926V49.6316Z" fill="black"/>
<path d="M22.9973 49.6316H19.1924V53.4365H22.9973V49.6316Z" fill="black"/>
<path d="M26.8024 49.6316H22.9976V53.4365H26.8024V49.6316Z" fill="black"/>
<path d="M30.6071 49.6316H26.8022V53.4365H30.6071V49.6316Z" fill="black"/>
<path d="M38.217 49.6316H34.4121V53.4365H38.217V49.6316Z" fill="black"/>
<path d="M42.0217 49.6316H38.2168V53.4365H42.0217V49.6316Z" fill="black"/>
<path d="M45.8269 49.6316H42.022V53.4365H45.8269V49.6316Z" fill="black"/>
<path d="M57.2414 49.6316H53.4365V53.4365H57.2414V49.6316Z" fill="black"/>
<path d="M64.8508 49.6316H61.0459V53.4365H64.8508V49.6316Z" fill="black"/>
<path d="M80.0705 49.6316H76.2656V53.4365H80.0705V49.6316Z" fill="black"/>
<path d="M83.8752 49.6316H80.0703V53.4365H83.8752V49.6316Z" fill="black"/>
<path d="M87.6804 49.6316H83.8755V53.4365H87.6804V49.6316Z" fill="black"/>
<path d="M102.9 49.6316H99.0947V53.4365H102.9V49.6316Z" fill="black"/>
<path d="M106.705 49.6316H102.9V53.4365H106.705V49.6316Z" fill="black"/>
<path d="M114.315 49.6316H110.51V53.4365H114.315V49.6316Z" fill="black"/>
<path d="M133.339 49.6316H129.534V53.4365H133.339V49.6316Z" fill="black"/>
<path d="M137.144 49.6316H133.339V53.4365H137.144V49.6316Z" fill="black"/>
<path d="M144.754 49.6316H140.949V53.4365H144.754V49.6316Z" fill="black"/>
<path d="M148.558 49.6316H144.753V53.4365H148.558V49.6316Z" fill="black"/>
<path d="M163.778 49.6316H159.973V53.4365H163.778V49.6316Z" fill="black"/>
<path d="M11.5827 53.4363H7.77783V57.2412H11.5827V53.4363Z" fill="black"/>
<path d="M19.1926 53.4363H15.3877V57.2412H19.1926V53.4363Z" fill="black"/>
<path d="M30.6071 53.4363H26.8022V57.2412H30.6071V53.4363Z" fill="black"/>
<path d="M34.4118 53.4363H30.6069V57.2412H34.4118V53.4363Z" fill="black"/>
<path d="M49.6315 53.4363H45.8267V57.2412H49.6315V53.4363Z" fill="black"/>
<path d="M53.4362 53.4363H49.6313V57.2412H53.4362V53.4363Z" fill="black"/>
<path d="M61.0461 53.4363H57.2412V57.2412H61.0461V53.4363Z" fill="black"/>
<path d="M72.4606 53.4363H68.6558V57.2412H72.4606V53.4363Z" fill="black"/>
<path d="M76.2658 53.4363H72.4609V57.2412H76.2658V53.4363Z" fill="black"/>
<path d="M83.8752 53.4363H80.0703V57.2412H83.8752V53.4363Z" fill="black"/>
<path d="M87.6804 53.4363H83.8755V57.2412H87.6804V53.4363Z" fill="black"/>
<path d="M95.2902 53.4363H91.4854V57.2412H95.2902V53.4363Z" fill="black"/>
<path d="M99.0949 53.4363H95.29V57.2412H99.0949V53.4363Z" fill="black"/>
<path d="M102.9 53.4363H99.0947V57.2412H102.9V53.4363Z" fill="black"/>
<path d="M106.705 53.4363H102.9V57.2412H106.705V53.4363Z" fill="black"/>
<path d="M110.509 53.4363H106.705V57.2412H110.509V53.4363Z" fill="black"/>
<path d="M118.119 53.4363H114.314V57.2412H118.119V53.4363Z" fill="black"/>
<path d="M121.924 53.4363H118.119V57.2412H121.924V53.4363Z" fill="black"/>
<path d="M129.534 53.4363H125.729V57.2412H129.534V53.4363Z" fill="black"/>
<path d="M144.754 53.4363H140.949V57.2412H144.754V53.4363Z" fill="black"/>
<path d="M152.363 53.4363H148.559V57.2412H152.363V53.4363Z" fill="black"/>
<path d="M156.168 53.4363H152.363V57.2412H156.168V53.4363Z" fill="black"/>
<path d="M163.778 53.4363H159.973V57.2412H163.778V53.4363Z" fill="black"/>
<path d="M19.1926 57.2412H15.3877V61.0461H19.1926V57.2412Z" fill="black"/>
<path d="M22.9973 57.2412H19.1924V61.0461H22.9973V57.2412Z" fill="black"/>
<path d="M42.0217 57.2412H38.2168V61.0461H42.0217V57.2412Z" fill="black"/>
<path d="M45.8269 57.2412H42.022V61.0461H45.8269V57.2412Z" fill="black"/>
<path d="M49.6315 57.2412H45.8267V61.0461H49.6315V57.2412Z" fill="black"/>
<path d="M53.4362 57.2412H49.6313V61.0461H53.4362V57.2412Z" fill="black"/>
<path d="M64.8508 57.2412H61.0459V61.0461H64.8508V57.2412Z" fill="black"/>
<path d="M72.4606 57.2412H68.6558V61.0461H72.4606V57.2412Z" fill="black"/>
<path d="M87.6804 57.2412H83.8755V61.0461H87.6804V57.2412Z" fill="black"/>
<path d="M91.4851 57.2412H87.6802V61.0461H91.4851V57.2412Z" fill="black"/>
<path d="M99.0949 57.2412H95.29V61.0461H99.0949V57.2412Z" fill="black"/>
<path d="M102.9 57.2412H99.0947V61.0461H102.9V57.2412Z" fill="black"/>
<path d="M106.705 57.2412H102.9V61.0461H106.705V57.2412Z" fill="black"/>
<path d="M121.924 57.2412H118.119V61.0461H121.924V57.2412Z" fill="black"/>
<path d="M137.144 57.2412H133.339V61.0461H137.144V57.2412Z" fill="black"/>
<path d="M156.168 57.2412H152.363V61.0461H156.168V57.2412Z" fill="black"/>
<path d="M159.973 57.2412H156.168V61.0461H159.973V57.2412Z" fill="black"/>
<path d="M163.778 57.2412H159.973V61.0461H163.778V57.2412Z" fill="black"/>
<path d="M11.5827 61.0461H7.77783V64.851H11.5827V61.0461Z" fill="black"/>
<path d="M22.9973 61.0461H19.1924V64.851H22.9973V61.0461Z" fill="black"/>
<path d="M26.8024 61.0461H22.9976V64.851H26.8024V61.0461Z" fill="black"/>
<path d="M30.6071 61.0461H26.8022V64.851H30.6071V61.0461Z" fill="black"/>
<path d="M34.4118 61.0461H30.6069V64.851H34.4118V61.0461Z" fill="black"/>
<path d="M45.8269 61.0461H42.022V64.851H45.8269V61.0461Z" fill="black"/>
<path d="M64.8508 61.0461H61.0459V64.851H64.8508V61.0461Z" fill="black"/>
<path d="M68.656 61.0461H64.8511V64.851H68.656V61.0461Z" fill="black"/>
<path d="M76.2658 61.0461H72.4609V64.851H76.2658V61.0461Z" fill="black"/>
<path d="M83.8752 61.0461H80.0703V64.851H83.8752V61.0461Z" fill="black"/>
<path d="M87.6804 61.0461H83.8755V64.851H87.6804V61.0461Z" fill="black"/>
<path d="M99.0949 61.0461H95.29V64.851H99.0949V61.0461Z" fill="black"/>
<path d="M110.509 61.0461H106.705V64.851H110.509V61.0461Z" fill="black"/>
<path d="M125.729 61.0461H121.924V64.851H125.729V61.0461Z" fill="black"/>
<path d="M140.948 61.0461H137.144V64.851H140.948V61.0461Z" fill="black"/>
<path d="M144.754 61.0461H140.949V64.851H144.754V61.0461Z" fill="black"/>
<path d="M152.363 61.0461H148.559V64.851H152.363V61.0461Z" fill="black"/>
<path d="M156.168 61.0461H152.363V64.851H156.168V61.0461Z" fill="black"/>
<path d="M159.973 61.0461H156.168V64.851H159.973V61.0461Z" fill="black"/>
<path d="M163.778 61.0461H159.973V64.851H163.778V61.0461Z" fill="black"/>
<path d="M11.5827 64.8511H7.77783V68.656H11.5827V64.8511Z" fill="black"/>
<path d="M30.6071 64.8511H26.8022V68.656H30.6071V64.8511Z" fill="black"/>
<path d="M38.217 64.8511H34.4121V68.656H38.217V64.8511Z" fill="black"/>
<path d="M53.4362 64.8511H49.6313V68.656H53.4362V64.8511Z" fill="black"/>
<path d="M72.4606 64.8511H68.6558V68.656H72.4606V64.8511Z" fill="black"/>
<path d="M91.4851 64.8511H87.6802V68.656H91.4851V64.8511Z" fill="black"/>
<path d="M99.0949 64.8511H95.29V68.656H99.0949V64.8511Z" fill="black"/>
<path d="M110.509 64.8511H106.705V68.656H110.509V64.8511Z" fill="black"/>
<path d="M114.315 64.8511H110.51V68.656H114.315V64.8511Z" fill="black"/>
<path d="M129.534 64.8511H125.729V68.656H129.534V64.8511Z" fill="black"/>
<path d="M133.339 64.8511H129.534V68.656H133.339V64.8511Z" fill="black"/>
<path d="M140.948 64.8511H137.144V68.656H140.948V64.8511Z" fill="black"/>
<path d="M148.558 64.8511H144.753V68.656H148.558V64.8511Z" fill="black"/>
<path d="M152.363 64.8511H148.559V68.656H152.363V64.8511Z" fill="black"/>
<path d="M159.973 64.8511H156.168V68.656H159.973V64.8511Z" fill="black"/>
<path d="M11.5827 68.6558H7.77783V72.4606H11.5827V68.6558Z" fill="black"/>
<path d="M15.3874 68.6558H11.5825V72.4606H15.3874V68.6558Z" fill="black"/>
<path d="M22.9973 68.6558H19.1924V72.4606H22.9973V68.6558Z" fill="black"/>
<path d="M26.8024 68.6558H22.9976V72.4606H26.8024V68.6558Z" fill="black"/>
<path d="M34.4118 68.6558H30.6069V72.4606H34.4118V68.6558Z" fill="black"/>
<path d="M38.217 68.6558H34.4121V72.4606H38.217V68.6558Z" fill="black"/>
<path d="M45.8269 68.6558H42.022V72.4606H45.8269V68.6558Z" fill="black"/>
<path d="M53.4362 68.6558H49.6313V72.4606H53.4362V68.6558Z" fill="black"/>
<path d="M64.8508 68.6558H61.0459V72.4606H64.8508V68.6558Z" fill="black"/>
<path d="M72.4606 68.6558H68.6558V72.4606H72.4606V68.6558Z" fill="black"/>
<path d="M87.6804 68.6558H83.8755V72.4606H87.6804V68.6558Z" fill="black"/>
<path d="M91.4851 68.6558H87.6802V72.4606H91.4851V68.6558Z" fill="black"/>
<path d="M95.2902 68.6558H91.4854V72.4606H95.2902V68.6558Z" fill="black"/>
<path d="M102.9 68.6558H99.0947V72.4606H102.9V68.6558Z" fill="black"/>
<path d="M106.705 68.6558H102.9V72.4606H106.705V68.6558Z" fill="black"/>
<path d="M118.119 68.6558H114.314V72.4606H118.119V68.6558Z" fill="black"/>
<path d="M125.729 68.6558H121.924V72.4606H125.729V68.6558Z" fill="black"/>
<path d="M129.534 68.6558H125.729V72.4606H129.534V68.6558Z" fill="black"/>
<path d="M133.339 68.6558H129.534V72.4606H133.339V68.6558Z" fill="black"/>
<path d="M148.558 68.6558H144.753V72.4606H148.558V68.6558Z" fill="black"/>
<path d="M159.973 68.6558H156.168V72.4606H159.973V68.6558Z" fill="black"/>
<path d="M163.778 68.6558H159.973V72.4606H163.778V68.6558Z" fill="black"/>
<path d="M11.5827 72.4607H7.77783V76.2656H11.5827V72.4607Z" fill="black"/>
<path d="M15.3874 72.4607H11.5825V76.2656H15.3874V72.4607Z" fill="black"/>
<path d="M19.1926 72.4607H15.3877V76.2656H19.1926V72.4607Z" fill="black"/>
<path d="M22.9973 72.4607H19.1924V76.2656H22.9973V72.4607Z" fill="black"/>
<path d="M26.8024 72.4607H22.9976V76.2656H26.8024V72.4607Z" fill="black"/>
<path d="M38.217 72.4607H34.4121V76.2656H38.217V72.4607Z" fill="black"/>
<path d="M57.2414 72.4607H53.4365V76.2656H57.2414V72.4607Z" fill="black"/>
<path d="M64.8508 72.4607H61.0459V76.2656H64.8508V72.4607Z" fill="black"/>
<path d="M87.6804 72.4607H83.8755V76.2656H87.6804V72.4607Z" fill="black"/>
<path d="M91.4851 72.4607H87.6802V76.2656H91.4851V72.4607Z" fill="black"/>
<path d="M99.0949 72.4607H95.29V76.2656H99.0949V72.4607Z" fill="black"/>
<path d="M102.9 72.4607H99.0947V76.2656H102.9V72.4607Z" fill="black"/>
<path d="M106.705 72.4607H102.9V76.2656H106.705V72.4607Z" fill="black"/>
<path d="M110.509 72.4607H106.705V76.2656H110.509V72.4607Z" fill="black"/>
<path d="M114.315 72.4607H110.51V76.2656H114.315V72.4607Z" fill="black"/>
<path d="M121.924 72.4607H118.119V76.2656H121.924V72.4607Z" fill="black"/>
<path d="M125.729 72.4607H121.924V76.2656H125.729V72.4607Z" fill="black"/>
<path d="M133.339 72.4607H129.534V76.2656H133.339V72.4607Z" fill="black"/>
<path d="M137.144 72.4607H133.339V76.2656H137.144V72.4607Z" fill="black"/>
<path d="M144.754 72.4607H140.949V76.2656H144.754V72.4607Z" fill="black"/>
<path d="M152.363 72.4607H148.559V76.2656H152.363V72.4607Z" fill="black"/>
<path d="M156.168 72.4607H152.363V76.2656H156.168V72.4607Z" fill="black"/>
<path d="M159.973 72.4607H156.168V76.2656H159.973V72.4607Z" fill="black"/>
<path d="M22.9973 76.2656H19.1924V80.0705H22.9973V76.2656Z" fill="black"/>
<path d="M34.4118 76.2656H30.6069V80.0705H34.4118V76.2656Z" fill="black"/>
<path d="M45.8269 76.2656H42.022V80.0705H45.8269V76.2656Z" fill="black"/>
<path d="M49.6315 76.2656H45.8267V80.0705H49.6315V76.2656Z" fill="black"/>
<path d="M53.4362 76.2656H49.6313V80.0705H53.4362V76.2656Z" fill="black"/>
<path d="M61.0461 76.2656H57.2412V80.0705H61.0461V76.2656Z" fill="black"/>
<path d="M68.656 76.2656H64.8511V80.0705H68.656V76.2656Z" fill="black"/>
<path d="M72.4606 76.2656H68.6558V80.0705H72.4606V76.2656Z" fill="black"/>
<path d="M80.0705 76.2656H76.2656V80.0705H80.0705V76.2656Z" fill="black"/>
<path d="M87.6804 76.2656H83.8755V80.0705H87.6804V76.2656Z" fill="black"/>
<path d="M95.2902 76.2656H91.4854V80.0705H95.2902V76.2656Z" fill="black"/>
<path d="M114.315 76.2656H110.51V80.0705H114.315V76.2656Z" fill="black"/>
<path d="M118.119 76.2656H114.314V80.0705H118.119V76.2656Z" fill="black"/>
<path d="M121.924 76.2656H118.119V80.0705H121.924V76.2656Z" fill="black"/>
<path d="M137.144 76.2656H133.339V80.0705H137.144V76.2656Z" fill="black"/>
<path d="M148.558 76.2656H144.753V80.0705H148.558V76.2656Z" fill="black"/>
<path d="M152.363 76.2656H148.559V80.0705H152.363V76.2656Z" fill="black"/>
<path d="M15.3874 80.0706H11.5825V83.8754H15.3874V80.0706Z" fill="black"/>
<path d="M19.1926 80.0706H15.3877V83.8754H19.1926V80.0706Z" fill="black"/>
<path d="M45.8269 80.0706H42.022V83.8754H45.8269V80.0706Z" fill="black"/>
<path d="M49.6315 80.0706H45.8267V83.8754H49.6315V80.0706Z" fill="black"/>
<path d="M57.2414 80.0706H53.4365V83.8754H57.2414V80.0706Z" fill="black"/>
<path d="M64.8508 80.0706H61.0459V83.8754H64.8508V80.0706Z" fill="black"/>
<path d="M68.656 80.0706H64.8511V83.8754H68.656V80.0706Z" fill="black"/>
<path d="M72.4606 80.0706H68.6558V83.8754H72.4606V80.0706Z" fill="black"/>
<path d="M76.2658 80.0706H72.4609V83.8754H76.2658V80.0706Z" fill="black"/>
<path d="M80.0705 80.0706H76.2656V83.8754H80.0705V80.0706Z" fill="black"/>
<path d="M83.8752 80.0706H80.0703V83.8754H83.8752V80.0706Z" fill="black"/>
<path d="M91.4851 80.0706H87.6802V83.8754H91.4851V80.0706Z" fill="black"/>
<path d="M99.0949 80.0706H95.29V83.8754H99.0949V80.0706Z" fill="black"/>
<path d="M102.9 80.0706H99.0947V83.8754H102.9V80.0706Z" fill="black"/>
<path d="M118.119 80.0706H114.314V83.8754H118.119V80.0706Z" fill="black"/>
<path d="M129.534 80.0706H125.729V83.8754H129.534V80.0706Z" fill="black"/>
<path d="M144.754 80.0706H140.949V83.8754H144.754V80.0706Z" fill="black"/>
<path d="M152.363 80.0706H148.559V83.8754H152.363V80.0706Z" fill="black"/>
<path d="M156.168 80.0706H152.363V83.8754H156.168V80.0706Z" fill="black"/>
<path d="M159.973 80.0706H156.168V83.8754H159.973V80.0706Z" fill="black"/>
<path d="M163.778 80.0706H159.973V83.8754H163.778V80.0706Z" fill="black"/>
<path d="M15.3874 83.8755H11.5825V87.6804H15.3874V83.8755Z" fill="black"/>
<path d="M19.1926 83.8755H15.3877V87.6804H19.1926V83.8755Z" fill="black"/>
<path d="M22.9973 83.8755H19.1924V87.6804H22.9973V83.8755Z" fill="black"/>
<path d="M30.6071 83.8755H26.8022V87.6804H30.6071V83.8755Z" fill="black"/>
<path d="M34.4118 83.8755H30.6069V87.6804H34.4118V83.8755Z" fill="black"/>
<path d="M38.217 83.8755H34.4121V87.6804H38.217V83.8755Z" fill="black"/>
<path d="M61.0461 83.8755H57.2412V87.6804H61.0461V83.8755Z" fill="black"/>
<path d="M64.8508 83.8755H61.0459V87.6804H64.8508V83.8755Z" fill="black"/>
<path d="M68.656 83.8755H64.8511V87.6804H68.656V83.8755Z" fill="black"/>
<path d="M87.6804 83.8755H83.8755V87.6804H87.6804V83.8755Z" fill="black"/>
<path d="M99.0949 83.8755H95.29V87.6804H99.0949V83.8755Z" fill="black"/>
<path d="M106.705 83.8755H102.9V87.6804H106.705V83.8755Z" fill="black"/>
<path d="M118.119 83.8755H114.314V87.6804H118.119V83.8755Z" fill="black"/>
<path d="M125.729 83.8755H121.924V87.6804H125.729V83.8755Z" fill="black"/>
<path d="M129.534 83.8755H125.729V87.6804H129.534V83.8755Z" fill="black"/>
<path d="M137.144 83.8755H133.339V87.6804H137.144V83.8755Z" fill="black"/>
<path d="M140.948 83.8755H137.144V87.6804H140.948V83.8755Z" fill="black"/>
<path d="M144.754 83.8755H140.949V87.6804H144.754V83.8755Z" fill="black"/>
<path d="M152.363 83.8755H148.559V87.6804H152.363V83.8755Z" fill="black"/>
<path d="M156.168 83.8755H152.363V87.6804H156.168V83.8755Z" fill="black"/>
<path d="M159.973 83.8755H156.168V87.6804H159.973V83.8755Z" fill="black"/>
<path d="M11.5827 87.6802H7.77783V91.4851H11.5827V87.6802Z" fill="black"/>
<path d="M15.3874 87.6802H11.5825V91.4851H15.3874V87.6802Z" fill="black"/>
<path d="M19.1926 87.6802H15.3877V91.4851H19.1926V87.6802Z" fill="black"/>
<path d="M26.8024 87.6802H22.9976V91.4851H26.8024V87.6802Z" fill="black"/>
<path d="M30.6071 87.6802H26.8022V91.4851H30.6071V87.6802Z" fill="black"/>
<path d="M45.8269 87.6802H42.022V91.4851H45.8269V87.6802Z" fill="black"/>
<path d="M57.2414 87.6802H53.4365V91.4851H57.2414V87.6802Z" fill="black"/>
<path d="M61.0461 87.6802H57.2412V91.4851H61.0461V87.6802Z" fill="black"/>
<path d="M64.8508 87.6802H61.0459V91.4851H64.8508V87.6802Z" fill="black"/>
<path d="M68.656 87.6802H64.8511V91.4851H68.656V87.6802Z" fill="black"/>
<path d="M83.8752 87.6802H80.0703V91.4851H83.8752V87.6802Z" fill="black"/>
<path d="M87.6804 87.6802H83.8755V91.4851H87.6804V87.6802Z" fill="black"/>
<path d="M99.0949 87.6802H95.29V91.4851H99.0949V87.6802Z" fill="black"/>
<path d="M106.705 87.6802H102.9V91.4851H106.705V87.6802Z" fill="black"/>
<path d="M110.509 87.6802H106.705V91.4851H110.509V87.6802Z" fill="black"/>
<path d="M118.119 87.6802H114.314V91.4851H118.119V87.6802Z" fill="black"/>
<path d="M121.924 87.6802H118.119V91.4851H121.924V87.6802Z" fill="black"/>
<path d="M125.729 87.6802H121.924V91.4851H125.729V87.6802Z" fill="black"/>
<path d="M129.534 87.6802H125.729V91.4851H129.534V87.6802Z" fill="black"/>
<path d="M140.948 87.6802H137.144V91.4851H140.948V87.6802Z" fill="black"/>
<path d="M144.754 87.6802H140.949V91.4851H144.754V87.6802Z" fill="black"/>
<path d="M148.558 87.6802H144.753V91.4851H148.558V87.6802Z" fill="black"/>
<path d="M152.363 87.6802H148.559V91.4851H152.363V87.6802Z" fill="black"/>
<path d="M156.168 87.6802H152.363V91.4851H156.168V87.6802Z" fill="black"/>
<path d="M159.973 87.6802H156.168V91.4851H159.973V87.6802Z" fill="black"/>
<path d="M163.778 87.6802H159.973V91.4851H163.778V87.6802Z" fill="black"/>
<path d="M22.9973 91.4851H19.1924V95.29H22.9973V91.4851Z" fill="black"/>
<path d="M30.6071 91.4851H26.8022V95.29H30.6071V91.4851Z" fill="black"/>
<path d="M34.4118 91.4851H30.6069V95.29H34.4118V91.4851Z" fill="black"/>
<path d="M38.217 91.4851H34.4121V95.29H38.217V91.4851Z" fill="black"/>
<path d="M45.8269 91.4851H42.022V95.29H45.8269V91.4851Z" fill="black"/>
<path d="M49.6315 91.4851H45.8267V95.29H49.6315V91.4851Z" fill="black"/>
<path d="M53.4362 91.4851H49.6313V95.29H53.4362V91.4851Z" fill="black"/>
<path d="M64.8508 91.4851H61.0459V95.29H64.8508V91.4851Z" fill="black"/>
<path d="M72.4606 91.4851H68.6558V95.29H72.4606V91.4851Z" fill="black"/>
<path d="M87.6804 91.4851H83.8755V95.29H87.6804V91.4851Z" fill="black"/>
<path d="M91.4851 91.4851H87.6802V95.29H91.4851V91.4851Z" fill="black"/>
<path d="M95.2902 91.4851H91.4854V95.29H95.2902V91.4851Z" fill="black"/>
<path d="M99.0949 91.4851H95.29V95.29H99.0949V91.4851Z" fill="black"/>
<path d="M102.9 91.4851H99.0947V95.29H102.9V91.4851Z" fill="black"/>
<path d="M106.705 91.4851H102.9V95.29H106.705V91.4851Z" fill="black"/>
<path d="M118.119 91.4851H114.314V95.29H118.119V91.4851Z" fill="black"/>
<path d="M121.924 91.4851H118.119V95.29H121.924V91.4851Z" fill="black"/>
<path d="M125.729 91.4851H121.924V95.29H125.729V91.4851Z" fill="black"/>
<path d="M140.948 91.4851H137.144V95.29H140.948V91.4851Z" fill="black"/>
<path d="M144.754 91.4851H140.949V95.29H144.754V91.4851Z" fill="black"/>
<path d="M148.558 91.4851H144.753V95.29H148.558V91.4851Z" fill="black"/>
<path d="M152.363 91.4851H148.559V95.29H152.363V91.4851Z" fill="black"/>
<path d="M156.168 91.4851H152.363V95.29H156.168V91.4851Z" fill="black"/>
<path d="M159.973 91.4851H156.168V95.29H159.973V91.4851Z" fill="black"/>
<path d="M11.5827 95.29H7.77783V99.0949H11.5827V95.29Z" fill="black"/>
<path d="M15.3874 95.29H11.5825V99.0949H15.3874V95.29Z" fill="black"/>
<path d="M22.9973 95.29H19.1924V99.0949H22.9973V95.29Z" fill="black"/>
<path d="M26.8024 95.29H22.9976V99.0949H26.8024V95.29Z" fill="black"/>
<path d="M38.217 95.29H34.4121V99.0949H38.217V95.29Z" fill="black"/>
<path d="M57.2414 95.29H53.4365V99.0949H57.2414V95.29Z" fill="black"/>
<path d="M72.4606 95.29H68.6558V99.0949H72.4606V95.29Z" fill="black"/>
<path d="M80.0705 95.29H76.2656V99.0949H80.0705V95.29Z" fill="black"/>
<path d="M87.6804 95.29H83.8755V99.0949H87.6804V95.29Z" fill="black"/>
<path d="M95.2902 95.29H91.4854V99.0949H95.2902V95.29Z" fill="black"/>
<path d="M106.705 95.29H102.9V99.0949H106.705V95.29Z" fill="black"/>
<path d="M110.509 95.29H106.705V99.0949H110.509V95.29Z" fill="black"/>
<path d="M118.119 95.29H114.314V99.0949H118.119V95.29Z" fill="black"/>
<path d="M137.144 95.29H133.339V99.0949H137.144V95.29Z" fill="black"/>
<path d="M144.754 95.29H140.949V99.0949H144.754V95.29Z" fill="black"/>
<path d="M148.558 95.29H144.753V99.0949H148.558V95.29Z" fill="black"/>
<path d="M159.973 95.29H156.168V99.0949H159.973V95.29Z" fill="black"/>
<path d="M11.5827 99.095H7.77783V102.9H11.5827V99.095Z" fill="black"/>
<path d="M15.3874 99.095H11.5825V102.9H15.3874V99.095Z" fill="black"/>
<path d="M19.1926 99.095H15.3877V102.9H19.1926V99.095Z" fill="black"/>
<path d="M22.9973 99.095H19.1924V102.9H22.9973V99.095Z" fill="black"/>
<path d="M30.6071 99.095H26.8022V102.9H30.6071V99.095Z" fill="black"/>
<path d="M34.4118 99.095H30.6069V102.9H34.4118V99.095Z" fill="black"/>
<path d="M57.2414 99.095H53.4365V102.9H57.2414V99.095Z" fill="black"/>
<path d="M72.4606 99.095H68.6558V102.9H72.4606V99.095Z" fill="black"/>
<path d="M76.2658 99.095H72.4609V102.9H76.2658V99.095Z" fill="black"/>
<path d="M83.8752 99.095H80.0703V102.9H83.8752V99.095Z" fill="black"/>
<path d="M95.2902 99.095H91.4854V102.9H95.2902V99.095Z" fill="black"/>
<path d="M99.0949 99.095H95.29V102.9H99.0949V99.095Z" fill="black"/>
<path d="M102.9 99.095H99.0947V102.9H102.9V99.095Z" fill="black"/>
<path d="M106.705 99.095H102.9V102.9H106.705V99.095Z" fill="black"/>
<path d="M110.509 99.095H106.705V102.9H110.509V99.095Z" fill="black"/>
<path d="M114.315 99.095H110.51V102.9H114.315V99.095Z" fill="black"/>
<path d="M121.924 99.095H118.119V102.9H121.924V99.095Z" fill="black"/>
<path d="M137.144 99.095H133.339V102.9H137.144V99.095Z" fill="black"/>
<path d="M156.168 99.095H152.363V102.9H156.168V99.095Z" fill="black"/>
<path d="M11.5827 102.9H7.77783V106.705H11.5827V102.9Z" fill="black"/>
<path d="M61.0461 102.9H57.2412V106.705H61.0461V102.9Z" fill="black"/>
<path d="M64.8508 102.9H61.0459V106.705H64.8508V102.9Z" fill="black"/>
<path d="M68.656 102.9H64.8511V106.705H68.656V102.9Z" fill="black"/>
<path d="M72.4606 102.9H68.6558V106.705H72.4606V102.9Z" fill="black"/>
<path d="M80.0705 102.9H76.2656V106.705H80.0705V102.9Z" fill="black"/>
<path d="M83.8752 102.9H80.0703V106.705H83.8752V102.9Z" fill="black"/>
<path d="M91.4851 102.9H87.6802V106.705H91.4851V102.9Z" fill="black"/>
<path d="M102.9 102.9H99.0947V106.705H102.9V102.9Z" fill="black"/>
<path d="M110.509 102.9H106.705V106.705H110.509V102.9Z" fill="black"/>
<path d="M114.315 102.9H110.51V106.705H114.315V102.9Z" fill="black"/>
<path d="M121.924 102.9H118.119V106.705H121.924V102.9Z" fill="black"/>
<path d="M129.534 102.9H125.729V106.705H129.534V102.9Z" fill="black"/>
<path d="M133.339 102.9H129.534V106.705H133.339V102.9Z" fill="black"/>
<path d="M140.948 102.9H137.144V106.705H140.948V102.9Z" fill="black"/>
<path d="M152.363 102.9H148.559V106.705H152.363V102.9Z" fill="black"/>
<path d="M156.168 102.9H152.363V106.705H156.168V102.9Z" fill="black"/>
<path d="M163.778 102.9H159.973V106.705H163.778V102.9Z" fill="black"/>
<path d="M15.3874 106.705H11.5825V110.509H15.3874V106.705Z" fill="black"/>
<path d="M26.8024 106.705H22.9976V110.509H26.8024V106.705Z" fill="black"/>
<path d="M30.6071 106.705H26.8022V110.509H30.6071V106.705Z" fill="black"/>
<path d="M34.4118 106.705H30.6069V110.509H34.4118V106.705Z" fill="black"/>
<path d="M45.8269 106.705H42.022V110.509H45.8269V106.705Z" fill="black"/>
<path d="M49.6315 106.705H45.8267V110.509H49.6315V106.705Z" fill="black"/>
<path d="M53.4362 106.705H49.6313V110.509H53.4362V106.705Z" fill="black"/>
<path d="M57.2414 106.705H53.4365V110.509H57.2414V106.705Z" fill="black"/>
<path d="M61.0461 106.705H57.2412V110.509H61.0461V106.705Z" fill="black"/>
<path d="M68.656 106.705H64.8511V110.509H68.656V106.705Z" fill="black"/>
<path d="M80.0705 106.705H76.2656V110.509H80.0705V106.705Z" fill="black"/>
<path d="M83.8752 106.705H80.0703V110.509H83.8752V106.705Z" fill="black"/>
<path d="M87.6804 106.705H83.8755V110.509H87.6804V106.705Z" fill="black"/>
<path d="M102.9 106.705H99.0947V110.509H102.9V106.705Z" fill="black"/>
<path d="M125.729 106.705H121.924V110.509H125.729V106.705Z" fill="black"/>
<path d="M129.534 106.705H125.729V110.509H129.534V106.705Z" fill="black"/>
<path d="M133.339 106.705H129.534V110.509H133.339V106.705Z" fill="black"/>
<path d="M137.144 106.705H133.339V110.509H137.144V106.705Z" fill="black"/>
<path d="M140.948 106.705H137.144V110.509H140.948V106.705Z" fill="black"/>
<path d="M144.754 106.705H140.949V110.509H144.754V106.705Z" fill="black"/>
<path d="M148.558 106.705H144.753V110.509H148.558V106.705Z" fill="black"/>
<path d="M152.363 106.705H148.559V110.509H152.363V106.705Z" fill="black"/>
<path d="M159.973 106.705H156.168V110.509H159.973V106.705Z" fill="black"/>
<path d="M163.778 106.705H159.973V110.509H163.778V106.705Z" fill="black"/>
<path d="M19.1926 110.51H15.3877V114.314H19.1926V110.51Z" fill="black"/>
<path d="M22.9973 110.51H19.1924V114.314H22.9973V110.51Z" fill="black"/>
<path d="M30.6071 110.51H26.8022V114.314H30.6071V110.51Z" fill="black"/>
<path d="M38.217 110.51H34.4121V114.314H38.217V110.51Z" fill="black"/>
<path d="M42.0217 110.51H38.2168V114.314H42.0217V110.51Z" fill="black"/>
<path d="M53.4362 110.51H49.6313V114.314H53.4362V110.51Z" fill="black"/>
<path d="M57.2414 110.51H53.4365V114.314H57.2414V110.51Z" fill="black"/>
<path d="M61.0461 110.51H57.2412V114.314H61.0461V110.51Z" fill="black"/>
<path d="M68.656 110.51H64.8511V114.314H68.656V110.51Z" fill="black"/>
<path d="M72.4606 110.51H68.6558V114.314H72.4606V110.51Z" fill="black"/>
<path d="M83.8752 110.51H80.0703V114.314H83.8752V110.51Z" fill="black"/>
<path d="M87.6804 110.51H83.8755V114.314H87.6804V110.51Z" fill="black"/>
<path d="M91.4851 110.51H87.6802V114.314H91.4851V110.51Z" fill="black"/>
<path d="M95.2902 110.51H91.4854V114.314H95.2902V110.51Z" fill="black"/>
<path d="M99.0949 110.51H95.29V114.314H99.0949V110.51Z" fill="black"/>
<path d="M110.509 110.51H106.705V114.314H110.509V110.51Z" fill="black"/>
<path d="M114.315 110.51H110.51V114.314H114.315V110.51Z" fill="black"/>
<path d="M129.534 110.51H125.729V114.314H129.534V110.51Z" fill="black"/>
<path d="M133.339 110.51H129.534V114.314H133.339V110.51Z" fill="black"/>
<path d="M144.754 110.51H140.949V114.314H144.754V110.51Z" fill="black"/>
<path d="M152.363 110.51H148.559V114.314H152.363V110.51Z" fill="black"/>
<path d="M159.973 110.51H156.168V114.314H159.973V110.51Z" fill="black"/>
<path d="M11.5827 114.314H7.77783V118.119H11.5827V114.314Z" fill="black"/>
<path d="M15.3874 114.314H11.5825V118.119H15.3874V114.314Z" fill="black"/>
<path d="M26.8024 114.314H22.9976V118.119H26.8024V114.314Z" fill="black"/>
<path d="M34.4118 114.314H30.6069V118.119H34.4118V114.314Z" fill="black"/>
<path d="M61.0461 114.314H57.2412V118.119H61.0461V114.314Z" fill="black"/>
<path d="M68.656 114.314H64.8511V118.119H68.656V114.314Z" fill="black"/>
<path d="M72.4606 114.314H68.6558V118.119H72.4606V114.314Z" fill="black"/>
<path d="M80.0705 114.314H76.2656V118.119H80.0705V114.314Z" fill="black"/>
<path d="M83.8752 114.314H80.0703V118.119H83.8752V114.314Z" fill="black"/>
<path d="M87.6804 114.314H83.8755V118.119H87.6804V114.314Z" fill="black"/>
<path d="M91.4851 114.314H87.6802V118.119H91.4851V114.314Z" fill="black"/>
<path d="M95.2902 114.314H91.4854V118.119H95.2902V114.314Z" fill="black"/>
<path d="M99.0949 114.314H95.29V118.119H99.0949V114.314Z" fill="black"/>
<path d="M102.9 114.314H99.0947V118.119H102.9V114.314Z" fill="black"/>
<path d="M106.705 114.314H102.9V118.119H106.705V114.314Z" fill="black"/>
<path d="M110.509 114.314H106.705V118.119H110.509V114.314Z" fill="black"/>
<path d="M114.315 114.314H110.51V118.119H114.315V114.314Z" fill="black"/>
<path d="M125.729 114.314H121.924V118.119H125.729V114.314Z" fill="black"/>
<path d="M129.534 114.314H125.729V118.119H129.534V114.314Z" fill="black"/>
<path d="M133.339 114.314H129.534V118.119H133.339V114.314Z" fill="black"/>
<path d="M137.144 114.314H133.339V118.119H137.144V114.314Z" fill="black"/>
<path d="M144.754 114.314H140.949V118.119H144.754V114.314Z" fill="black"/>
<path d="M148.558 114.314H144.753V118.119H148.558V114.314Z" fill="black"/>
<path d="M152.363 114.314H148.559V118.119H152.363V114.314Z" fill="black"/>
<path d="M163.778 114.314H159.973V118.119H163.778V114.314Z" fill="black"/>
<path d="M42.0217 118.119H38.2168V121.924H42.0217V118.119Z" fill="black"/>
<path d="M45.8269 118.119H42.022V121.924H45.8269V118.119Z" fill="black"/>
<path d="M49.6315 118.119H45.8267V121.924H49.6315V118.119Z" fill="black"/>
<path d="M57.2414 118.119H53.4365V121.924H57.2414V118.119Z" fill="black"/>
<path d="M61.0461 118.119H57.2412V121.924H61.0461V118.119Z" fill="black"/>
<path d="M68.656 118.119H64.8511V121.924H68.656V118.119Z" fill="black"/>
<path d="M72.4606 118.119H68.6558V121.924H72.4606V118.119Z" fill="black"/>
<path d="M80.0705 118.119H76.2656V121.924H80.0705V118.119Z" fill="black"/>
<path d="M83.8752 118.119H80.0703V121.924H83.8752V118.119Z" fill="black"/>
<path d="M87.6804 118.119H83.8755V121.924H87.6804V118.119Z" fill="black"/>
<path d="M91.4851 118.119H87.6802V121.924H91.4851V118.119Z" fill="black"/>
<path d="M95.2902 118.119H91.4854V121.924H95.2902V118.119Z" fill="black"/>
<path d="M106.705 118.119H102.9V121.924H106.705V118.119Z" fill="black"/>
<path d="M110.509 118.119H106.705V121.924H110.509V118.119Z" fill="black"/>
<path d="M125.729 118.119H121.924V121.924H125.729V118.119Z" fill="black"/>
<path d="M129.534 118.119H125.729V121.924H129.534V118.119Z" fill="black"/>
<path d="M137.144 118.119H133.339V121.924H137.144V118.119Z" fill="black"/>
<path d="M140.948 118.119H137.144V121.924H140.948V118.119Z" fill="black"/>
<path d="M144.754 118.119H140.949V121.924H144.754V118.119Z" fill="black"/>
<path d="M11.5827 121.924H7.77783V125.729H11.5827V121.924Z" fill="black"/>
<path d="M34.4118 121.924H30.6069V125.729H34.4118V121.924Z" fill="black"/>
<path d="M38.217 121.924H34.4121V125.729H38.217V121.924Z" fill="black"/>
<path d="M42.0217 121.924H38.2168V125.729H42.0217V121.924Z" fill="black"/>
<path d="M45.8269 121.924H42.022V125.729H45.8269V121.924Z" fill="black"/>
<path d="M57.2414 121.924H53.4365V125.729H57.2414V121.924Z" fill="black"/>
<path d="M64.8508 121.924H61.0459V125.729H64.8508V121.924Z" fill="black"/>
<path d="M76.2658 121.924H72.4609V125.729H76.2658V121.924Z" fill="black"/>
<path d="M83.8752 121.924H80.0703V125.729H83.8752V121.924Z" fill="black"/>
<path d="M91.4851 121.924H87.6802V125.729H91.4851V121.924Z" fill="black"/>
<path d="M106.705 121.924H102.9V125.729H106.705V121.924Z" fill="black"/>
<path d="M133.339 121.924H129.534V125.729H133.339V121.924Z" fill="black"/>
<path d="M137.144 121.924H133.339V125.729H137.144V121.924Z" fill="black"/>
<path d="M140.948 121.924H137.144V125.729H140.948V121.924Z" fill="black"/>
<path d="M144.754 121.924H140.949V125.729H144.754V121.924Z" fill="black"/>
<path d="M152.363 121.924H148.559V125.729H152.363V121.924Z" fill="black"/>
<path d="M19.1926 125.729H15.3877V129.534H19.1926V125.729Z" fill="black"/>
<path d="M22.9973 125.729H19.1924V129.534H22.9973V125.729Z" fill="black"/>
<path d="M26.8024 125.729H22.9976V129.534H26.8024V125.729Z" fill="black"/>
<path d="M30.6071 125.729H26.8022V129.534H30.6071V125.729Z" fill="black"/>
<path d="M38.217 125.729H34.4121V129.534H38.217V125.729Z" fill="black"/>
<path d="M42.0217 125.729H38.2168V129.534H42.0217V125.729Z" fill="black"/>
<path d="M45.8269 125.729H42.022V129.534H45.8269V125.729Z" fill="black"/>
<path d="M49.6315 125.729H45.8267V129.534H49.6315V125.729Z" fill="black"/>
<path d="M53.4362 125.729H49.6313V129.534H53.4362V125.729Z" fill="black"/>
<path d="M57.2414 125.729H53.4365V129.534H57.2414V125.729Z" fill="black"/>
<path d="M61.0461 125.729H57.2412V129.534H61.0461V125.729Z" fill="black"/>
<path d="M68.656 125.729H64.8511V129.534H68.656V125.729Z" fill="black"/>
<path d="M72.4606 125.729H68.6558V129.534H72.4606V125.729Z" fill="black"/>
<path d="M76.2658 125.729H72.4609V129.534H76.2658V125.729Z" fill="black"/>
<path d="M83.8752 125.729H80.0703V129.534H83.8752V125.729Z" fill="black"/>
<path d="M95.2902 125.729H91.4854V129.534H95.2902V125.729Z" fill="black"/>
<path d="M99.0949 125.729H95.29V129.534H99.0949V125.729Z" fill="black"/>
<path d="M114.315 125.729H110.51V129.534H114.315V125.729Z" fill="black"/>
<path d="M118.119 125.729H114.314V129.534H118.119V125.729Z" fill="black"/>
<path d="M121.924 125.729H118.119V129.534H121.924V125.729Z" fill="black"/>
<path d="M129.534 125.729H125.729V129.534H129.534V125.729Z" fill="black"/>
<path d="M133.339 125.729H129.534V129.534H133.339V125.729Z" fill="black"/>
<path d="M140.948 125.729H137.144V129.534H140.948V125.729Z" fill="black"/>
<path d="M148.558 125.729H144.753V129.534H148.558V125.729Z" fill="black"/>
<path d="M156.168 125.729H152.363V129.534H156.168V125.729Z" fill="black"/>
<path d="M15.3874 129.534H11.5825V133.339H15.3874V129.534Z" fill="black"/>
<path d="M26.8024 129.534H22.9976V133.339H26.8024V129.534Z" fill="black"/>
<path d="M34.4118 129.534H30.6069V133.339H34.4118V129.534Z" fill="black"/>
<path d="M49.6315 129.534H45.8267V133.339H49.6315V129.534Z" fill="black"/>
<path d="M53.4362 129.534H49.6313V133.339H53.4362V129.534Z" fill="black"/>
<path d="M57.2414 129.534H53.4365V133.339H57.2414V129.534Z" fill="black"/>
<path d="M64.8508 129.534H61.0459V133.339H64.8508V129.534Z" fill="black"/>
<path d="M72.4606 129.534H68.6558V133.339H72.4606V129.534Z" fill="black"/>
<path d="M76.2658 129.534H72.4609V133.339H76.2658V129.534Z" fill="black"/>
<path d="M80.0705 129.534H76.2656V133.339H80.0705V129.534Z" fill="black"/>
<path d="M91.4851 129.534H87.6802V133.339H91.4851V129.534Z" fill="black"/>
<path d="M110.509 129.534H106.705V133.339H110.509V129.534Z" fill="black"/>
<path d="M114.315 129.534H110.51V133.339H114.315V129.534Z" fill="black"/>
<path d="M118.119 129.534H114.314V133.339H118.119V129.534Z" fill="black"/>
<path d="M121.924 129.534H118.119V133.339H121.924V129.534Z" fill="black"/>
<path d="M125.729 129.534H121.924V133.339H125.729V129.534Z" fill="black"/>
<path d="M129.534 129.534H125.729V133.339H129.534V129.534Z" fill="black"/>
<path d="M133.339 129.534H129.534V133.339H133.339V129.534Z" fill="black"/>
<path d="M137.144 129.534H133.339V133.339H137.144V129.534Z" fill="black"/>
<path d="M140.948 129.534H137.144V133.339H140.948V129.534Z" fill="black"/>
<path d="M144.754 129.534H140.949V133.339H144.754V129.534Z" fill="black"/>
<path d="M148.558 129.534H144.753V133.339H148.558V129.534Z" fill="black"/>
<path d="M152.363 129.534H148.559V133.339H152.363V129.534Z" fill="black"/>
<path d="M156.168 129.534H152.363V133.339H156.168V129.534Z" fill="black"/>
<path d="M163.778 129.534H159.973V133.339H163.778V129.534Z" fill="black"/>
<path d="M42.0217 133.339H38.2168V137.144H42.0217V133.339Z" fill="black"/>
<path d="M49.6315 133.339H45.8267V137.144H49.6315V133.339Z" fill="black"/>
<path d="M53.4362 133.339H49.6313V137.144H53.4362V133.339Z" fill="black"/>
<path d="M57.2414 133.339H53.4365V137.144H57.2414V133.339Z" fill="black"/>
<path d="M61.0461 133.339H57.2412V137.144H61.0461V133.339Z" fill="black"/>
<path d="M64.8508 133.339H61.0459V137.144H64.8508V133.339Z" fill="black"/>
<path d="M76.2658 133.339H72.4609V137.144H76.2658V133.339Z" fill="black"/>
<path d="M80.0705 133.339H76.2656V137.144H80.0705V133.339Z" fill="black"/>
<path d="M83.8752 133.339H80.0703V137.144H83.8752V133.339Z" fill="black"/>
<path d="M87.6804 133.339H83.8755V137.144H87.6804V133.339Z" fill="black"/>
<path d="M91.4851 133.339H87.6802V137.144H91.4851V133.339Z" fill="black"/>
<path d="M99.0949 133.339H95.29V137.144H99.0949V133.339Z" fill="black"/>
<path d="M106.705 133.339H102.9V137.144H106.705V133.339Z" fill="black"/>
<path d="M118.119 133.339H114.314V137.144H118.119V133.339Z" fill="black"/>
<path d="M133.339 133.339H129.534V137.144H133.339V133.339Z" fill="black"/>
<path d="M148.558 133.339H144.753V137.144H148.558V133.339Z" fill="black"/>
<path d="M159.973 133.339H156.168V137.144H159.973V133.339Z" fill="black"/>
<path d="M163.778 133.339H159.973V137.144H163.778V133.339Z" fill="black"/>
<path d="M42.0217 137.144H38.2168V140.948H42.0217V137.144Z" fill="black"/>
<path d="M45.8269 137.144H42.022V140.948H45.8269V137.144Z" fill="black"/>
<path d="M49.6315 137.144H45.8267V140.948H49.6315V137.144Z" fill="black"/>
<path d="M57.2414 137.144H53.4365V140.948H57.2414V137.144Z" fill="black"/>
<path d="M61.0461 137.144H57.2412V140.948H61.0461V137.144Z" fill="black"/>
<path d="M64.8508 137.144H61.0459V140.948H64.8508V137.144Z" fill="black"/>
<path d="M68.656 137.144H64.8511V140.948H68.656V137.144Z" fill="black"/>
<path d="M80.0705 137.144H76.2656V140.948H80.0705V137.144Z" fill="black"/>
<path d="M87.6804 137.144H83.8755V140.948H87.6804V137.144Z" fill="black"/>
<path d="M99.0949 137.144H95.29V140.948H99.0949V137.144Z" fill="black"/>
<path d="M102.9 137.144H99.0947V140.948H102.9V137.144Z" fill="black"/>
<path d="M106.705 137.144H102.9V140.948H106.705V137.144Z" fill="black"/>
<path d="M121.924 137.144H118.119V140.948H121.924V137.144Z" fill="black"/>
<path d="M129.534 137.144H125.729V140.948H129.534V137.144Z" fill="black"/>
<path d="M133.339 137.144H129.534V140.948H133.339V137.144Z" fill="black"/>
<path d="M140.948 137.144H137.144V140.948H140.948V137.144Z" fill="black"/>
<path d="M148.558 137.144H144.753V140.948H148.558V137.144Z" fill="black"/>
<path d="M159.973 137.144H156.168V140.948H159.973V137.144Z" fill="black"/>
<path d="M42.0217 140.948H38.2168V144.753H42.0217V140.948Z" fill="black"/>
<path d="M45.8269 140.948H42.022V144.753H45.8269V140.948Z" fill="black"/>
<path d="M49.6315 140.948H45.8267V144.753H49.6315V140.948Z" fill="black"/>
<path d="M57.2414 140.948H53.4365V144.753H57.2414V140.948Z" fill="black"/>
<path d="M61.0461 140.948H57.2412V144.753H61.0461V140.948Z" fill="black"/>
<path d="M64.8508 140.948H61.0459V144.753H64.8508V140.948Z" fill="black"/>
<path d="M68.656 140.948H64.8511V144.753H68.656V140.948Z" fill="black"/>
<path d="M72.4606 140.948H68.6558V144.753H72.4606V140.948Z" fill="black"/>
<path d="M76.2658 140.948H72.4609V144.753H76.2658V140.948Z" fill="black"/>
<path d="M125.729 140.948H121.924V144.753H125.729V140.948Z" fill="black"/>
<path d="M133.339 140.948H129.534V144.753H133.339V140.948Z" fill="black"/>
<path d="M148.558 140.948H144.753V144.753H148.558V140.948Z" fill="black"/>
<path d="M163.778 140.948H159.973V144.753H163.778V140.948Z" fill="black"/>
<path d="M45.8269 144.753H42.022V148.558H45.8269V144.753Z" fill="black"/>
<path d="M53.4362 144.753H49.6313V148.558H53.4362V144.753Z" fill="black"/>
<path d="M57.2414 144.753H53.4365V148.558H57.2414V144.753Z" fill="black"/>
<path d="M64.8508 144.753H61.0459V148.558H64.8508V144.753Z" fill="black"/>
<path d="M72.4606 144.753H68.6558V148.558H72.4606V144.753Z" fill="black"/>
<path d="M91.4851 144.753H87.6802V148.558H91.4851V144.753Z" fill="black"/>
<path d="M99.0949 144.753H95.29V148.558H99.0949V144.753Z" fill="black"/>
<path d="M102.9 144.753H99.0947V148.558H102.9V144.753Z" fill="black"/>
<path d="M110.509 144.753H106.705V148.558H110.509V144.753Z" fill="black"/>
<path d="M114.315 144.753H110.51V148.558H114.315V144.753Z" fill="black"/>
<path d="M125.729 144.753H121.924V148.558H125.729V144.753Z" fill="black"/>
<path d="M133.339 144.753H129.534V148.558H133.339V144.753Z" fill="black"/>
<path d="M137.144 144.753H133.339V148.558H137.144V144.753Z" fill="black"/>
<path d="M140.948 144.753H137.144V148.558H140.948V144.753Z" fill="black"/>
<path d="M144.754 144.753H140.949V148.558H144.754V144.753Z" fill="black"/>
<path d="M148.558 144.753H144.753V148.558H148.558V144.753Z" fill="black"/>
<path d="M156.168 144.753H152.363V148.558H156.168V144.753Z" fill="black"/>
<path d="M42.0217 148.558H38.2168V152.363H42.0217V148.558Z" fill="black"/>
<path d="M45.8269 148.558H42.022V152.363H45.8269V148.558Z" fill="black"/>
<path d="M57.2414 148.558H53.4365V152.363H57.2414V148.558Z" fill="black"/>
<path d="M64.8508 148.558H61.0459V152.363H64.8508V148.558Z" fill="black"/>
<path d="M68.656 148.558H64.8511V152.363H68.656V148.558Z" fill="black"/>
<path d="M76.2658 148.558H72.4609V152.363H76.2658V148.558Z" fill="black"/>
<path d="M83.8752 148.558H80.0703V152.363H83.8752V148.558Z" fill="black"/>
<path d="M87.6804 148.558H83.8755V152.363H87.6804V148.558Z" fill="black"/>
<path d="M95.2902 148.558H91.4854V152.363H95.2902V148.558Z" fill="black"/>
<path d="M102.9 148.558H99.0947V152.363H102.9V148.558Z" fill="black"/>
<path d="M106.705 148.558H102.9V152.363H106.705V148.558Z" fill="black"/>
<path d="M110.509 148.558H106.705V152.363H110.509V148.558Z" fill="black"/>
<path d="M114.315 148.558H110.51V152.363H114.315V148.558Z" fill="black"/>
<path d="M118.119 148.558H114.314V152.363H118.119V148.558Z" fill="black"/>
<path d="M121.924 148.558H118.119V152.363H121.924V148.558Z" fill="black"/>
<path d="M125.729 148.558H121.924V152.363H125.729V148.558Z" fill="black"/>
<path d="M148.558 148.558H144.753V152.363H148.558V148.558Z" fill="black"/>
<path d="M152.363 148.558H148.559V152.363H152.363V148.558Z" fill="black"/>
<path d="M156.168 148.558H152.363V152.363H156.168V148.558Z" fill="black"/>
<path d="M159.973 148.558H156.168V152.363H159.973V148.558Z" fill="black"/>
<path d="M42.0217 152.363H38.2168V156.168H42.0217V152.363Z" fill="black"/>
<path d="M45.8269 152.363H42.022V156.168H45.8269V152.363Z" fill="black"/>
<path d="M49.6315 152.363H45.8267V156.168H49.6315V152.363Z" fill="black"/>
<path d="M57.2414 152.363H53.4365V156.168H57.2414V152.363Z" fill="black"/>
<path d="M61.0461 152.363H57.2412V156.168H61.0461V152.363Z" fill="black"/>
<path d="M68.656 152.363H64.8511V156.168H68.656V152.363Z" fill="black"/>
<path d="M76.2658 152.363H72.4609V156.168H76.2658V152.363Z" fill="black"/>
<path d="M80.0705 152.363H76.2656V156.168H80.0705V152.363Z" fill="black"/>
<path d="M83.8752 152.363H80.0703V156.168H83.8752V152.363Z" fill="black"/>
<path d="M87.6804 152.363H83.8755V156.168H87.6804V152.363Z" fill="black"/>
<path d="M91.4851 152.363H87.6802V156.168H91.4851V152.363Z" fill="black"/>
<path d="M95.2902 152.363H91.4854V156.168H95.2902V152.363Z" fill="black"/>
<path d="M102.9 152.363H99.0947V156.168H102.9V152.363Z" fill="black"/>
<path d="M110.509 152.363H106.705V156.168H110.509V152.363Z" fill="black"/>
<path d="M118.119 152.363H114.314V156.168H118.119V152.363Z" fill="black"/>
<path d="M133.339 152.363H129.534V156.168H133.339V152.363Z" fill="black"/>
<path d="M144.754 152.363H140.949V156.168H144.754V152.363Z" fill="black"/>
<path d="M159.973 152.363H156.168V156.168H159.973V152.363Z" fill="black"/>
<path d="M163.778 152.363H159.973V156.168H163.778V152.363Z" fill="black"/>
<path d="M61.0461 156.168H57.2412V159.973H61.0461V156.168Z" fill="black"/>
<path d="M72.4606 156.168H68.6558V159.973H72.4606V156.168Z" fill="black"/>
<path d="M76.2658 156.168H72.4609V159.973H76.2658V156.168Z" fill="black"/>
<path d="M80.0705 156.168H76.2656V159.973H80.0705V156.168Z" fill="black"/>
<path d="M87.6804 156.168H83.8755V159.973H87.6804V156.168Z" fill="black"/>
<path d="M91.4851 156.168H87.6802V159.973H91.4851V156.168Z" fill="black"/>
<path d="M95.2902 156.168H91.4854V159.973H95.2902V156.168Z" fill="black"/>
<path d="M99.0949 156.168H95.29V159.973H99.0949V156.168Z" fill="black"/>
<path d="M110.509 156.168H106.705V159.973H110.509V156.168Z" fill="black"/>
<path d="M114.315 156.168H110.51V159.973H114.315V156.168Z" fill="black"/>
<path d="M118.119 156.168H114.314V159.973H118.119V156.168Z" fill="black"/>
<path d="M129.534 156.168H125.729V159.973H129.534V156.168Z" fill="black"/>
<path d="M133.339 156.168H129.534V159.973H133.339V156.168Z" fill="black"/>
<path d="M137.144 156.168H133.339V159.973H137.144V156.168Z" fill="black"/>
<path d="M148.558 156.168H144.753V159.973H148.558V156.168Z" fill="black"/>
<path d="M152.363 156.168H148.559V159.973H152.363V156.168Z" fill="black"/>
<path d="M159.973 156.168H156.168V159.973H159.973V156.168Z" fill="black"/>
<path d="M42.0217 159.973H38.2168V163.778H42.0217V159.973Z" fill="black"/>
<path d="M45.8269 159.973H42.022V163.778H45.8269V159.973Z" fill="black"/>
<path d="M53.4362 159.973H49.6313V163.778H53.4362V159.973Z" fill="black"/>
<path d="M57.2414 159.973H53.4365V163.778H57.2414V159.973Z" fill="black"/>
<path d="M61.0461 159.973H57.2412V163.778H61.0461V159.973Z" fill="black"/>
<path d="M68.656 159.973H64.8511V163.778H68.656V159.973Z" fill="black"/>
<path d="M87.6804 159.973H83.8755V163.778H87.6804V159.973Z" fill="black"/>
<path d="M91.4851 159.973H87.6802V163.778H91.4851V159.973Z" fill="black"/>
<path d="M95.2902 159.973H91.4854V163.778H95.2902V159.973Z" fill="black"/>
<path d="M106.705 159.973H102.9V163.778H106.705V159.973Z" fill="black"/>
<path d="M118.119 159.973H114.314V163.778H118.119V159.973Z" fill="black"/>
<path d="M125.729 159.973H121.924V163.778H125.729V159.973Z" fill="black"/>
<path d="M129.534 159.973H125.729V163.778H129.534V159.973Z" fill="black"/>
<path d="M133.339 159.973H129.534V163.778H133.339V159.973Z" fill="black"/>
<path d="M159.973 159.973H156.168V163.778H159.973V159.973Z" fill="black"/>
<path d="M30.4169 7.77783H11.773H7.77783V11.773V30.4169V34.412H11.773H30.4169H34.412V30.4169V11.773V7.77783H30.4169ZM30.4169 30.4169H11.773V11.773H30.4169V30.4169Z" fill="black"/>
<path d="M159.783 7.77783H141.139H137.144V11.773V30.4169V34.412H141.139H159.783H163.778V30.4169V11.773V7.77783H159.783ZM159.783 30.4169H141.139V11.773H159.783V30.4169Z" fill="black"/>
<path d="M30.4169 137.144H11.773H7.77783V141.139V159.783V163.778H11.773H30.4169H34.412V159.783V141.139V137.144H30.4169ZM30.4169 159.783H11.773V141.139H30.4169V159.783Z" fill="black"/>
<path d="M26.8023 15.3877H15.3877V26.8023H26.8023V15.3877Z" fill="black"/>
<path d="M156.168 15.3877H144.753V26.8023H156.168V15.3877Z" fill="black"/>
<path d="M26.8023 144.753H15.3877V156.168H26.8023V144.753Z" fill="black"/>
</g>
<defs>
<clipPath id="clip0_460_1582">
<rect width="175" height="175" fill="white"/>
</clipPath>
</defs>
</svg>
