<svg width="300" height="300" viewBox="0 0 300 300" fill="none" xmlns="http://www.w3.org/2000/svg">
<g clip-path="url(#clip0_461_5877)">
<path d="M300 0H0V300H300V0Z" fill="white"/>
<path d="M74.7038 13.3334H68.1812V19.856H74.7038V13.3334Z" fill="black"/>
<path d="M81.2265 13.3334H74.7039V19.856H81.2265V13.3334Z" fill="black"/>
<path d="M87.7492 13.3334H81.2266V19.856H87.7492V13.3334Z" fill="black"/>
<path d="M113.84 13.3334H107.317V19.856H113.84V13.3334Z" fill="black"/>
<path d="M120.362 13.3334H113.84V19.856H120.362V13.3334Z" fill="black"/>
<path d="M126.885 13.3334H120.362V19.856H126.885V13.3334Z" fill="black"/>
<path d="M133.408 13.3334H126.885V19.856H133.408V13.3334Z" fill="black"/>
<path d="M139.93 13.3334H133.408V19.856H139.93V13.3334Z" fill="black"/>
<path d="M146.453 13.3334H139.93V19.856H146.453V13.3334Z" fill="black"/>
<path d="M152.976 13.3334H146.453V19.856H152.976V13.3334Z" fill="black"/>
<path d="M159.498 13.3334H152.976V19.856H159.498V13.3334Z" fill="black"/>
<path d="M172.544 13.3334H166.021V19.856H172.544V13.3334Z" fill="black"/>
<path d="M185.589 13.3334H179.066V19.856H185.589V13.3334Z" fill="black"/>
<path d="M192.112 13.3334H185.589V19.856H192.112V13.3334Z" fill="black"/>
<path d="M198.634 13.3334H192.111V19.856H198.634V13.3334Z" fill="black"/>
<path d="M205.157 13.3334H198.634V19.856H205.157V13.3334Z" fill="black"/>
<path d="M224.725 13.3334H218.202V19.856H224.725V13.3334Z" fill="black"/>
<path d="M231.247 13.3334H224.725V19.856H231.247V13.3334Z" fill="black"/>
<path d="M74.7038 19.8561H68.1812V26.3787H74.7038V19.8561Z" fill="black"/>
<path d="M81.2265 19.8561H74.7039V26.3787H81.2265V19.8561Z" fill="black"/>
<path d="M94.2719 19.8561H87.7493V26.3787H94.2719V19.8561Z" fill="black"/>
<path d="M113.84 19.8561H107.317V26.3787H113.84V19.8561Z" fill="black"/>
<path d="M126.885 19.8561H120.362V26.3787H126.885V19.8561Z" fill="black"/>
<path d="M139.93 19.8561H133.408V26.3787H139.93V19.8561Z" fill="black"/>
<path d="M172.544 19.8561H166.021V26.3787H172.544V19.8561Z" fill="black"/>
<path d="M185.589 19.8561H179.066V26.3787H185.589V19.8561Z" fill="black"/>
<path d="M211.68 19.8561H205.157V26.3787H211.68V19.8561Z" fill="black"/>
<path d="M231.247 19.8561H224.725V26.3787H231.247V19.8561Z" fill="black"/>
<path d="M81.2265 26.3788H74.7039V32.9014H81.2265V26.3788Z" fill="black"/>
<path d="M94.2719 26.3788H87.7493V32.9014H94.2719V26.3788Z" fill="black"/>
<path d="M120.362 26.3788H113.84V32.9014H120.362V26.3788Z" fill="black"/>
<path d="M133.408 26.3788H126.885V32.9014H133.408V26.3788Z" fill="black"/>
<path d="M152.976 26.3788H146.453V32.9014H152.976V26.3788Z" fill="black"/>
<path d="M198.634 26.3788H192.111V32.9014H198.634V26.3788Z" fill="black"/>
<path d="M205.157 26.3788H198.634V32.9014H205.157V26.3788Z" fill="black"/>
<path d="M218.202 26.3788H211.679V32.9014H218.202V26.3788Z" fill="black"/>
<path d="M224.725 26.3788H218.202V32.9014H224.725V26.3788Z" fill="black"/>
<path d="M231.247 26.3788H224.725V32.9014H231.247V26.3788Z" fill="black"/>
<path d="M74.7038 32.9012H68.1812V39.4239H74.7038V32.9012Z" fill="black"/>
<path d="M87.7492 32.9012H81.2266V39.4239H87.7492V32.9012Z" fill="black"/>
<path d="M94.2719 32.9012H87.7493V39.4239H94.2719V32.9012Z" fill="black"/>
<path d="M107.317 32.9012H100.794V39.4239H107.317V32.9012Z" fill="black"/>
<path d="M120.362 32.9012H113.84V39.4239H120.362V32.9012Z" fill="black"/>
<path d="M146.453 32.9012H139.93V39.4239H146.453V32.9012Z" fill="black"/>
<path d="M159.498 32.9012H152.976V39.4239H159.498V32.9012Z" fill="black"/>
<path d="M192.112 32.9012H185.589V39.4239H192.112V32.9012Z" fill="black"/>
<path d="M198.634 32.9012H192.111V39.4239H198.634V32.9012Z" fill="black"/>
<path d="M218.202 32.9012H211.679V39.4239H218.202V32.9012Z" fill="black"/>
<path d="M224.725 32.9012H218.202V39.4239H224.725V32.9012Z" fill="black"/>
<path d="M100.794 39.424H94.2717V45.9466H100.794V39.424Z" fill="black"/>
<path d="M113.84 39.424H107.317V45.9466H113.84V39.424Z" fill="black"/>
<path d="M120.362 39.424H113.84V45.9466H120.362V39.424Z" fill="black"/>
<path d="M126.885 39.424H120.362V45.9466H126.885V39.424Z" fill="black"/>
<path d="M146.453 39.424H139.93V45.9466H146.453V39.424Z" fill="black"/>
<path d="M166.021 39.424H159.498V45.9466H166.021V39.424Z" fill="black"/>
<path d="M192.112 39.424H185.589V45.9466H192.112V39.424Z" fill="black"/>
<path d="M198.634 39.424H192.111V45.9466H198.634V39.424Z" fill="black"/>
<path d="M205.157 39.424H198.634V45.9466H205.157V39.424Z" fill="black"/>
<path d="M211.68 39.424H205.157V45.9466H211.68V39.424Z" fill="black"/>
<path d="M218.202 39.424H211.679V45.9466H218.202V39.424Z" fill="black"/>
<path d="M224.725 39.424H218.202V45.9466H224.725V39.424Z" fill="black"/>
<path d="M81.2265 45.9467H74.7039V52.4693H81.2265V45.9467Z" fill="black"/>
<path d="M87.7492 45.9467H81.2266V52.4693H87.7492V45.9467Z" fill="black"/>
<path d="M94.2719 45.9467H87.7493V52.4693H94.2719V45.9467Z" fill="black"/>
<path d="M126.885 45.9467H120.362V52.4693H126.885V45.9467Z" fill="black"/>
<path d="M133.408 45.9467H126.885V52.4693H133.408V45.9467Z" fill="black"/>
<path d="M139.93 45.9467H133.408V52.4693H139.93V45.9467Z" fill="black"/>
<path d="M146.453 45.9467H139.93V52.4693H146.453V45.9467Z" fill="black"/>
<path d="M152.976 45.9467H146.453V52.4693H152.976V45.9467Z" fill="black"/>
<path d="M192.112 45.9467H185.589V52.4693H192.112V45.9467Z" fill="black"/>
<path d="M224.725 45.9467H218.202V52.4693H224.725V45.9467Z" fill="black"/>
<path d="M231.247 45.9467H224.725V52.4693H231.247V45.9467Z" fill="black"/>
<path d="M74.7038 52.4694H68.1812V58.992H74.7038V52.4694Z" fill="black"/>
<path d="M87.7492 52.4694H81.2266V58.992H87.7492V52.4694Z" fill="black"/>
<path d="M100.794 52.4694H94.2717V58.992H100.794V52.4694Z" fill="black"/>
<path d="M113.84 52.4694H107.317V58.992H113.84V52.4694Z" fill="black"/>
<path d="M126.885 52.4694H120.362V58.992H126.885V52.4694Z" fill="black"/>
<path d="M139.93 52.4694H133.408V58.992H139.93V52.4694Z" fill="black"/>
<path d="M152.976 52.4694H146.453V58.992H152.976V52.4694Z" fill="black"/>
<path d="M166.021 52.4694H159.498V58.992H166.021V52.4694Z" fill="black"/>
<path d="M179.066 52.4694H172.544V58.992H179.066V52.4694Z" fill="black"/>
<path d="M192.112 52.4694H185.589V58.992H192.112V52.4694Z" fill="black"/>
<path d="M205.157 52.4694H198.634V58.992H205.157V52.4694Z" fill="black"/>
<path d="M218.202 52.4694H211.679V58.992H218.202V52.4694Z" fill="black"/>
<path d="M231.247 52.4694H224.725V58.992H231.247V52.4694Z" fill="black"/>
<path d="M74.7038 58.9918H68.1812V65.5145H74.7038V58.9918Z" fill="black"/>
<path d="M81.2265 58.9918H74.7039V65.5145H81.2265V58.9918Z" fill="black"/>
<path d="M87.7492 58.9918H81.2266V65.5145H87.7492V58.9918Z" fill="black"/>
<path d="M94.2719 58.9918H87.7493V65.5145H94.2719V58.9918Z" fill="black"/>
<path d="M113.84 58.9918H107.317V65.5145H113.84V58.9918Z" fill="black"/>
<path d="M133.408 58.9918H126.885V65.5145H133.408V58.9918Z" fill="black"/>
<path d="M139.93 58.9918H133.408V65.5145H139.93V58.9918Z" fill="black"/>
<path d="M146.453 58.9918H139.93V65.5145H146.453V58.9918Z" fill="black"/>
<path d="M152.976 58.9918H146.453V65.5145H152.976V58.9918Z" fill="black"/>
<path d="M166.021 58.9918H159.498V65.5145H166.021V58.9918Z" fill="black"/>
<path d="M172.544 58.9918H166.021V65.5145H172.544V58.9918Z" fill="black"/>
<path d="M179.066 58.9918H172.544V65.5145H179.066V58.9918Z" fill="black"/>
<path d="M211.68 58.9918H205.157V65.5145H211.68V58.9918Z" fill="black"/>
<path d="M224.725 58.9918H218.202V65.5145H224.725V58.9918Z" fill="black"/>
<path d="M22.5226 65.5145H16V72.0372H22.5226V65.5145Z" fill="black"/>
<path d="M35.5681 65.5145H29.0454V72.0372H35.5681V65.5145Z" fill="black"/>
<path d="M42.0905 65.5145H35.5679V72.0372H42.0905V65.5145Z" fill="black"/>
<path d="M55.1359 65.5145H48.6133V72.0372H55.1359V65.5145Z" fill="black"/>
<path d="M61.6586 65.5145H55.136V72.0372H61.6586V65.5145Z" fill="black"/>
<path d="M68.1811 65.5145H61.6584V72.0372H68.1811V65.5145Z" fill="black"/>
<path d="M81.2265 65.5145H74.7039V72.0372H81.2265V65.5145Z" fill="black"/>
<path d="M87.7492 65.5145H81.2266V72.0372H87.7492V65.5145Z" fill="black"/>
<path d="M94.2719 65.5145H87.7493V72.0372H94.2719V65.5145Z" fill="black"/>
<path d="M100.794 65.5145H94.2717V72.0372H100.794V65.5145Z" fill="black"/>
<path d="M113.84 65.5145H107.317V72.0372H113.84V65.5145Z" fill="black"/>
<path d="M126.885 65.5145H120.362V72.0372H126.885V65.5145Z" fill="black"/>
<path d="M133.408 65.5145H126.885V72.0372H133.408V65.5145Z" fill="black"/>
<path d="M139.93 65.5145H133.408V72.0372H139.93V65.5145Z" fill="black"/>
<path d="M146.453 65.5145H139.93V72.0372H146.453V65.5145Z" fill="black"/>
<path d="M159.498 65.5145H152.976V72.0372H159.498V65.5145Z" fill="black"/>
<path d="M166.021 65.5145H159.498V72.0372H166.021V65.5145Z" fill="black"/>
<path d="M192.112 65.5145H185.589V72.0372H192.112V65.5145Z" fill="black"/>
<path d="M198.634 65.5145H192.111V72.0372H198.634V65.5145Z" fill="black"/>
<path d="M205.157 65.5145H198.634V72.0372H205.157V65.5145Z" fill="black"/>
<path d="M211.68 65.5145H205.157V72.0372H211.68V65.5145Z" fill="black"/>
<path d="M218.202 65.5145H211.679V72.0372H218.202V65.5145Z" fill="black"/>
<path d="M231.247 65.5145H224.725V72.0372H231.247V65.5145Z" fill="black"/>
<path d="M244.293 65.5145H237.77V72.0372H244.293V65.5145Z" fill="black"/>
<path d="M263.861 65.5145H257.338V72.0372H263.861V65.5145Z" fill="black"/>
<path d="M276.906 65.5145H270.383V72.0372H276.906V65.5145Z" fill="black"/>
<path d="M283.429 65.5145H276.906V72.0372H283.429V65.5145Z" fill="black"/>
<path d="M22.5226 72.0372H16V78.5599H22.5226V72.0372Z" fill="black"/>
<path d="M35.5681 72.0372H29.0454V78.5599H35.5681V72.0372Z" fill="black"/>
<path d="M42.0905 72.0372H35.5679V78.5599H42.0905V72.0372Z" fill="black"/>
<path d="M48.6132 72.0372H42.0906V78.5599H48.6132V72.0372Z" fill="black"/>
<path d="M74.7038 72.0372H68.1812V78.5599H74.7038V72.0372Z" fill="black"/>
<path d="M81.2265 72.0372H74.7039V78.5599H81.2265V72.0372Z" fill="black"/>
<path d="M87.7492 72.0372H81.2266V78.5599H87.7492V72.0372Z" fill="black"/>
<path d="M94.2719 72.0372H87.7493V78.5599H94.2719V72.0372Z" fill="black"/>
<path d="M120.362 72.0372H113.84V78.5599H120.362V72.0372Z" fill="black"/>
<path d="M133.408 72.0372H126.885V78.5599H133.408V72.0372Z" fill="black"/>
<path d="M146.453 72.0372H139.93V78.5599H146.453V72.0372Z" fill="black"/>
<path d="M172.544 72.0372H166.021V78.5599H172.544V72.0372Z" fill="black"/>
<path d="M185.589 72.0372H179.066V78.5599H185.589V72.0372Z" fill="black"/>
<path d="M205.157 72.0372H198.634V78.5599H205.157V72.0372Z" fill="black"/>
<path d="M218.202 72.0372H211.679V78.5599H218.202V72.0372Z" fill="black"/>
<path d="M224.725 72.0372H218.202V78.5599H224.725V72.0372Z" fill="black"/>
<path d="M231.247 72.0372H224.725V78.5599H231.247V72.0372Z" fill="black"/>
<path d="M237.77 72.0372H231.247V78.5599H237.77V72.0372Z" fill="black"/>
<path d="M244.293 72.0372H237.77V78.5599H244.293V72.0372Z" fill="black"/>
<path d="M250.815 72.0372H244.293V78.5599H250.815V72.0372Z" fill="black"/>
<path d="M257.338 72.0372H250.815V78.5599H257.338V72.0372Z" fill="black"/>
<path d="M270.383 72.0372H263.861V78.5599H270.383V72.0372Z" fill="black"/>
<path d="M283.429 72.0372H276.906V78.5599H283.429V72.0372Z" fill="black"/>
<path d="M22.5226 78.5599H16V85.0826H22.5226V78.5599Z" fill="black"/>
<path d="M29.0454 78.5599H22.5227V85.0826H29.0454V78.5599Z" fill="black"/>
<path d="M35.5681 78.5599H29.0454V85.0826H35.5681V78.5599Z" fill="black"/>
<path d="M42.0905 78.5599H35.5679V85.0826H42.0905V78.5599Z" fill="black"/>
<path d="M48.6132 78.5599H42.0906V85.0826H48.6132V78.5599Z" fill="black"/>
<path d="M61.6586 78.5599H55.136V85.0826H61.6586V78.5599Z" fill="black"/>
<path d="M81.2265 78.5599H74.7039V85.0826H81.2265V78.5599Z" fill="black"/>
<path d="M107.317 78.5599H100.794V85.0826H107.317V78.5599Z" fill="black"/>
<path d="M120.362 78.5599H113.84V85.0826H120.362V78.5599Z" fill="black"/>
<path d="M126.885 78.5599H120.362V85.0826H126.885V78.5599Z" fill="black"/>
<path d="M133.408 78.5599H126.885V85.0826H133.408V78.5599Z" fill="black"/>
<path d="M166.021 78.5599H159.498V85.0826H166.021V78.5599Z" fill="black"/>
<path d="M172.544 78.5599H166.021V85.0826H172.544V78.5599Z" fill="black"/>
<path d="M211.68 78.5599H205.157V85.0826H211.68V78.5599Z" fill="black"/>
<path d="M218.202 78.5599H211.679V85.0826H218.202V78.5599Z" fill="black"/>
<path d="M237.77 78.5599H231.247V85.0826H237.77V78.5599Z" fill="black"/>
<path d="M244.293 78.5599H237.77V85.0826H244.293V78.5599Z" fill="black"/>
<path d="M257.338 78.5599H250.815V85.0826H257.338V78.5599Z" fill="black"/>
<path d="M270.383 78.5599H263.861V85.0826H270.383V78.5599Z" fill="black"/>
<path d="M22.5226 85.0826H16V91.6053H22.5226V85.0826Z" fill="black"/>
<path d="M29.0454 85.0826H22.5227V91.6053H29.0454V85.0826Z" fill="black"/>
<path d="M35.5681 85.0826H29.0454V91.6053H35.5681V85.0826Z" fill="black"/>
<path d="M42.0905 85.0826H35.5679V91.6053H42.0905V85.0826Z" fill="black"/>
<path d="M48.6132 85.0826H42.0906V91.6053H48.6132V85.0826Z" fill="black"/>
<path d="M55.1359 85.0826H48.6133V91.6053H55.1359V85.0826Z" fill="black"/>
<path d="M68.1811 85.0826H61.6584V91.6053H68.1811V85.0826Z" fill="black"/>
<path d="M74.7038 85.0826H68.1812V91.6053H74.7038V85.0826Z" fill="black"/>
<path d="M81.2265 85.0826H74.7039V91.6053H81.2265V85.0826Z" fill="black"/>
<path d="M100.794 85.0826H94.2717V91.6053H100.794V85.0826Z" fill="black"/>
<path d="M113.84 85.0826H107.317V91.6053H113.84V85.0826Z" fill="black"/>
<path d="M139.93 85.0826H133.408V91.6053H139.93V85.0826Z" fill="black"/>
<path d="M146.453 85.0826H139.93V91.6053H146.453V85.0826Z" fill="black"/>
<path d="M152.976 85.0826H146.453V91.6053H152.976V85.0826Z" fill="black"/>
<path d="M179.066 85.0826H172.544V91.6053H179.066V85.0826Z" fill="black"/>
<path d="M185.589 85.0826H179.066V91.6053H185.589V85.0826Z" fill="black"/>
<path d="M198.634 85.0826H192.111V91.6053H198.634V85.0826Z" fill="black"/>
<path d="M231.247 85.0826H224.725V91.6053H231.247V85.0826Z" fill="black"/>
<path d="M237.77 85.0826H231.247V91.6053H237.77V85.0826Z" fill="black"/>
<path d="M250.815 85.0826H244.293V91.6053H250.815V85.0826Z" fill="black"/>
<path d="M257.338 85.0826H250.815V91.6053H257.338V85.0826Z" fill="black"/>
<path d="M283.429 85.0826H276.906V91.6053H283.429V85.0826Z" fill="black"/>
<path d="M22.5226 91.6051H16V98.1278H22.5226V91.6051Z" fill="black"/>
<path d="M35.5681 91.6051H29.0454V98.1278H35.5681V91.6051Z" fill="black"/>
<path d="M55.1359 91.6051H48.6133V98.1278H55.1359V91.6051Z" fill="black"/>
<path d="M61.6586 91.6051H55.136V98.1278H61.6586V91.6051Z" fill="black"/>
<path d="M87.7492 91.6051H81.2266V98.1278H87.7492V91.6051Z" fill="black"/>
<path d="M94.2719 91.6051H87.7493V98.1278H94.2719V91.6051Z" fill="black"/>
<path d="M107.317 91.6051H100.794V98.1278H107.317V91.6051Z" fill="black"/>
<path d="M126.885 91.6051H120.362V98.1278H126.885V91.6051Z" fill="black"/>
<path d="M133.408 91.6051H126.885V98.1278H133.408V91.6051Z" fill="black"/>
<path d="M146.453 91.6051H139.93V98.1278H146.453V91.6051Z" fill="black"/>
<path d="M152.976 91.6051H146.453V98.1278H152.976V91.6051Z" fill="black"/>
<path d="M166.021 91.6051H159.498V98.1278H166.021V91.6051Z" fill="black"/>
<path d="M172.544 91.6051H166.021V98.1278H172.544V91.6051Z" fill="black"/>
<path d="M179.066 91.6051H172.544V98.1278H179.066V91.6051Z" fill="black"/>
<path d="M185.589 91.6051H179.066V98.1278H185.589V91.6051Z" fill="black"/>
<path d="M192.112 91.6051H185.589V98.1278H192.112V91.6051Z" fill="black"/>
<path d="M205.157 91.6051H198.634V98.1278H205.157V91.6051Z" fill="black"/>
<path d="M211.68 91.6051H205.157V98.1278H211.68V91.6051Z" fill="black"/>
<path d="M224.725 91.6051H218.202V98.1278H224.725V91.6051Z" fill="black"/>
<path d="M250.815 91.6051H244.293V98.1278H250.815V91.6051Z" fill="black"/>
<path d="M263.861 91.6051H257.338V98.1278H263.861V91.6051Z" fill="black"/>
<path d="M270.383 91.6051H263.861V98.1278H270.383V91.6051Z" fill="black"/>
<path d="M283.429 91.6051H276.906V98.1278H283.429V91.6051Z" fill="black"/>
<path d="M35.5681 98.1278H29.0454V104.65H35.5681V98.1278Z" fill="black"/>
<path d="M42.0905 98.1278H35.5679V104.65H42.0905V98.1278Z" fill="black"/>
<path d="M74.7038 98.1278H68.1812V104.65H74.7038V98.1278Z" fill="black"/>
<path d="M81.2265 98.1278H74.7039V104.65H81.2265V98.1278Z" fill="black"/>
<path d="M87.7492 98.1278H81.2266V104.65H87.7492V98.1278Z" fill="black"/>
<path d="M94.2719 98.1278H87.7493V104.65H94.2719V98.1278Z" fill="black"/>
<path d="M113.84 98.1278H107.317V104.65H113.84V98.1278Z" fill="black"/>
<path d="M126.885 98.1278H120.362V104.65H126.885V98.1278Z" fill="black"/>
<path d="M152.976 98.1278H146.453V104.65H152.976V98.1278Z" fill="black"/>
<path d="M159.498 98.1278H152.976V104.65H159.498V98.1278Z" fill="black"/>
<path d="M172.544 98.1278H166.021V104.65H172.544V98.1278Z" fill="black"/>
<path d="M179.066 98.1278H172.544V104.65H179.066V98.1278Z" fill="black"/>
<path d="M185.589 98.1278H179.066V104.65H185.589V98.1278Z" fill="black"/>
<path d="M211.68 98.1278H205.157V104.65H211.68V98.1278Z" fill="black"/>
<path d="M237.77 98.1278H231.247V104.65H237.77V98.1278Z" fill="black"/>
<path d="M270.383 98.1278H263.861V104.65H270.383V98.1278Z" fill="black"/>
<path d="M276.906 98.1278H270.383V104.65H276.906V98.1278Z" fill="black"/>
<path d="M283.429 98.1278H276.906V104.65H283.429V98.1278Z" fill="black"/>
<path d="M22.5226 104.651H16V111.173H22.5226V104.651Z" fill="black"/>
<path d="M42.0905 104.651H35.5679V111.173H42.0905V104.651Z" fill="black"/>
<path d="M48.6132 104.651H42.0906V111.173H48.6132V104.651Z" fill="black"/>
<path d="M55.1359 104.651H48.6133V111.173H55.1359V104.651Z" fill="black"/>
<path d="M61.6586 104.651H55.136V111.173H61.6586V104.651Z" fill="black"/>
<path d="M81.2265 104.651H74.7039V111.173H81.2265V104.651Z" fill="black"/>
<path d="M113.84 104.651H107.317V111.173H113.84V104.651Z" fill="black"/>
<path d="M120.362 104.651H113.84V111.173H120.362V104.651Z" fill="black"/>
<path d="M133.408 104.651H126.885V111.173H133.408V104.651Z" fill="black"/>
<path d="M146.453 104.651H139.93V111.173H146.453V104.651Z" fill="black"/>
<path d="M152.976 104.651H146.453V111.173H152.976V104.651Z" fill="black"/>
<path d="M172.544 104.651H166.021V111.173H172.544V104.651Z" fill="black"/>
<path d="M192.112 104.651H185.589V111.173H192.112V104.651Z" fill="black"/>
<path d="M218.202 104.651H211.679V111.173H218.202V104.651Z" fill="black"/>
<path d="M244.293 104.651H237.77V111.173H244.293V104.651Z" fill="black"/>
<path d="M250.815 104.651H244.293V111.173H250.815V104.651Z" fill="black"/>
<path d="M263.861 104.651H257.338V111.173H263.861V104.651Z" fill="black"/>
<path d="M270.383 104.651H263.861V111.173H270.383V104.651Z" fill="black"/>
<path d="M276.906 104.651H270.383V111.173H276.906V104.651Z" fill="black"/>
<path d="M283.429 104.651H276.906V111.173H283.429V104.651Z" fill="black"/>
<path d="M22.5226 111.173H16V117.696H22.5226V111.173Z" fill="black"/>
<path d="M55.1359 111.173H48.6133V117.696H55.1359V111.173Z" fill="black"/>
<path d="M68.1811 111.173H61.6584V117.696H68.1811V111.173Z" fill="black"/>
<path d="M94.2719 111.173H87.7493V117.696H94.2719V111.173Z" fill="black"/>
<path d="M126.885 111.173H120.362V117.696H126.885V111.173Z" fill="black"/>
<path d="M159.498 111.173H152.976V117.696H159.498V111.173Z" fill="black"/>
<path d="M172.544 111.173H166.021V117.696H172.544V111.173Z" fill="black"/>
<path d="M192.112 111.173H185.589V117.696H192.112V111.173Z" fill="black"/>
<path d="M198.634 111.173H192.111V117.696H198.634V111.173Z" fill="black"/>
<path d="M224.725 111.173H218.202V117.696H224.725V111.173Z" fill="black"/>
<path d="M231.247 111.173H224.725V117.696H231.247V111.173Z" fill="black"/>
<path d="M244.293 111.173H237.77V117.696H244.293V111.173Z" fill="black"/>
<path d="M257.338 111.173H250.815V117.696H257.338V111.173Z" fill="black"/>
<path d="M263.861 111.173H257.338V117.696H263.861V111.173Z" fill="black"/>
<path d="M276.906 111.173H270.383V117.696H276.906V111.173Z" fill="black"/>
<path d="M22.5226 117.696H16V124.218H22.5226V117.696Z" fill="black"/>
<path d="M29.0454 117.696H22.5227V124.218H29.0454V117.696Z" fill="black"/>
<path d="M42.0905 117.696H35.5679V124.218H42.0905V117.696Z" fill="black"/>
<path d="M48.6132 117.696H42.0906V124.218H48.6132V117.696Z" fill="black"/>
<path d="M61.6586 117.696H55.136V124.218H61.6586V117.696Z" fill="black"/>
<path d="M68.1811 117.696H61.6584V124.218H68.1811V117.696Z" fill="black"/>
<path d="M81.2265 117.696H74.7039V124.218H81.2265V117.696Z" fill="black"/>
<path d="M94.2719 117.696H87.7493V124.218H94.2719V117.696Z" fill="black"/>
<path d="M113.84 117.696H107.317V124.218H113.84V117.696Z" fill="black"/>
<path d="M126.885 117.696H120.362V124.218H126.885V117.696Z" fill="black"/>
<path d="M152.976 117.696H146.453V124.218H152.976V117.696Z" fill="black"/>
<path d="M159.498 117.696H152.976V124.218H159.498V117.696Z" fill="black"/>
<path d="M166.021 117.696H159.498V124.218H166.021V117.696Z" fill="black"/>
<path d="M179.066 117.696H172.544V124.218H179.066V117.696Z" fill="black"/>
<path d="M185.589 117.696H179.066V124.218H185.589V117.696Z" fill="black"/>
<path d="M205.157 117.696H198.634V124.218H205.157V117.696Z" fill="black"/>
<path d="M218.202 117.696H211.679V124.218H218.202V117.696Z" fill="black"/>
<path d="M224.725 117.696H218.202V124.218H224.725V117.696Z" fill="black"/>
<path d="M231.247 117.696H224.725V124.218H231.247V117.696Z" fill="black"/>
<path d="M257.338 117.696H250.815V124.218H257.338V117.696Z" fill="black"/>
<path d="M276.906 117.696H270.383V124.218H276.906V117.696Z" fill="black"/>
<path d="M283.429 117.696H276.906V124.218H283.429V117.696Z" fill="black"/>
<path d="M22.5226 124.218H16V130.741H22.5226V124.218Z" fill="black"/>
<path d="M29.0454 124.218H22.5227V130.741H29.0454V124.218Z" fill="black"/>
<path d="M35.5681 124.218H29.0454V130.741H35.5681V124.218Z" fill="black"/>
<path d="M42.0905 124.218H35.5679V130.741H42.0905V124.218Z" fill="black"/>
<path d="M48.6132 124.218H42.0906V130.741H48.6132V124.218Z" fill="black"/>
<path d="M68.1811 124.218H61.6584V130.741H68.1811V124.218Z" fill="black"/>
<path d="M100.794 124.218H94.2717V130.741H100.794V124.218Z" fill="black"/>
<path d="M113.84 124.218H107.317V130.741H113.84V124.218Z" fill="black"/>
<path d="M152.976 124.218H146.453V130.741H152.976V124.218Z" fill="black"/>
<path d="M159.498 124.218H152.976V130.741H159.498V124.218Z" fill="black"/>
<path d="M172.544 124.218H166.021V130.741H172.544V124.218Z" fill="black"/>
<path d="M179.066 124.218H172.544V130.741H179.066V124.218Z" fill="black"/>
<path d="M185.589 124.218H179.066V130.741H185.589V124.218Z" fill="black"/>
<path d="M192.112 124.218H185.589V130.741H192.112V124.218Z" fill="black"/>
<path d="M198.634 124.218H192.111V130.741H198.634V124.218Z" fill="black"/>
<path d="M211.68 124.218H205.157V130.741H211.68V124.218Z" fill="black"/>
<path d="M218.202 124.218H211.679V130.741H218.202V124.218Z" fill="black"/>
<path d="M231.247 124.218H224.725V130.741H231.247V124.218Z" fill="black"/>
<path d="M237.77 124.218H231.247V130.741H237.77V124.218Z" fill="black"/>
<path d="M250.815 124.218H244.293V130.741H250.815V124.218Z" fill="black"/>
<path d="M263.861 124.218H257.338V130.741H263.861V124.218Z" fill="black"/>
<path d="M270.383 124.218H263.861V130.741H270.383V124.218Z" fill="black"/>
<path d="M276.906 124.218H270.383V130.741H276.906V124.218Z" fill="black"/>
<path d="M42.0905 130.741H35.5679V137.264H42.0905V130.741Z" fill="black"/>
<path d="M61.6586 130.741H55.136V137.264H61.6586V130.741Z" fill="black"/>
<path d="M81.2265 130.741H74.7039V137.264H81.2265V130.741Z" fill="black"/>
<path d="M87.7492 130.741H81.2266V137.264H87.7492V130.741Z" fill="black"/>
<path d="M94.2719 130.741H87.7493V137.264H94.2719V130.741Z" fill="black"/>
<path d="M107.317 130.741H100.794V137.264H107.317V130.741Z" fill="black"/>
<path d="M120.362 130.741H113.84V137.264H120.362V130.741Z" fill="black"/>
<path d="M126.885 130.741H120.362V137.264H126.885V130.741Z" fill="black"/>
<path d="M139.93 130.741H133.408V137.264H139.93V130.741Z" fill="black"/>
<path d="M152.976 130.741H146.453V137.264H152.976V130.741Z" fill="black"/>
<path d="M166.021 130.741H159.498V137.264H166.021V130.741Z" fill="black"/>
<path d="M198.634 130.741H192.111V137.264H198.634V130.741Z" fill="black"/>
<path d="M205.157 130.741H198.634V137.264H205.157V130.741Z" fill="black"/>
<path d="M211.68 130.741H205.157V137.264H211.68V130.741Z" fill="black"/>
<path d="M237.77 130.741H231.247V137.264H237.77V130.741Z" fill="black"/>
<path d="M257.338 130.741H250.815V137.264H257.338V130.741Z" fill="black"/>
<path d="M263.861 130.741H257.338V137.264H263.861V130.741Z" fill="black"/>
<path d="M29.0454 137.264H22.5227V143.786H29.0454V137.264Z" fill="black"/>
<path d="M35.5681 137.264H29.0454V143.786H35.5681V137.264Z" fill="black"/>
<path d="M81.2265 137.264H74.7039V143.786H81.2265V137.264Z" fill="black"/>
<path d="M87.7492 137.264H81.2266V143.786H87.7492V137.264Z" fill="black"/>
<path d="M100.794 137.264H94.2717V143.786H100.794V137.264Z" fill="black"/>
<path d="M113.84 137.264H107.317V143.786H113.84V137.264Z" fill="black"/>
<path d="M120.362 137.264H113.84V143.786H120.362V137.264Z" fill="black"/>
<path d="M126.885 137.264H120.362V143.786H126.885V137.264Z" fill="black"/>
<path d="M133.408 137.264H126.885V143.786H133.408V137.264Z" fill="black"/>
<path d="M139.93 137.264H133.408V143.786H139.93V137.264Z" fill="black"/>
<path d="M146.453 137.264H139.93V143.786H146.453V137.264Z" fill="black"/>
<path d="M159.498 137.264H152.976V143.786H159.498V137.264Z" fill="black"/>
<path d="M172.544 137.264H166.021V143.786H172.544V137.264Z" fill="black"/>
<path d="M179.066 137.264H172.544V143.786H179.066V137.264Z" fill="black"/>
<path d="M205.157 137.264H198.634V143.786H205.157V137.264Z" fill="black"/>
<path d="M224.725 137.264H218.202V143.786H224.725V137.264Z" fill="black"/>
<path d="M250.815 137.264H244.293V143.786H250.815V137.264Z" fill="black"/>
<path d="M263.861 137.264H257.338V143.786H263.861V137.264Z" fill="black"/>
<path d="M270.383 137.264H263.861V143.786H270.383V137.264Z" fill="black"/>
<path d="M276.906 137.264H270.383V143.786H276.906V137.264Z" fill="black"/>
<path d="M283.429 137.264H276.906V143.786H283.429V137.264Z" fill="black"/>
<path d="M29.0454 143.786H22.5227V150.309H29.0454V143.786Z" fill="black"/>
<path d="M35.5681 143.786H29.0454V150.309H35.5681V143.786Z" fill="black"/>
<path d="M42.0905 143.786H35.5679V150.309H42.0905V143.786Z" fill="black"/>
<path d="M55.1359 143.786H48.6133V150.309H55.1359V143.786Z" fill="black"/>
<path d="M61.6586 143.786H55.136V150.309H61.6586V143.786Z" fill="black"/>
<path d="M68.1811 143.786H61.6584V150.309H68.1811V143.786Z" fill="black"/>
<path d="M107.317 143.786H100.794V150.309H107.317V143.786Z" fill="black"/>
<path d="M113.84 143.786H107.317V150.309H113.84V143.786Z" fill="black"/>
<path d="M120.362 143.786H113.84V150.309H120.362V143.786Z" fill="black"/>
<path d="M152.976 143.786H146.453V150.309H152.976V143.786Z" fill="black"/>
<path d="M172.544 143.786H166.021V150.309H172.544V143.786Z" fill="black"/>
<path d="M185.589 143.786H179.066V150.309H185.589V143.786Z" fill="black"/>
<path d="M205.157 143.786H198.634V150.309H205.157V143.786Z" fill="black"/>
<path d="M218.202 143.786H211.679V150.309H218.202V143.786Z" fill="black"/>
<path d="M224.725 143.786H218.202V150.309H224.725V143.786Z" fill="black"/>
<path d="M237.77 143.786H231.247V150.309H237.77V143.786Z" fill="black"/>
<path d="M244.293 143.786H237.77V150.309H244.293V143.786Z" fill="black"/>
<path d="M250.815 143.786H244.293V150.309H250.815V143.786Z" fill="black"/>
<path d="M263.861 143.786H257.338V150.309H263.861V143.786Z" fill="black"/>
<path d="M270.383 143.786H263.861V150.309H270.383V143.786Z" fill="black"/>
<path d="M276.906 143.786H270.383V150.309H276.906V143.786Z" fill="black"/>
<path d="M22.5226 150.309H16V156.832H22.5226V150.309Z" fill="black"/>
<path d="M29.0454 150.309H22.5227V156.832H29.0454V150.309Z" fill="black"/>
<path d="M35.5681 150.309H29.0454V156.832H35.5681V150.309Z" fill="black"/>
<path d="M48.6132 150.309H42.0906V156.832H48.6132V150.309Z" fill="black"/>
<path d="M55.1359 150.309H48.6133V156.832H55.1359V150.309Z" fill="black"/>
<path d="M81.2265 150.309H74.7039V156.832H81.2265V150.309Z" fill="black"/>
<path d="M100.794 150.309H94.2717V156.832H100.794V150.309Z" fill="black"/>
<path d="M107.317 150.309H100.794V156.832H107.317V150.309Z" fill="black"/>
<path d="M113.84 150.309H107.317V156.832H113.84V150.309Z" fill="black"/>
<path d="M120.362 150.309H113.84V156.832H120.362V150.309Z" fill="black"/>
<path d="M146.453 150.309H139.93V156.832H146.453V150.309Z" fill="black"/>
<path d="M152.976 150.309H146.453V156.832H152.976V150.309Z" fill="black"/>
<path d="M172.544 150.309H166.021V156.832H172.544V150.309Z" fill="black"/>
<path d="M185.589 150.309H179.066V156.832H185.589V150.309Z" fill="black"/>
<path d="M192.112 150.309H185.589V156.832H192.112V150.309Z" fill="black"/>
<path d="M205.157 150.309H198.634V156.832H205.157V150.309Z" fill="black"/>
<path d="M211.68 150.309H205.157V156.832H211.68V150.309Z" fill="black"/>
<path d="M218.202 150.309H211.679V156.832H218.202V150.309Z" fill="black"/>
<path d="M224.725 150.309H218.202V156.832H224.725V150.309Z" fill="black"/>
<path d="M244.293 150.309H237.77V156.832H244.293V150.309Z" fill="black"/>
<path d="M250.815 150.309H244.293V156.832H250.815V150.309Z" fill="black"/>
<path d="M257.338 150.309H250.815V156.832H257.338V150.309Z" fill="black"/>
<path d="M263.861 150.309H257.338V156.832H263.861V150.309Z" fill="black"/>
<path d="M270.383 150.309H263.861V156.832H270.383V150.309Z" fill="black"/>
<path d="M276.906 150.309H270.383V156.832H276.906V150.309Z" fill="black"/>
<path d="M283.429 150.309H276.906V156.832H283.429V150.309Z" fill="black"/>
<path d="M42.0905 156.832H35.5679V163.354H42.0905V156.832Z" fill="black"/>
<path d="M55.1359 156.832H48.6133V163.354H55.1359V156.832Z" fill="black"/>
<path d="M61.6586 156.832H55.136V163.354H61.6586V156.832Z" fill="black"/>
<path d="M68.1811 156.832H61.6584V163.354H68.1811V156.832Z" fill="black"/>
<path d="M81.2265 156.832H74.7039V163.354H81.2265V156.832Z" fill="black"/>
<path d="M87.7492 156.832H81.2266V163.354H87.7492V156.832Z" fill="black"/>
<path d="M94.2719 156.832H87.7493V163.354H94.2719V156.832Z" fill="black"/>
<path d="M113.84 156.832H107.317V163.354H113.84V156.832Z" fill="black"/>
<path d="M126.885 156.832H120.362V163.354H126.885V156.832Z" fill="black"/>
<path d="M152.976 156.832H146.453V163.354H152.976V156.832Z" fill="black"/>
<path d="M159.498 156.832H152.976V163.354H159.498V156.832Z" fill="black"/>
<path d="M166.021 156.832H159.498V163.354H166.021V156.832Z" fill="black"/>
<path d="M172.544 156.832H166.021V163.354H172.544V156.832Z" fill="black"/>
<path d="M179.066 156.832H172.544V163.354H179.066V156.832Z" fill="black"/>
<path d="M185.589 156.832H179.066V163.354H185.589V156.832Z" fill="black"/>
<path d="M205.157 156.832H198.634V163.354H205.157V156.832Z" fill="black"/>
<path d="M211.68 156.832H205.157V163.354H211.68V156.832Z" fill="black"/>
<path d="M218.202 156.832H211.679V163.354H218.202V156.832Z" fill="black"/>
<path d="M244.293 156.832H237.77V163.354H244.293V156.832Z" fill="black"/>
<path d="M250.815 156.832H244.293V163.354H250.815V156.832Z" fill="black"/>
<path d="M257.338 156.832H250.815V163.354H257.338V156.832Z" fill="black"/>
<path d="M263.861 156.832H257.338V163.354H263.861V156.832Z" fill="black"/>
<path d="M270.383 156.832H263.861V163.354H270.383V156.832Z" fill="black"/>
<path d="M276.906 156.832H270.383V163.354H276.906V156.832Z" fill="black"/>
<path d="M22.5226 163.354H16V169.877H22.5226V163.354Z" fill="black"/>
<path d="M29.0454 163.354H22.5227V169.877H29.0454V163.354Z" fill="black"/>
<path d="M42.0905 163.354H35.5679V169.877H42.0905V163.354Z" fill="black"/>
<path d="M48.6132 163.354H42.0906V169.877H48.6132V163.354Z" fill="black"/>
<path d="M68.1811 163.354H61.6584V169.877H68.1811V163.354Z" fill="black"/>
<path d="M100.794 163.354H94.2717V169.877H100.794V163.354Z" fill="black"/>
<path d="M126.885 163.354H120.362V169.877H126.885V163.354Z" fill="black"/>
<path d="M139.93 163.354H133.408V169.877H139.93V163.354Z" fill="black"/>
<path d="M152.976 163.354H146.453V169.877H152.976V163.354Z" fill="black"/>
<path d="M166.021 163.354H159.498V169.877H166.021V163.354Z" fill="black"/>
<path d="M185.589 163.354H179.066V169.877H185.589V163.354Z" fill="black"/>
<path d="M192.112 163.354H185.589V169.877H192.112V163.354Z" fill="black"/>
<path d="M205.157 163.354H198.634V169.877H205.157V163.354Z" fill="black"/>
<path d="M237.77 163.354H231.247V169.877H237.77V163.354Z" fill="black"/>
<path d="M250.815 163.354H244.293V169.877H250.815V163.354Z" fill="black"/>
<path d="M257.338 163.354H250.815V169.877H257.338V163.354Z" fill="black"/>
<path d="M276.906 163.354H270.383V169.877H276.906V163.354Z" fill="black"/>
<path d="M22.5226 169.877H16V176.4H22.5226V169.877Z" fill="black"/>
<path d="M29.0454 169.877H22.5227V176.4H29.0454V169.877Z" fill="black"/>
<path d="M35.5681 169.877H29.0454V176.4H35.5681V169.877Z" fill="black"/>
<path d="M42.0905 169.877H35.5679V176.4H42.0905V169.877Z" fill="black"/>
<path d="M55.1359 169.877H48.6133V176.4H55.1359V169.877Z" fill="black"/>
<path d="M61.6586 169.877H55.136V176.4H61.6586V169.877Z" fill="black"/>
<path d="M100.794 169.877H94.2717V176.4H100.794V169.877Z" fill="black"/>
<path d="M126.885 169.877H120.362V176.4H126.885V169.877Z" fill="black"/>
<path d="M133.408 169.877H126.885V176.4H133.408V169.877Z" fill="black"/>
<path d="M146.453 169.877H139.93V176.4H146.453V169.877Z" fill="black"/>
<path d="M166.021 169.877H159.498V176.4H166.021V169.877Z" fill="black"/>
<path d="M172.544 169.877H166.021V176.4H172.544V169.877Z" fill="black"/>
<path d="M179.066 169.877H172.544V176.4H179.066V169.877Z" fill="black"/>
<path d="M185.589 169.877H179.066V176.4H185.589V169.877Z" fill="black"/>
<path d="M192.112 169.877H185.589V176.4H192.112V169.877Z" fill="black"/>
<path d="M198.634 169.877H192.111V176.4H198.634V169.877Z" fill="black"/>
<path d="M211.68 169.877H205.157V176.4H211.68V169.877Z" fill="black"/>
<path d="M237.77 169.877H231.247V176.4H237.77V169.877Z" fill="black"/>
<path d="M270.383 169.877H263.861V176.4H270.383V169.877Z" fill="black"/>
<path d="M22.5226 176.4H16V182.922H22.5226V176.4Z" fill="black"/>
<path d="M107.317 176.4H100.794V182.922H107.317V176.4Z" fill="black"/>
<path d="M113.84 176.4H107.317V182.922H113.84V176.4Z" fill="black"/>
<path d="M120.362 176.4H113.84V182.922H120.362V176.4Z" fill="black"/>
<path d="M126.885 176.4H120.362V182.922H126.885V176.4Z" fill="black"/>
<path d="M139.93 176.4H133.408V182.922H139.93V176.4Z" fill="black"/>
<path d="M146.453 176.4H139.93V182.922H146.453V176.4Z" fill="black"/>
<path d="M159.498 176.4H152.976V182.922H159.498V176.4Z" fill="black"/>
<path d="M179.066 176.4H172.544V182.922H179.066V176.4Z" fill="black"/>
<path d="M192.112 176.4H185.589V182.922H192.112V176.4Z" fill="black"/>
<path d="M198.634 176.4H192.111V182.922H198.634V176.4Z" fill="black"/>
<path d="M211.68 176.4H205.157V182.922H211.68V176.4Z" fill="black"/>
<path d="M224.725 176.4H218.202V182.922H224.725V176.4Z" fill="black"/>
<path d="M231.247 176.4H224.725V182.922H231.247V176.4Z" fill="black"/>
<path d="M244.293 176.4H237.77V182.922H244.293V176.4Z" fill="black"/>
<path d="M263.861 176.4H257.338V182.922H263.861V176.4Z" fill="black"/>
<path d="M270.383 176.4H263.861V182.922H270.383V176.4Z" fill="black"/>
<path d="M283.429 176.4H276.906V182.922H283.429V176.4Z" fill="black"/>
<path d="M29.0454 182.922H22.5227V189.445H29.0454V182.922Z" fill="black"/>
<path d="M48.6132 182.922H42.0906V189.445H48.6132V182.922Z" fill="black"/>
<path d="M55.1359 182.922H48.6133V189.445H55.1359V182.922Z" fill="black"/>
<path d="M61.6586 182.922H55.136V189.445H61.6586V182.922Z" fill="black"/>
<path d="M81.2265 182.922H74.7039V189.445H81.2265V182.922Z" fill="black"/>
<path d="M87.7492 182.922H81.2266V189.445H87.7492V182.922Z" fill="black"/>
<path d="M94.2719 182.922H87.7493V189.445H94.2719V182.922Z" fill="black"/>
<path d="M100.794 182.922H94.2717V189.445H100.794V182.922Z" fill="black"/>
<path d="M107.317 182.922H100.794V189.445H107.317V182.922Z" fill="black"/>
<path d="M120.362 182.922H113.84V189.445H120.362V182.922Z" fill="black"/>
<path d="M139.93 182.922H133.408V189.445H139.93V182.922Z" fill="black"/>
<path d="M146.453 182.922H139.93V189.445H146.453V182.922Z" fill="black"/>
<path d="M152.976 182.922H146.453V189.445H152.976V182.922Z" fill="black"/>
<path d="M179.066 182.922H172.544V189.445H179.066V182.922Z" fill="black"/>
<path d="M218.202 182.922H211.679V189.445H218.202V182.922Z" fill="black"/>
<path d="M224.725 182.922H218.202V189.445H224.725V182.922Z" fill="black"/>
<path d="M231.247 182.922H224.725V189.445H231.247V182.922Z" fill="black"/>
<path d="M237.77 182.922H231.247V189.445H237.77V182.922Z" fill="black"/>
<path d="M244.293 182.922H237.77V189.445H244.293V182.922Z" fill="black"/>
<path d="M250.815 182.922H244.293V189.445H250.815V182.922Z" fill="black"/>
<path d="M257.338 182.922H250.815V189.445H257.338V182.922Z" fill="black"/>
<path d="M263.861 182.922H257.338V189.445H263.861V182.922Z" fill="black"/>
<path d="M276.906 182.922H270.383V189.445H276.906V182.922Z" fill="black"/>
<path d="M283.429 182.922H276.906V189.445H283.429V182.922Z" fill="black"/>
<path d="M35.5681 189.445H29.0454V195.967H35.5681V189.445Z" fill="black"/>
<path d="M42.0905 189.445H35.5679V195.967H42.0905V189.445Z" fill="black"/>
<path d="M55.1359 189.445H48.6133V195.967H55.1359V189.445Z" fill="black"/>
<path d="M68.1811 189.445H61.6584V195.967H68.1811V189.445Z" fill="black"/>
<path d="M74.7038 189.445H68.1812V195.967H74.7038V189.445Z" fill="black"/>
<path d="M94.2719 189.445H87.7493V195.967H94.2719V189.445Z" fill="black"/>
<path d="M100.794 189.445H94.2717V195.967H100.794V189.445Z" fill="black"/>
<path d="M107.317 189.445H100.794V195.967H107.317V189.445Z" fill="black"/>
<path d="M120.362 189.445H113.84V195.967H120.362V189.445Z" fill="black"/>
<path d="M126.885 189.445H120.362V195.967H126.885V189.445Z" fill="black"/>
<path d="M146.453 189.445H139.93V195.967H146.453V189.445Z" fill="black"/>
<path d="M152.976 189.445H146.453V195.967H152.976V189.445Z" fill="black"/>
<path d="M159.498 189.445H152.976V195.967H159.498V189.445Z" fill="black"/>
<path d="M166.021 189.445H159.498V195.967H166.021V189.445Z" fill="black"/>
<path d="M172.544 189.445H166.021V195.967H172.544V189.445Z" fill="black"/>
<path d="M192.112 189.445H185.589V195.967H192.112V189.445Z" fill="black"/>
<path d="M198.634 189.445H192.111V195.967H198.634V189.445Z" fill="black"/>
<path d="M224.725 189.445H218.202V195.967H224.725V189.445Z" fill="black"/>
<path d="M231.247 189.445H224.725V195.967H231.247V189.445Z" fill="black"/>
<path d="M250.815 189.445H244.293V195.967H250.815V189.445Z" fill="black"/>
<path d="M263.861 189.445H257.338V195.967H263.861V189.445Z" fill="black"/>
<path d="M276.906 189.445H270.383V195.967H276.906V189.445Z" fill="black"/>
<path d="M22.5226 195.968H16V202.49H22.5226V195.968Z" fill="black"/>
<path d="M29.0454 195.968H22.5227V202.49H29.0454V195.968Z" fill="black"/>
<path d="M48.6132 195.968H42.0906V202.49H48.6132V195.968Z" fill="black"/>
<path d="M61.6586 195.968H55.136V202.49H61.6586V195.968Z" fill="black"/>
<path d="M107.317 195.968H100.794V202.49H107.317V195.968Z" fill="black"/>
<path d="M120.362 195.968H113.84V202.49H120.362V195.968Z" fill="black"/>
<path d="M126.885 195.968H120.362V202.49H126.885V195.968Z" fill="black"/>
<path d="M139.93 195.968H133.408V202.49H139.93V195.968Z" fill="black"/>
<path d="M146.453 195.968H139.93V202.49H146.453V195.968Z" fill="black"/>
<path d="M152.976 195.968H146.453V202.49H152.976V195.968Z" fill="black"/>
<path d="M159.498 195.968H152.976V202.49H159.498V195.968Z" fill="black"/>
<path d="M166.021 195.968H159.498V202.49H166.021V195.968Z" fill="black"/>
<path d="M172.544 195.968H166.021V202.49H172.544V195.968Z" fill="black"/>
<path d="M179.066 195.968H172.544V202.49H179.066V195.968Z" fill="black"/>
<path d="M185.589 195.968H179.066V202.49H185.589V195.968Z" fill="black"/>
<path d="M192.112 195.968H185.589V202.49H192.112V195.968Z" fill="black"/>
<path d="M198.634 195.968H192.111V202.49H198.634V195.968Z" fill="black"/>
<path d="M218.202 195.968H211.679V202.49H218.202V195.968Z" fill="black"/>
<path d="M224.725 195.968H218.202V202.49H224.725V195.968Z" fill="black"/>
<path d="M231.247 195.968H224.725V202.49H231.247V195.968Z" fill="black"/>
<path d="M237.77 195.968H231.247V202.49H237.77V195.968Z" fill="black"/>
<path d="M250.815 195.968H244.293V202.49H250.815V195.968Z" fill="black"/>
<path d="M257.338 195.968H250.815V202.49H257.338V195.968Z" fill="black"/>
<path d="M263.861 195.968H257.338V202.49H263.861V195.968Z" fill="black"/>
<path d="M283.429 195.968H276.906V202.49H283.429V195.968Z" fill="black"/>
<path d="M74.7038 202.49H68.1812V209.013H74.7038V202.49Z" fill="black"/>
<path d="M81.2265 202.49H74.7039V209.013H81.2265V202.49Z" fill="black"/>
<path d="M87.7492 202.49H81.2266V209.013H87.7492V202.49Z" fill="black"/>
<path d="M100.794 202.49H94.2717V209.013H100.794V202.49Z" fill="black"/>
<path d="M107.317 202.49H100.794V209.013H107.317V202.49Z" fill="black"/>
<path d="M120.362 202.49H113.84V209.013H120.362V202.49Z" fill="black"/>
<path d="M126.885 202.49H120.362V209.013H126.885V202.49Z" fill="black"/>
<path d="M139.93 202.49H133.408V209.013H139.93V202.49Z" fill="black"/>
<path d="M146.453 202.49H139.93V209.013H146.453V202.49Z" fill="black"/>
<path d="M152.976 202.49H146.453V209.013H152.976V202.49Z" fill="black"/>
<path d="M159.498 202.49H152.976V209.013H159.498V202.49Z" fill="black"/>
<path d="M166.021 202.49H159.498V209.013H166.021V202.49Z" fill="black"/>
<path d="M185.589 202.49H179.066V209.013H185.589V202.49Z" fill="black"/>
<path d="M192.112 202.49H185.589V209.013H192.112V202.49Z" fill="black"/>
<path d="M218.202 202.49H211.679V209.013H218.202V202.49Z" fill="black"/>
<path d="M224.725 202.49H218.202V209.013H224.725V202.49Z" fill="black"/>
<path d="M237.77 202.49H231.247V209.013H237.77V202.49Z" fill="black"/>
<path d="M244.293 202.49H237.77V209.013H244.293V202.49Z" fill="black"/>
<path d="M250.815 202.49H244.293V209.013H250.815V202.49Z" fill="black"/>
<path d="M22.5226 209.013H16V215.535H22.5226V209.013Z" fill="black"/>
<path d="M61.6586 209.013H55.136V215.535H61.6586V209.013Z" fill="black"/>
<path d="M68.1811 209.013H61.6584V215.535H68.1811V209.013Z" fill="black"/>
<path d="M74.7038 209.013H68.1812V215.535H74.7038V209.013Z" fill="black"/>
<path d="M81.2265 209.013H74.7039V215.535H81.2265V209.013Z" fill="black"/>
<path d="M100.794 209.013H94.2717V215.535H100.794V209.013Z" fill="black"/>
<path d="M113.84 209.013H107.317V215.535H113.84V209.013Z" fill="black"/>
<path d="M133.408 209.013H126.885V215.535H133.408V209.013Z" fill="black"/>
<path d="M146.453 209.013H139.93V215.535H146.453V209.013Z" fill="black"/>
<path d="M159.498 209.013H152.976V215.535H159.498V209.013Z" fill="black"/>
<path d="M185.589 209.013H179.066V215.535H185.589V209.013Z" fill="black"/>
<path d="M231.247 209.013H224.725V215.535H231.247V209.013Z" fill="black"/>
<path d="M237.77 209.013H231.247V215.535H237.77V209.013Z" fill="black"/>
<path d="M244.293 209.013H237.77V215.535H244.293V209.013Z" fill="black"/>
<path d="M250.815 209.013H244.293V215.535H250.815V209.013Z" fill="black"/>
<path d="M263.861 209.013H257.338V215.535H263.861V209.013Z" fill="black"/>
<path d="M35.5681 215.535H29.0454V222.058H35.5681V215.535Z" fill="black"/>
<path d="M42.0905 215.535H35.5679V222.058H42.0905V215.535Z" fill="black"/>
<path d="M48.6132 215.535H42.0906V222.058H48.6132V215.535Z" fill="black"/>
<path d="M55.1359 215.535H48.6133V222.058H55.1359V215.535Z" fill="black"/>
<path d="M68.1811 215.535H61.6584V222.058H68.1811V215.535Z" fill="black"/>
<path d="M74.7038 215.535H68.1812V222.058H74.7038V215.535Z" fill="black"/>
<path d="M81.2265 215.535H74.7039V222.058H81.2265V215.535Z" fill="black"/>
<path d="M87.7492 215.535H81.2266V222.058H87.7492V215.535Z" fill="black"/>
<path d="M94.2719 215.535H87.7493V222.058H94.2719V215.535Z" fill="black"/>
<path d="M100.794 215.535H94.2717V222.058H100.794V215.535Z" fill="black"/>
<path d="M107.317 215.535H100.794V222.058H107.317V215.535Z" fill="black"/>
<path d="M120.362 215.535H113.84V222.058H120.362V215.535Z" fill="black"/>
<path d="M126.885 215.535H120.362V222.058H126.885V215.535Z" fill="black"/>
<path d="M133.408 215.535H126.885V222.058H133.408V215.535Z" fill="black"/>
<path d="M146.453 215.535H139.93V222.058H146.453V215.535Z" fill="black"/>
<path d="M166.021 215.535H159.498V222.058H166.021V215.535Z" fill="black"/>
<path d="M172.544 215.535H166.021V222.058H172.544V215.535Z" fill="black"/>
<path d="M198.634 215.535H192.111V222.058H198.634V215.535Z" fill="black"/>
<path d="M205.157 215.535H198.634V222.058H205.157V215.535Z" fill="black"/>
<path d="M211.68 215.535H205.157V222.058H211.68V215.535Z" fill="black"/>
<path d="M224.725 215.535H218.202V222.058H224.725V215.535Z" fill="black"/>
<path d="M231.247 215.535H224.725V222.058H231.247V215.535Z" fill="black"/>
<path d="M244.293 215.535H237.77V222.058H244.293V215.535Z" fill="black"/>
<path d="M257.338 215.535H250.815V222.058H257.338V215.535Z" fill="black"/>
<path d="M270.383 215.535H263.861V222.058H270.383V215.535Z" fill="black"/>
<path d="M29.0454 222.058H22.5227V228.581H29.0454V222.058Z" fill="black"/>
<path d="M48.6132 222.058H42.0906V228.581H48.6132V222.058Z" fill="black"/>
<path d="M61.6586 222.058H55.136V228.581H61.6586V222.058Z" fill="black"/>
<path d="M87.7492 222.058H81.2266V228.581H87.7492V222.058Z" fill="black"/>
<path d="M94.2719 222.058H87.7493V228.581H94.2719V222.058Z" fill="black"/>
<path d="M100.794 222.058H94.2717V228.581H100.794V222.058Z" fill="black"/>
<path d="M113.84 222.058H107.317V228.581H113.84V222.058Z" fill="black"/>
<path d="M126.885 222.058H120.362V228.581H126.885V222.058Z" fill="black"/>
<path d="M133.408 222.058H126.885V228.581H133.408V222.058Z" fill="black"/>
<path d="M139.93 222.058H133.408V228.581H139.93V222.058Z" fill="black"/>
<path d="M159.498 222.058H152.976V228.581H159.498V222.058Z" fill="black"/>
<path d="M192.112 222.058H185.589V228.581H192.112V222.058Z" fill="black"/>
<path d="M198.634 222.058H192.111V228.581H198.634V222.058Z" fill="black"/>
<path d="M205.157 222.058H198.634V228.581H205.157V222.058Z" fill="black"/>
<path d="M211.68 222.058H205.157V228.581H211.68V222.058Z" fill="black"/>
<path d="M218.202 222.058H211.679V228.581H218.202V222.058Z" fill="black"/>
<path d="M224.725 222.058H218.202V228.581H224.725V222.058Z" fill="black"/>
<path d="M231.247 222.058H224.725V228.581H231.247V222.058Z" fill="black"/>
<path d="M237.77 222.058H231.247V228.581H237.77V222.058Z" fill="black"/>
<path d="M244.293 222.058H237.77V228.581H244.293V222.058Z" fill="black"/>
<path d="M250.815 222.058H244.293V228.581H250.815V222.058Z" fill="black"/>
<path d="M257.338 222.058H250.815V228.581H257.338V222.058Z" fill="black"/>
<path d="M263.861 222.058H257.338V228.581H263.861V222.058Z" fill="black"/>
<path d="M270.383 222.058H263.861V228.581H270.383V222.058Z" fill="black"/>
<path d="M283.429 222.058H276.906V228.581H283.429V222.058Z" fill="black"/>
<path d="M74.7038 228.581H68.1812V235.103H74.7038V228.581Z" fill="black"/>
<path d="M87.7492 228.581H81.2266V235.103H87.7492V228.581Z" fill="black"/>
<path d="M94.2719 228.581H87.7493V235.103H94.2719V228.581Z" fill="black"/>
<path d="M100.794 228.581H94.2717V235.103H100.794V228.581Z" fill="black"/>
<path d="M107.317 228.581H100.794V235.103H107.317V228.581Z" fill="black"/>
<path d="M113.84 228.581H107.317V235.103H113.84V228.581Z" fill="black"/>
<path d="M133.408 228.581H126.885V235.103H133.408V228.581Z" fill="black"/>
<path d="M139.93 228.581H133.408V235.103H139.93V228.581Z" fill="black"/>
<path d="M146.453 228.581H139.93V235.103H146.453V228.581Z" fill="black"/>
<path d="M152.976 228.581H146.453V235.103H152.976V228.581Z" fill="black"/>
<path d="M159.498 228.581H152.976V235.103H159.498V228.581Z" fill="black"/>
<path d="M172.544 228.581H166.021V235.103H172.544V228.581Z" fill="black"/>
<path d="M185.589 228.581H179.066V235.103H185.589V228.581Z" fill="black"/>
<path d="M205.157 228.581H198.634V235.103H205.157V228.581Z" fill="black"/>
<path d="M231.247 228.581H224.725V235.103H231.247V228.581Z" fill="black"/>
<path d="M257.338 228.581H250.815V235.103H257.338V228.581Z" fill="black"/>
<path d="M276.906 228.581H270.383V235.103H276.906V228.581Z" fill="black"/>
<path d="M283.429 228.581H276.906V235.103H283.429V228.581Z" fill="black"/>
<path d="M74.7038 235.103H68.1812V241.626H74.7038V235.103Z" fill="black"/>
<path d="M81.2265 235.103H74.7039V241.626H81.2265V235.103Z" fill="black"/>
<path d="M87.7492 235.103H81.2266V241.626H87.7492V235.103Z" fill="black"/>
<path d="M100.794 235.103H94.2717V241.626H100.794V235.103Z" fill="black"/>
<path d="M107.317 235.103H100.794V241.626H107.317V235.103Z" fill="black"/>
<path d="M113.84 235.103H107.317V241.626H113.84V235.103Z" fill="black"/>
<path d="M120.362 235.103H113.84V241.626H120.362V235.103Z" fill="black"/>
<path d="M139.93 235.103H133.408V241.626H139.93V235.103Z" fill="black"/>
<path d="M152.976 235.103H146.453V241.626H152.976V235.103Z" fill="black"/>
<path d="M172.544 235.103H166.021V241.626H172.544V235.103Z" fill="black"/>
<path d="M179.066 235.103H172.544V241.626H179.066V235.103Z" fill="black"/>
<path d="M185.589 235.103H179.066V241.626H185.589V235.103Z" fill="black"/>
<path d="M211.68 235.103H205.157V241.626H211.68V235.103Z" fill="black"/>
<path d="M224.725 235.103H218.202V241.626H224.725V235.103Z" fill="black"/>
<path d="M231.247 235.103H224.725V241.626H231.247V235.103Z" fill="black"/>
<path d="M244.293 235.103H237.77V241.626H244.293V235.103Z" fill="black"/>
<path d="M257.338 235.103H250.815V241.626H257.338V235.103Z" fill="black"/>
<path d="M276.906 235.103H270.383V241.626H276.906V235.103Z" fill="black"/>
<path d="M74.7038 241.626H68.1812V248.149H74.7038V241.626Z" fill="black"/>
<path d="M81.2265 241.626H74.7039V248.149H81.2265V241.626Z" fill="black"/>
<path d="M87.7492 241.626H81.2266V248.149H87.7492V241.626Z" fill="black"/>
<path d="M100.794 241.626H94.2717V248.149H100.794V241.626Z" fill="black"/>
<path d="M107.317 241.626H100.794V248.149H107.317V241.626Z" fill="black"/>
<path d="M113.84 241.626H107.317V248.149H113.84V241.626Z" fill="black"/>
<path d="M120.362 241.626H113.84V248.149H120.362V241.626Z" fill="black"/>
<path d="M126.885 241.626H120.362V248.149H126.885V241.626Z" fill="black"/>
<path d="M133.408 241.626H126.885V248.149H133.408V241.626Z" fill="black"/>
<path d="M218.202 241.626H211.679V248.149H218.202V241.626Z" fill="black"/>
<path d="M231.247 241.626H224.725V248.149H231.247V241.626Z" fill="black"/>
<path d="M257.338 241.626H250.815V248.149H257.338V241.626Z" fill="black"/>
<path d="M283.429 241.626H276.906V248.149H283.429V241.626Z" fill="black"/>
<path d="M81.2265 248.149H74.7039V254.671H81.2265V248.149Z" fill="black"/>
<path d="M94.2719 248.149H87.7493V254.671H94.2719V248.149Z" fill="black"/>
<path d="M100.794 248.149H94.2717V254.671H100.794V248.149Z" fill="black"/>
<path d="M113.84 248.149H107.317V254.671H113.84V248.149Z" fill="black"/>
<path d="M126.885 248.149H120.362V254.671H126.885V248.149Z" fill="black"/>
<path d="M159.498 248.149H152.976V254.671H159.498V248.149Z" fill="black"/>
<path d="M172.544 248.149H166.021V254.671H172.544V248.149Z" fill="black"/>
<path d="M179.066 248.149H172.544V254.671H179.066V248.149Z" fill="black"/>
<path d="M192.112 248.149H185.589V254.671H192.112V248.149Z" fill="black"/>
<path d="M198.634 248.149H192.111V254.671H198.634V248.149Z" fill="black"/>
<path d="M218.202 248.149H211.679V254.671H218.202V248.149Z" fill="black"/>
<path d="M231.247 248.149H224.725V254.671H231.247V248.149Z" fill="black"/>
<path d="M237.77 248.149H231.247V254.671H237.77V248.149Z" fill="black"/>
<path d="M244.293 248.149H237.77V254.671H244.293V248.149Z" fill="black"/>
<path d="M250.815 248.149H244.293V254.671H250.815V248.149Z" fill="black"/>
<path d="M257.338 248.149H250.815V254.671H257.338V248.149Z" fill="black"/>
<path d="M270.383 248.149H263.861V254.671H270.383V248.149Z" fill="black"/>
<path d="M74.7038 254.671H68.1812V261.194H74.7038V254.671Z" fill="black"/>
<path d="M81.2265 254.671H74.7039V261.194H81.2265V254.671Z" fill="black"/>
<path d="M100.794 254.671H94.2717V261.194H100.794V254.671Z" fill="black"/>
<path d="M113.84 254.671H107.317V261.194H113.84V254.671Z" fill="black"/>
<path d="M120.362 254.671H113.84V261.194H120.362V254.671Z" fill="black"/>
<path d="M133.408 254.671H126.885V261.194H133.408V254.671Z" fill="black"/>
<path d="M146.453 254.671H139.93V261.194H146.453V254.671Z" fill="black"/>
<path d="M152.976 254.671H146.453V261.194H152.976V254.671Z" fill="black"/>
<path d="M166.021 254.671H159.498V261.194H166.021V254.671Z" fill="black"/>
<path d="M179.066 254.671H172.544V261.194H179.066V254.671Z" fill="black"/>
<path d="M185.589 254.671H179.066V261.194H185.589V254.671Z" fill="black"/>
<path d="M192.112 254.671H185.589V261.194H192.112V254.671Z" fill="black"/>
<path d="M198.634 254.671H192.111V261.194H198.634V254.671Z" fill="black"/>
<path d="M205.157 254.671H198.634V261.194H205.157V254.671Z" fill="black"/>
<path d="M211.68 254.671H205.157V261.194H211.68V254.671Z" fill="black"/>
<path d="M218.202 254.671H211.679V261.194H218.202V254.671Z" fill="black"/>
<path d="M257.338 254.671H250.815V261.194H257.338V254.671Z" fill="black"/>
<path d="M263.861 254.671H257.338V261.194H263.861V254.671Z" fill="black"/>
<path d="M270.383 254.671H263.861V261.194H270.383V254.671Z" fill="black"/>
<path d="M276.906 254.671H270.383V261.194H276.906V254.671Z" fill="black"/>
<path d="M74.7038 261.194H68.1812V267.717H74.7038V261.194Z" fill="black"/>
<path d="M81.2265 261.194H74.7039V267.717H81.2265V261.194Z" fill="black"/>
<path d="M87.7492 261.194H81.2266V267.717H87.7492V261.194Z" fill="black"/>
<path d="M100.794 261.194H94.2717V267.717H100.794V261.194Z" fill="black"/>
<path d="M107.317 261.194H100.794V267.717H107.317V261.194Z" fill="black"/>
<path d="M120.362 261.194H113.84V267.717H120.362V261.194Z" fill="black"/>
<path d="M133.408 261.194H126.885V267.717H133.408V261.194Z" fill="black"/>
<path d="M139.93 261.194H133.408V267.717H139.93V261.194Z" fill="black"/>
<path d="M146.453 261.194H139.93V267.717H146.453V261.194Z" fill="black"/>
<path d="M152.976 261.194H146.453V267.717H152.976V261.194Z" fill="black"/>
<path d="M159.498 261.194H152.976V267.717H159.498V261.194Z" fill="black"/>
<path d="M166.021 261.194H159.498V267.717H166.021V261.194Z" fill="black"/>
<path d="M179.066 261.194H172.544V267.717H179.066V261.194Z" fill="black"/>
<path d="M192.112 261.194H185.589V267.717H192.112V261.194Z" fill="black"/>
<path d="M205.157 261.194H198.634V267.717H205.157V261.194Z" fill="black"/>
<path d="M231.247 261.194H224.725V267.717H231.247V261.194Z" fill="black"/>
<path d="M250.815 261.194H244.293V267.717H250.815V261.194Z" fill="black"/>
<path d="M276.906 261.194H270.383V267.717H276.906V261.194Z" fill="black"/>
<path d="M283.429 261.194H276.906V267.717H283.429V261.194Z" fill="black"/>
<path d="M107.317 267.717H100.794V274.239H107.317V267.717Z" fill="black"/>
<path d="M126.885 267.717H120.362V274.239H126.885V267.717Z" fill="black"/>
<path d="M133.408 267.717H126.885V274.239H133.408V267.717Z" fill="black"/>
<path d="M139.93 267.717H133.408V274.239H139.93V267.717Z" fill="black"/>
<path d="M152.976 267.717H146.453V274.239H152.976V267.717Z" fill="black"/>
<path d="M159.498 267.717H152.976V274.239H159.498V267.717Z" fill="black"/>
<path d="M166.021 267.717H159.498V274.239H166.021V267.717Z" fill="black"/>
<path d="M172.544 267.717H166.021V274.239H172.544V267.717Z" fill="black"/>
<path d="M192.112 267.717H185.589V274.239H192.112V267.717Z" fill="black"/>
<path d="M198.634 267.717H192.111V274.239H198.634V267.717Z" fill="black"/>
<path d="M205.157 267.717H198.634V274.239H205.157V267.717Z" fill="black"/>
<path d="M224.725 267.717H218.202V274.239H224.725V267.717Z" fill="black"/>
<path d="M231.247 267.717H224.725V274.239H231.247V267.717Z" fill="black"/>
<path d="M237.77 267.717H231.247V274.239H237.77V267.717Z" fill="black"/>
<path d="M257.338 267.717H250.815V274.239H257.338V267.717Z" fill="black"/>
<path d="M263.861 267.717H257.338V274.239H263.861V267.717Z" fill="black"/>
<path d="M276.906 267.717H270.383V274.239H276.906V267.717Z" fill="black"/>
<path d="M74.7038 274.24H68.1812V280.762H74.7038V274.24Z" fill="black"/>
<path d="M81.2265 274.24H74.7039V280.762H81.2265V274.24Z" fill="black"/>
<path d="M94.2719 274.24H87.7493V280.762H94.2719V274.24Z" fill="black"/>
<path d="M100.794 274.24H94.2717V280.762H100.794V274.24Z" fill="black"/>
<path d="M107.317 274.24H100.794V280.762H107.317V274.24Z" fill="black"/>
<path d="M120.362 274.24H113.84V280.762H120.362V274.24Z" fill="black"/>
<path d="M152.976 274.24H146.453V280.762H152.976V274.24Z" fill="black"/>
<path d="M159.498 274.24H152.976V280.762H159.498V274.24Z" fill="black"/>
<path d="M166.021 274.24H159.498V280.762H166.021V274.24Z" fill="black"/>
<path d="M185.589 274.24H179.066V280.762H185.589V274.24Z" fill="black"/>
<path d="M205.157 274.24H198.634V280.762H205.157V274.24Z" fill="black"/>
<path d="M218.202 274.24H211.679V280.762H218.202V274.24Z" fill="black"/>
<path d="M224.725 274.24H218.202V280.762H224.725V274.24Z" fill="black"/>
<path d="M231.247 274.24H224.725V280.762H231.247V274.24Z" fill="black"/>
<path d="M276.906 274.24H270.383V280.762H276.906V274.24Z" fill="black"/>
<path d="M54.8098 13.3334H22.8488H16V20.1822V52.1431V58.9919H22.8488H54.8098H61.6585V52.1431V20.1822V13.3334H54.8098ZM54.8098 52.1431H22.8488V20.1822H54.8098V52.1431Z" fill="black"/>
<path d="M276.58 13.3334H244.619H237.77V20.1822V52.1431V58.9919H244.619H276.58H283.428V52.1431V20.1822V13.3334H276.58ZM276.58 52.1431H244.619V20.1822H276.58V52.1431Z" fill="black"/>
<path d="M54.8098 235.103H22.8488H16V241.952V273.913V280.762H22.8488H54.8098H61.6585V273.913V241.952V235.103H54.8098ZM54.8098 273.913H22.8488V241.952H54.8098V273.913Z" fill="black"/>
<path d="M48.6134 26.3788H29.0454V45.9467H48.6134V26.3788Z" fill="black"/>
<path d="M270.383 26.3788H250.815V45.9467H270.383V26.3788Z" fill="black"/>
<path d="M48.6134 248.149H29.0454V267.717H48.6134V248.149Z" fill="black"/>
</g>
<defs>
<clipPath id="clip0_461_5877">
<rect width="300" height="300" fill="white"/>
</clipPath>
</defs>
</svg>
